<?xml version="1.0" encoding="utf-8" ?><svg version="1.1" xmlns = 'http://www.w3.org/2000/svg'><defs><font id='web' horiz-adv-x="1000">
<font-face font-family="web" descent="-330" cap-height="1622" units-per-em="2048" bbox="-219,-432,2572,1964" x-height="1126" ascent="1645" />
<missing-glyph horiz-adv-x="492" d="" /><glyph horiz-adv-x="492" d="" unicode=" " />
<glyph horiz-adv-x="545" d="M 422 1622 L 389 438 L 154 438 L 123 1622 L 422 1622 Z M 408 0 L 139 0 L 139 328 L 408 328 L 408 0 Z" unicode="!" />
<glyph horiz-adv-x="829" d="M 754 1622 L 741 932 L 506 932 L 494 1622 L 754 1622 Z M 332 1622 L 317 932 L 88 932 L 74 1622 L 332 1622 Z" unicode="&#x22;" />
<glyph horiz-adv-x="1053" d="M 1022 1081 L 997 895 L 793 895 C 788 880 776 807 756 676 L 977 676 L 952 492 L 729 492 L 662 -37 L 516 -37 L 584 492 L 375 492 L 307 -37 L 162 -37 L 229 492 L 27 492 L 53 676 L 254 676 L 289 895 L 74 895 L 98 1081 L 317 1081 C 328 1160 349 1324 381 1573 L 526 1573 L 463 1081 L 672 1081 L 735 1573 L 883 1573 L 817 1081 L 1022 1081 Z M 643 895 L 436 895 L 403 676 L 610 676 C 618 743 629 816 643 895 Z" unicode="#" />
<glyph horiz-adv-x="1219" d="M 676 1604 C 805 1594 905 1564 975 1515 C 1045 1466 1093 1390 1118 1286 C 1126 1254 1130 1203 1130 1135 L 879 1135 L 880 1155 C 880 1197 873 1237 860 1274 C 847 1310 825 1338 795 1358 C 764 1378 724 1391 676 1397 L 676 942 C 783 906 874 864 948 816 C 1022 768 1076 715 1109 655 C 1142 595 1159 520 1159 430 C 1159 304 1116 204 1030 130 C 944 55 826 13 676 4 L 676 -135 L 535 -135 L 535 4 C 257 20 98 124 59 317 C 51 362 47 412 47 467 L 301 467 C 301 399 308 349 323 317 C 337 285 362 260 398 242 C 433 224 479 213 535 209 L 535 745 L 467 776 C 311 840 203 904 145 970 C 86 1036 57 1122 57 1229 C 57 1345 98 1436 181 1502 C 264 1568 382 1603 535 1608 L 535 1659 L 676 1659 L 676 1604 Z M 535 1403 C 383 1391 307 1334 307 1231 C 307 1179 324 1135 360 1100 C 396 1064 454 1031 535 999 L 535 1403 Z M 676 209 C 828 226 905 296 905 420 C 905 484 890 534 860 570 C 830 605 768 644 676 686 L 676 209 Z" unicode="$" />
<glyph horiz-adv-x="1798" d="M 856 1161 C 856 1055 819 969 747 903 C 674 836 580 803 465 803 C 347 803 252 836 180 902 C 108 968 72 1055 72 1161 L 72 1290 C 72 1402 107 1489 177 1553 C 247 1617 343 1649 465 1649 C 545 1649 615 1633 674 1602 C 732 1571 777 1528 809 1474 C 840 1420 856 1358 856 1290 L 856 1161 Z M 1405 1587 L 520 0 L 362 0 L 1251 1587 L 1405 1587 Z M 1724 340 C 1724 227 1688 139 1618 76 C 1547 13 1449 -18 1325 -18 C 1209 -18 1116 15 1045 82 C 973 149 938 235 938 340 L 938 471 C 938 538 954 599 986 654 C 1018 709 1064 752 1124 783 C 1183 813 1252 829 1331 829 C 1409 829 1478 813 1537 781 C 1596 749 1642 706 1675 650 C 1707 594 1724 535 1724 471 L 1724 340 Z M 655 1165 L 655 1288 C 655 1336 636 1378 600 1412 C 564 1446 519 1464 465 1464 C 403 1464 355 1447 321 1415 C 287 1383 270 1340 270 1288 L 270 1167 C 270 1113 288 1068 324 1033 C 360 998 408 981 467 981 C 523 981 568 998 603 1033 C 637 1067 655 1111 655 1165 Z M 1524 348 L 1524 469 C 1524 519 1505 560 1469 594 C 1432 628 1386 645 1331 645 C 1272 645 1225 629 1191 597 C 1156 565 1139 522 1139 469 L 1139 348 C 1139 296 1156 252 1192 216 C 1227 180 1273 162 1331 162 C 1392 162 1439 178 1473 211 C 1507 244 1524 290 1524 348 Z" unicode="%" />
<glyph horiz-adv-x="1489" d="M 690 770 C 814 626 924 510 1018 424 C 1087 509 1123 617 1126 748 L 1370 748 C 1367 548 1311 384 1202 254 C 1212 242 1229 225 1253 202 C 1277 178 1352 111 1477 0 L 1116 0 C 1054 52 1020 84 1012 94 C 900 20 762 -16 600 -16 C 404 -16 260 15 168 79 C 76 142 30 240 30 372 L 31 436 C 32 509 60 579 115 646 C 170 712 247 770 346 819 C 252 957 203 1087 201 1210 L 201 1298 C 201 1361 219 1419 255 1471 C 291 1523 340 1564 402 1593 C 464 1621 536 1636 618 1636 C 730 1636 819 1606 887 1547 C 954 1487 991 1407 999 1307 L 1000 1290 L 1000 1267 C 1000 1193 988 1130 966 1077 C 943 1024 909 973 865 923 C 820 873 762 822 690 770 Z M 553 938 C 681 1024 747 1117 750 1217 L 750 1272 C 744 1363 695 1409 604 1409 C 549 1409 509 1393 483 1362 C 457 1330 444 1288 444 1234 L 446 1200 C 452 1122 487 1035 553 938 Z M 485 641 C 423 605 375 566 342 524 C 309 482 293 439 293 397 C 293 333 315 285 359 253 C 403 221 473 204 567 203 C 619 203 666 207 709 215 C 751 223 790 241 825 268 C 709 380 595 504 485 641 Z" unicode="&#x26;" />
<glyph horiz-adv-x="541" d="M 406 1622 L 391 911 L 150 911 L 135 1622 L 406 1622 Z" unicode="'" />
<glyph horiz-adv-x="639" d="M 621 -141 L 354 -141 C 298 -73 248 8 204 103 C 160 197 125 300 99 410 C 73 520 61 630 61 741 C 61 848 74 957 100 1067 C 126 1177 162 1282 208 1380 C 253 1478 302 1559 354 1622 L 621 1622 C 570 1554 523 1470 479 1372 C 435 1273 401 1168 375 1056 C 349 944 336 837 336 737 C 336 581 362 423 416 261 C 469 99 537 -34 621 -141 Z" unicode="(" />
<glyph horiz-adv-x="639" d="M 590 741 C 590 629 577 519 552 411 C 526 302 491 200 447 105 C 403 10 353 -71 297 -141 L 29 -141 C 82 -74 130 7 174 103 C 218 199 252 303 277 413 C 302 523 315 631 315 737 C 315 838 302 945 276 1057 C 250 1169 215 1274 171 1374 C 127 1474 79 1556 29 1622 L 297 1622 C 347 1562 395 1483 441 1385 C 486 1287 522 1182 549 1070 C 576 957 590 847 590 741 Z" unicode=")" />
<glyph horiz-adv-x="1059" d="M 608 1329 L 877 1454 L 942 1268 L 653 1165 L 868 928 L 715 803 L 524 1065 L 338 807 L 182 930 L 393 1165 L 100 1268 L 166 1454 L 440 1329 L 428 1640 L 621 1640 L 608 1329 Z" unicode="*" />
<glyph horiz-adv-x="1059" d="M 989 664 L 645 664 L 645 332 L 414 332 L 414 664 L 66 664 L 66 897 L 414 897 L 414 1225 L 647 1225 L 647 897 L 989 897 L 989 664 Z" unicode="+" />
<glyph horiz-adv-x="580" d="M 430 -6 L 285 -221 L 127 -188 L 221 2 L 205 0 L 143 0 L 143 346 L 430 346 L 430 -6 Z" unicode="," />
<glyph horiz-adv-x="831" d="M 801 641 L 33 641 L 33 895 L 801 895 L 801 641 Z" unicode="-" />
<glyph horiz-adv-x="580" d="M 438 0 L 141 0 L 141 346 L 438 346 L 438 0 Z" unicode="." />
<glyph horiz-adv-x="551" d="M 584 1632 L 84 -328 L -66 -328 L 432 1632 L 584 1632 Z" unicode="/" />
<glyph horiz-adv-x="1231" d="M 618 1640 C 766 1640 887 1605 981 1536 C 1075 1467 1130 1373 1147 1255 C 1157 1179 1164 1106 1166 1034 C 1168 962 1169 887 1169 811 C 1169 734 1166 653 1160 569 C 1154 484 1146 418 1137 371 C 1107 238 1049 140 963 77 C 877 13 761 -18 616 -18 C 478 -18 370 7 290 57 C 210 107 153 187 117 295 C 81 403 63 576 63 813 C 63 892 63 968 65 1041 C 67 1113 74 1184 88 1253 C 111 1379 168 1475 259 1541 C 350 1607 470 1640 618 1640 Z M 895 815 C 895 1047 887 1189 871 1241 C 855 1293 825 1333 783 1361 C 740 1389 684 1403 616 1403 C 537 1403 476 1384 432 1347 C 388 1310 362 1260 354 1196 C 349 1165 345 1109 341 1028 C 337 947 336 875 336 811 C 336 673 340 559 350 469 C 360 378 386 313 430 273 C 474 233 536 213 618 213 C 693 213 752 230 794 265 C 836 299 863 354 877 429 C 890 504 896 633 895 815 Z" unicode="0" />
<glyph horiz-adv-x="836" d="M 666 0 L 403 0 L 403 1309 L 63 1264 L 63 1475 C 175 1488 264 1507 332 1532 C 399 1556 443 1588 463 1628 L 666 1628 L 666 0 Z" unicode="1" />
<glyph horiz-adv-x="1171" d="M 1135 0 L 51 0 L 51 229 C 234 358 368 459 454 533 C 539 606 606 674 656 737 C 706 799 744 863 770 927 C 796 991 811 1057 813 1126 L 813 1200 C 813 1262 793 1311 754 1346 C 714 1381 653 1399 571 1399 C 501 1399 444 1383 402 1353 C 360 1322 336 1277 330 1217 L 328 1157 L 328 1092 L 61 1092 L 61 1129 C 61 1194 62 1239 66 1264 C 73 1339 99 1405 143 1462 C 187 1519 248 1563 324 1594 C 400 1624 490 1640 594 1640 C 750 1640 871 1607 958 1541 C 1044 1475 1092 1379 1100 1253 L 1101 1226 L 1101 1150 C 1101 997 1044 846 932 696 C 819 546 644 391 406 233 L 1135 233 L 1135 0 Z" unicode="2" />
<glyph horiz-adv-x="1194" d="M 819 868 C 886 862 945 842 996 808 C 1047 774 1085 731 1109 679 C 1133 626 1146 550 1146 450 C 1146 338 1125 248 1083 182 C 1041 116 979 66 897 32 C 815 -1 712 -18 590 -18 C 494 -18 411 -8 343 12 C 275 32 219 61 177 101 C 134 141 102 193 82 257 C 61 321 51 404 51 504 L 319 504 C 319 413 327 349 344 313 C 361 277 390 249 431 231 C 472 212 526 203 594 203 C 655 203 705 212 745 230 C 784 248 813 275 832 313 C 850 351 860 404 860 473 C 860 564 840 629 802 668 C 763 707 693 728 592 731 L 332 731 L 332 946 L 584 946 C 639 947 682 955 714 969 C 746 983 771 1009 790 1045 C 809 1081 819 1133 819 1199 C 819 1249 810 1290 793 1320 C 775 1350 750 1372 718 1386 C 686 1400 643 1407 590 1407 C 539 1407 497 1400 463 1388 C 429 1376 404 1357 386 1333 C 368 1308 358 1275 355 1234 C 351 1192 350 1158 350 1130 L 96 1130 C 96 1243 106 1328 127 1384 C 148 1440 180 1486 222 1524 C 264 1561 318 1590 382 1610 C 446 1630 520 1640 604 1640 C 708 1640 796 1625 869 1595 C 941 1565 996 1521 1032 1463 C 1068 1405 1087 1327 1087 1230 C 1087 1156 1076 1094 1055 1045 C 1033 996 1004 957 966 927 C 928 897 879 877 819 868 Z" unicode="3" />
<glyph horiz-adv-x="1186" d="M 1176 356 L 971 356 L 971 0 L 717 0 L 717 356 L 29 356 L 29 612 L 696 1632 L 971 1632 L 971 594 L 1176 594 L 1176 356 Z M 717 594 L 717 1249 L 276 594 L 717 594 Z" unicode="4" />
<glyph horiz-adv-x="1194" d="M 608 -18 C 440 -18 311 13 223 75 C 134 137 84 224 72 338 C 68 367 66 419 66 494 L 328 494 C 328 414 337 356 355 322 C 373 288 402 262 441 244 C 479 226 529 217 590 217 C 637 217 678 222 712 233 C 746 243 774 259 796 281 C 817 302 832 329 842 362 C 852 395 857 455 857 542 C 857 603 854 652 850 690 C 834 807 752 866 604 866 C 541 866 488 854 445 830 C 401 806 372 770 358 721 L 100 721 L 100 1622 L 1067 1622 L 1067 1380 L 342 1380 L 340 944 C 364 992 407 1030 470 1059 C 533 1087 607 1102 692 1102 C 822 1102 925 1071 1000 1011 C 1074 951 1119 866 1135 756 C 1141 700 1145 634 1146 557 C 1146 463 1143 393 1137 348 C 1120 230 1065 140 972 77 C 879 13 758 -18 608 -18 Z" unicode="5" />
<glyph horiz-adv-x="1204" d="M 627 -18 C 495 -18 388 6 304 56 C 220 105 160 181 122 283 C 84 385 66 561 66 813 C 66 972 72 1101 85 1201 C 97 1300 125 1381 168 1445 C 211 1508 270 1556 345 1590 C 419 1623 506 1640 604 1640 C 681 1640 748 1632 805 1616 C 862 1600 910 1579 949 1552 C 988 1525 1019 1492 1043 1454 C 1066 1415 1082 1372 1091 1324 C 1099 1276 1104 1233 1104 1196 L 854 1196 C 854 1265 834 1317 794 1352 C 754 1387 690 1405 602 1405 C 522 1405 461 1384 419 1343 C 377 1301 352 1244 344 1171 C 336 1071 332 979 332 895 C 366 935 418 967 487 992 C 555 1017 633 1030 719 1030 C 816 1030 897 1011 962 975 C 1026 939 1073 886 1103 817 C 1132 747 1147 639 1147 493 C 1147 393 1138 321 1122 276 C 1088 180 1029 107 946 57 C 862 7 756 -18 627 -18 Z M 882 522 C 882 606 873 666 855 703 C 837 740 809 767 771 785 C 733 802 684 811 625 811 C 577 811 532 804 492 792 C 451 779 417 762 389 740 C 361 718 342 696 334 674 C 339 523 344 434 350 406 C 362 341 390 291 436 257 C 482 222 544 205 623 205 C 687 205 738 216 778 239 C 818 262 845 294 859 334 C 873 374 880 436 882 522 Z" unicode="6" />
<glyph horiz-adv-x="1018" d="M 1006 1397 L 446 0 L 160 0 L 731 1380 L 8 1380 L 8 1622 L 1006 1622 L 1006 1397 Z" unicode="7" />
<glyph horiz-adv-x="1190" d="M 594 -18 C 470 -18 368 0 287 37 C 206 74 146 128 106 200 C 66 271 46 366 46 485 C 46 561 57 626 77 680 C 97 734 132 781 184 819 C 236 857 290 878 346 883 C 300 886 256 908 213 950 C 170 991 143 1037 131 1088 C 119 1138 113 1194 113 1256 C 113 1342 131 1414 169 1470 C 207 1526 262 1569 336 1598 C 410 1627 496 1642 594 1642 C 668 1642 734 1633 793 1617 C 852 1600 902 1576 944 1545 C 985 1513 1017 1475 1040 1429 C 1062 1383 1074 1320 1074 1239 C 1074 1160 1064 1097 1044 1051 C 1024 1005 996 966 960 936 C 923 906 883 888 840 883 C 930 875 1003 838 1058 771 C 1112 704 1140 607 1142 479 C 1142 361 1121 266 1080 196 C 1039 126 978 72 898 36 C 818 0 716 -18 594 -18 Z M 827 1193 C 825 1251 816 1295 800 1325 C 783 1355 755 1378 717 1394 C 679 1410 637 1419 592 1419 C 434 1419 356 1345 356 1197 C 356 1119 374 1063 410 1029 C 446 994 508 977 594 977 C 650 977 694 983 728 997 C 762 1011 786 1032 802 1062 C 818 1091 826 1135 827 1193 Z M 889 487 C 889 585 865 657 818 702 C 771 747 696 770 594 770 C 528 770 473 760 429 741 C 385 721 352 692 331 654 C 310 616 300 558 300 482 C 300 409 310 354 330 316 C 350 278 383 248 429 228 C 475 207 530 197 592 197 C 691 197 765 218 815 261 C 864 303 889 379 889 487 Z" unicode="8" />
<glyph horiz-adv-x="1200" d="M 594 -18 C 427 -18 302 17 220 87 C 137 157 96 270 96 424 L 346 424 C 346 350 366 296 406 264 C 446 231 510 215 596 215 C 673 215 734 234 779 273 C 824 311 850 365 856 434 C 864 542 868 637 868 721 C 831 680 780 648 714 625 C 648 601 575 590 496 590 C 404 590 326 607 260 641 C 194 675 145 725 114 790 C 82 854 66 955 66 1091 C 66 1202 74 1283 90 1335 C 121 1433 180 1508 266 1561 C 352 1613 460 1640 590 1640 C 722 1640 830 1613 912 1559 C 994 1505 1052 1424 1086 1315 C 1120 1206 1137 1041 1137 819 C 1137 679 1131 558 1121 454 C 1110 350 1083 264 1040 195 C 996 125 937 72 861 36 C 785 0 696 -18 594 -18 Z M 866 940 C 862 1044 857 1126 851 1185 C 845 1244 831 1289 810 1321 C 788 1353 759 1377 723 1394 C 686 1410 642 1419 592 1419 C 548 1419 509 1412 473 1398 C 437 1384 407 1365 385 1340 C 362 1314 347 1286 340 1254 C 333 1222 330 1173 330 1109 C 330 1040 333 990 340 958 C 363 854 445 803 586 803 C 648 803 705 815 757 841 C 809 867 846 900 866 940 Z" unicode="9" />
<glyph horiz-adv-x="571" d="M 426 784 L 156 784 L 156 1104 L 426 1104 L 426 784 Z M 426 0 L 156 0 L 156 317 L 426 317 L 426 0 Z" unicode=":" />
<glyph horiz-adv-x="571" d="M 426 784 L 156 784 L 156 1104 L 426 1104 L 426 784 Z M 426 -4 L 260 -227 L 141 -147 L 229 6 L 207 0 L 156 0 L 156 322 L 426 322 L 426 -4 Z" unicode=";" />
<glyph horiz-adv-x="1096" d="M 1001 532 L 1001 281 L 76 635 L 76 868 L 1001 1223 L 1001 969 L 356 752 L 1001 532 Z" unicode="&#x3C;" />
<glyph horiz-adv-x="1040" d="M 989 846 L 55 846 L 55 1075 L 989 1075 L 989 846 Z M 989 467 L 55 467 L 55 694 L 989 694 L 989 467 Z" unicode="=" />
<glyph horiz-adv-x="1096" d="M 84 281 L 84 530 L 725 750 L 84 969 L 84 1221 L 1008 868 L 1008 633 L 84 281 Z" unicode="&#x3E;" />
<glyph horiz-adv-x="1094" d="M 612 444 L 612 436 L 379 436 L 379 460 C 379 531 387 594 404 649 C 420 704 443 753 471 796 C 499 838 530 875 564 906 C 598 936 630 965 660 992 C 705 1033 735 1068 751 1096 C 767 1124 775 1168 775 1229 C 775 1299 756 1349 718 1378 C 680 1406 619 1421 535 1421 C 465 1421 411 1408 373 1383 C 335 1358 313 1325 307 1284 C 305 1278 303 1258 301 1225 C 298 1191 297 1171 297 1163 L 43 1163 C 43 1263 53 1341 74 1397 C 94 1453 126 1498 168 1534 C 210 1569 265 1596 331 1614 C 397 1632 474 1642 563 1642 C 718 1642 836 1616 918 1565 C 999 1513 1045 1435 1057 1329 L 1059 1248 L 1055 1161 C 1051 1119 1041 1083 1026 1051 C 1010 1019 991 989 967 961 C 943 933 894 887 819 824 C 758 772 715 729 690 694 C 664 658 645 620 632 580 C 618 540 612 494 612 444 Z M 633 0 L 360 0 L 360 328 L 633 328 L 633 0 Z" unicode="?" />
<glyph horiz-adv-x="1794" d="M 1305 276 C 1242 276 1192 293 1155 328 C 1118 363 1100 409 1100 467 C 1071 410 1027 365 967 331 C 907 297 839 281 762 281 C 660 281 580 313 521 377 C 461 441 432 526 432 632 C 432 730 451 822 490 908 C 528 994 584 1061 656 1109 C 728 1157 811 1182 903 1182 C 958 1182 1007 1168 1051 1142 C 1095 1116 1125 1080 1141 1034 L 1169 1149 L 1364 1149 L 1285 773 C 1261 665 1249 596 1249 565 C 1249 479 1285 436 1358 436 C 1434 436 1494 475 1537 554 C 1579 633 1601 740 1601 875 C 1601 1066 1545 1215 1435 1321 C 1324 1427 1169 1481 971 1481 C 818 1481 683 1448 565 1382 C 447 1316 355 1223 290 1101 C 224 979 192 834 192 666 C 192 434 252 258 372 136 C 492 14 656 -47 864 -47 C 972 -47 1073 -31 1166 -1 C 1258 29 1337 73 1403 131 L 1462 45 C 1381 -20 1291 -68 1193 -99 C 1094 -129 983 -145 860 -145 C 696 -145 555 -112 435 -47 C 315 17 223 111 160 234 C 96 357 65 502 65 670 C 65 853 102 1013 178 1150 C 254 1287 361 1393 501 1469 C 641 1545 801 1583 981 1583 C 1133 1583 1267 1554 1381 1496 C 1495 1438 1583 1353 1645 1243 C 1707 1132 1739 1006 1739 865 C 1739 749 1721 647 1686 557 C 1650 467 1600 398 1534 349 C 1468 300 1391 276 1305 276 Z M 1099 867 C 1099 909 1082 945 1049 977 C 1015 1008 975 1024 928 1024 C 874 1024 825 1007 780 975 C 734 943 698 897 672 838 C 645 778 632 713 632 642 C 632 586 644 539 669 501 C 694 463 740 444 807 444 C 850 444 888 452 922 469 C 955 485 983 509 1005 539 C 1027 569 1044 606 1056 651 C 1067 696 1081 764 1098 854 L 1099 867 Z" unicode="@" />
<glyph horiz-adv-x="1337" d="M 393 393 L 274 0 L 0 0 L 512 1622 L 856 1622 L 1335 0 L 1057 0 L 944 393 L 393 393 Z M 874 627 L 709 1225 L 678 1370 L 647 1225 L 467 627 L 874 627 Z" unicode="A" />
<glyph horiz-adv-x="1391" d="M 887 0 L 135 0 L 135 1622 L 831 1622 C 933 1622 1015 1605 1078 1571 C 1141 1537 1186 1491 1214 1431 C 1241 1371 1255 1299 1255 1217 C 1255 1147 1246 1085 1230 1031 C 1214 977 1187 933 1151 901 C 1114 869 1075 848 1034 840 C 1088 832 1139 810 1188 773 C 1236 736 1271 688 1292 630 C 1312 571 1323 506 1323 436 C 1323 348 1307 271 1275 203 C 1243 135 1193 85 1127 51 C 1061 17 981 0 887 0 Z M 977 1165 C 977 1209 969 1249 953 1286 C 937 1323 915 1350 887 1366 C 859 1382 820 1391 770 1391 L 399 1391 L 399 926 L 793 926 C 915 926 977 1005 977 1165 Z M 1038 461 C 1038 513 1029 558 1013 596 C 996 634 971 660 937 676 C 903 692 864 700 819 700 L 399 700 L 399 233 L 811 233 C 890 233 948 249 984 283 C 1020 317 1038 376 1038 461 Z" unicode="B" />
<glyph horiz-adv-x="1372" d="M 1319 580 C 1315 466 1289 360 1239 263 C 1189 166 1122 95 1036 49 C 950 3 842 -20 713 -20 C 487 -20 323 46 221 178 C 119 312 68 525 68 817 C 68 1099 119 1307 222 1440 C 324 1573 488 1640 713 1640 C 847 1640 960 1616 1051 1568 C 1141 1520 1208 1448 1250 1350 C 1292 1252 1314 1146 1317 1032 L 1044 1032 C 1040 1110 1026 1177 1001 1233 C 976 1289 939 1329 891 1355 C 842 1380 781 1393 707 1393 C 637 1393 580 1381 534 1358 C 488 1334 452 1301 427 1259 C 401 1217 382 1157 368 1080 C 354 1002 348 914 348 815 C 348 611 374 461 426 363 C 478 265 575 217 715 217 C 821 217 901 247 955 309 C 1008 370 1039 460 1047 580 L 1319 580 Z" unicode="C" />
<glyph horiz-adv-x="1364" d="M 774 0 L 135 0 L 135 1622 L 752 1622 C 850 1622 933 1610 999 1587 C 1065 1563 1120 1526 1165 1475 C 1210 1423 1242 1348 1261 1248 C 1280 1148 1290 1011 1290 838 C 1290 656 1282 512 1266 404 C 1250 296 1218 214 1171 157 C 1123 99 1068 59 1005 35 C 942 11 865 0 774 0 Z M 1028 838 C 1028 945 1022 1039 1010 1120 C 998 1200 982 1254 963 1280 C 935 1316 904 1342 868 1357 C 832 1372 785 1380 725 1380 L 403 1380 L 403 238 L 727 238 C 787 238 836 245 874 260 C 912 275 943 300 969 336 C 1008 392 1028 559 1028 838 Z" unicode="D" />
<glyph horiz-adv-x="1214" d="M 1141 0 L 135 0 L 135 1622 L 1133 1622 L 1133 1376 L 401 1376 L 401 938 L 1100 938 L 1100 690 L 401 690 L 401 246 L 1141 246 L 1141 0 Z" unicode="E" />
<glyph horiz-adv-x="1171" d="M 1124 1376 L 406 1376 L 406 940 L 1083 940 L 1083 690 L 406 690 L 406 0 L 135 0 L 135 1622 L 1124 1622 L 1124 1376 Z" unicode="F" />
<glyph horiz-adv-x="1354" d="M 1280 0 L 1067 0 L 1055 139 C 1020 87 968 48 900 21 C 832 -6 751 -20 659 -20 C 460 -20 312 43 214 170 C 116 296 68 509 68 809 C 68 1013 88 1172 130 1287 C 171 1401 240 1489 336 1550 C 432 1611 551 1642 692 1642 C 943 1642 1112 1557 1200 1389 C 1221 1345 1238 1294 1251 1234 C 1263 1174 1270 1122 1270 1077 L 1008 1077 C 1008 1121 995 1173 971 1233 C 947 1292 912 1334 868 1360 C 823 1386 766 1399 698 1399 C 563 1399 471 1354 421 1264 C 371 1174 346 1021 346 805 C 346 635 357 511 381 433 C 405 355 443 298 495 263 C 547 228 621 211 717 211 C 797 211 865 230 921 268 C 976 306 1011 358 1026 424 L 1028 472 L 1028 678 L 633 678 L 633 909 L 1278 909 L 1278 418 L 1280 0 Z" unicode="G" />
<glyph horiz-adv-x="1401" d="M 1264 0 L 995 0 L 995 686 L 406 686 L 406 0 L 135 0 L 135 1622 L 406 1622 L 406 940 L 995 940 L 995 1622 L 1264 1622 L 1264 0 Z" unicode="H" />
<glyph horiz-adv-x="547" d="M 412 0 L 135 0 L 135 1622 L 412 1622 L 412 0 Z" unicode="I" />
<glyph horiz-adv-x="887" d="M 768 408 C 768 273 729 170 653 98 C 577 26 465 -10 319 -10 C 184 -10 86 -2 25 12 L 25 246 C 97 234 175 229 260 229 C 337 229 396 249 437 290 C 477 331 498 389 498 465 L 498 1622 L 768 1622 L 768 408 Z" unicode="J" />
<glyph horiz-adv-x="1305" d="M 1307 0 L 987 0 L 524 719 L 406 580 L 406 0 L 135 0 L 135 1622 L 406 1622 L 406 932 L 991 1622 L 1294 1622 L 711 922 L 1307 0 Z" unicode="K" />
<glyph horiz-adv-x="1120" d="M 1094 0 L 135 0 L 135 1622 L 408 1622 L 408 246 L 1094 246 L 1094 0 Z" unicode="L" />
<glyph horiz-adv-x="1712" d="M 1579 0 L 1325 0 L 1325 1116 L 985 0 L 721 0 L 387 1112 L 387 0 L 135 0 L 135 1622 L 506 1622 L 864 416 L 1229 1622 L 1579 1622 L 1579 0 Z" unicode="M" />
<glyph horiz-adv-x="1378" d="M 1249 0 L 961 0 L 391 1135 L 391 0 L 135 0 L 135 1622 L 440 1622 L 993 516 L 993 1622 L 1249 1622 L 1249 0 Z" unicode="N" />
<glyph horiz-adv-x="1407" d="M 702 1640 C 853 1640 976 1611 1070 1555 C 1164 1498 1233 1412 1275 1298 C 1317 1183 1339 1023 1339 819 C 1339 523 1289 310 1190 178 C 1091 46 928 -20 702 -20 C 554 -20 432 8 338 65 C 243 121 174 209 132 327 C 89 445 68 609 68 817 C 68 944 77 1056 96 1154 C 115 1252 142 1328 176 1382 C 280 1554 455 1640 702 1640 Z M 707 217 C 762 217 811 225 853 243 C 895 260 933 288 967 326 C 1000 364 1025 428 1043 517 C 1060 605 1069 704 1069 813 C 1069 957 1057 1071 1035 1154 C 1013 1237 976 1299 924 1341 C 872 1382 799 1403 705 1403 C 607 1403 533 1381 483 1337 C 433 1293 397 1228 376 1142 C 354 1055 344 944 344 809 C 344 608 370 459 423 362 C 476 265 571 217 707 217 Z" unicode="O" />
<glyph horiz-adv-x="1319" d="M 1257 1106 C 1257 970 1243 867 1215 799 C 1187 731 1140 679 1075 644 C 1009 608 925 590 821 588 L 739 587 L 599 587 L 408 588 L 408 0 L 135 0 L 135 1622 L 823 1622 C 973 1622 1082 1583 1152 1507 C 1222 1431 1257 1297 1257 1106 Z M 983 1102 C 983 1184 977 1242 966 1276 C 954 1310 932 1335 899 1352 C 866 1369 822 1378 768 1378 L 406 1378 L 406 831 L 762 831 C 803 831 837 835 865 843 C 892 851 915 865 935 884 C 954 903 967 926 973 954 C 979 982 983 1031 983 1102 Z" unicode="P" />
<glyph horiz-adv-x="1407" d="M 975 43 C 993 27 1029 3 1081 -28 C 1133 -60 1167 -76 1182 -78 L 1030 -274 C 990 -264 924 -228 834 -166 C 744 -104 682 -52 649 -12 C 549 -12 460 6 384 43 C 308 79 247 132 201 200 C 155 268 121 352 100 453 C 78 554 68 675 68 817 C 68 942 77 1055 97 1155 C 116 1255 143 1329 178 1378 C 273 1554 448 1642 702 1642 C 859 1642 985 1611 1080 1549 C 1175 1487 1242 1394 1281 1271 C 1319 1147 1339 997 1339 819 C 1339 721 1331 628 1317 539 C 1303 450 1283 374 1258 311 C 1232 247 1192 190 1136 139 C 1080 88 1027 56 975 43 Z M 707 211 C 780 211 840 223 887 249 C 933 274 968 306 991 346 C 1013 386 1032 447 1047 529 C 1061 611 1069 705 1069 811 C 1069 885 1065 954 1058 1017 C 1050 1079 1039 1135 1025 1184 C 1011 1233 988 1274 958 1308 C 927 1342 891 1366 850 1382 C 808 1397 760 1405 705 1405 C 649 1405 601 1396 559 1380 C 517 1363 477 1332 438 1286 C 408 1250 385 1188 369 1102 C 352 1015 344 917 344 809 C 344 708 351 617 365 537 C 379 457 399 395 423 352 C 447 308 483 274 530 249 C 576 223 635 211 707 211 Z" unicode="Q" />
<glyph horiz-adv-x="1364" d="M 1239 1153 C 1239 1017 1218 916 1176 852 C 1134 787 1080 748 1014 735 L 1333 0 L 1036 0 L 754 676 L 401 676 L 401 0 L 135 0 L 135 1622 L 842 1622 C 906 1622 961 1614 1008 1598 C 1054 1582 1095 1556 1129 1521 C 1163 1486 1190 1441 1210 1387 C 1229 1333 1239 1255 1239 1153 Z M 971 1128 C 971 1209 965 1264 953 1293 C 941 1321 922 1343 894 1358 C 866 1372 829 1380 784 1380 L 403 1380 L 403 907 L 805 907 C 847 908 882 917 908 933 C 934 949 951 976 959 1014 C 967 1052 971 1090 971 1128 Z" unicode="R" />
<glyph horiz-adv-x="1311" d="M 1241 430 C 1241 287 1191 176 1093 98 C 994 19 855 -20 676 -20 C 571 -20 481 -10 405 9 C 329 28 267 56 218 94 C 168 132 131 180 107 239 C 82 298 70 377 70 475 L 342 475 C 342 437 346 401 356 365 C 365 329 382 300 408 278 C 433 256 467 239 511 228 C 555 216 608 211 670 211 C 866 211 965 276 965 408 C 965 477 945 531 905 570 C 865 608 791 647 682 686 L 477 760 C 209 847 76 1001 76 1223 C 76 1356 124 1459 222 1531 C 319 1603 458 1640 639 1640 C 947 1640 1132 1531 1194 1313 C 1210 1257 1219 1203 1219 1153 L 944 1153 C 944 1201 933 1246 912 1287 C 891 1327 858 1357 814 1376 C 769 1395 709 1405 633 1405 C 537 1405 466 1390 420 1362 C 374 1333 352 1289 352 1231 C 352 1173 374 1125 418 1087 C 462 1048 539 1011 649 975 L 848 903 C 987 854 1087 792 1149 717 C 1210 641 1241 546 1241 430 Z" unicode="S" />
<glyph horiz-adv-x="1165" d="M 1157 1378 L 719 1378 L 719 0 L 444 0 L 444 1378 L 8 1378 L 8 1622 L 1157 1622 L 1157 1378 Z" unicode="T" />
<glyph horiz-adv-x="1376" d="M 1257 424 C 1257 284 1206 175 1104 97 C 1002 19 864 -20 688 -20 C 506 -20 365 19 266 97 C 166 175 117 288 117 436 L 117 1622 L 385 1622 L 385 463 C 385 384 411 323 464 281 C 516 238 592 217 692 217 C 783 217 855 239 908 283 C 960 327 987 386 987 461 L 987 1622 L 1257 1622 L 1257 424 Z" unicode="U" />
<glyph horiz-adv-x="1339" d="M 1337 1622 L 829 0 L 506 0 L 0 1622 L 285 1622 L 674 328 L 1061 1622 L 1337 1622 Z" unicode="V" />
<glyph horiz-adv-x="1907" d="M 1907 1622 L 1522 0 L 1214 0 C 1043 810 958 1227 958 1253 C 958 1245 951 1207 937 1139 C 923 1071 905 983 883 875 C 860 767 825 603 778 385 C 730 166 702 38 694 0 L 389 0 L 0 1622 L 285 1622 C 469 816 561 399 561 371 C 561 377 567 416 581 486 C 594 556 607 626 621 695 C 635 763 649 832 663 901 C 677 970 696 1062 720 1178 C 744 1293 775 1441 813 1622 L 1112 1622 C 1150 1436 1186 1266 1218 1112 C 1250 957 1279 820 1303 700 C 1327 580 1343 498 1352 452 C 1361 406 1366 379 1366 371 C 1366 399 1458 816 1642 1622 L 1907 1622 Z" unicode="W" />
<glyph horiz-adv-x="1276" d="M 637 588 L 293 0 L 4 0 L 500 825 L 37 1622 L 334 1622 L 651 1075 L 975 1622 L 1260 1622 L 786 834 L 1272 0 L 977 0 L 637 588 Z" unicode="X" />
<glyph horiz-adv-x="1343" d="M 1343 1622 L 799 561 L 799 0 L 526 0 L 526 559 L 4 1622 L 289 1622 L 666 829 L 1067 1622 L 1343 1622 Z" unicode="Y" />
<glyph horiz-adv-x="1190" d="M 1155 0 L 45 0 L 45 215 L 815 1376 L 86 1376 L 86 1622 L 1135 1622 L 1135 1413 L 358 244 L 1155 244 L 1155 0 Z" unicode="Z" />
<glyph horiz-adv-x="715" d="M 651 -350 L 123 -350 L 123 1622 L 651 1622 L 651 1427 L 362 1427 L 362 -158 L 651 -158 L 651 -350 Z" unicode="[" />
<glyph horiz-adv-x="551" d="M -33 1632 L 117 1632 L 616 -328 L 467 -328 L -33 1632 Z" unicode="\" />
<glyph horiz-adv-x="725" d="M 74 -350 L 74 -158 L 362 -158 L 362 1430 L 74 1430 L 74 1622 L 600 1622 L 600 -350 L 74 -350 Z" unicode="]" />
<glyph horiz-adv-x="1137" d="M 573 1440 L 207 1077 L 49 1227 L 457 1634 L 694 1634 L 1100 1227 L 940 1077 L 573 1440 Z" unicode="^" />
<glyph horiz-adv-x="846" d="M 844 -354 L 0 -354 L 0 -135 L 844 -135 L 844 -354 Z" unicode="_" />
<glyph horiz-adv-x="844" d="M 604 1212 L 369 1212 L 160 1507 L 428 1507 L 604 1212 Z" unicode="`" />
<glyph horiz-adv-x="1139" d="M 1057 0 L 827 0 C 821 0 816 9 812 27 C 807 45 805 67 805 93 L 805 113 C 765 70 715 39 655 19 C 595 0 524 -10 440 -10 C 363 -10 296 1 240 25 C 183 49 139 84 108 130 C 76 176 61 234 61 306 C 61 398 82 472 126 527 C 169 582 234 624 322 653 C 409 681 517 696 647 696 C 686 696 736 693 797 688 L 797 745 L 795 811 C 784 895 715 938 588 938 C 506 938 445 922 407 892 C 369 862 350 811 350 739 L 113 739 C 113 877 153 981 235 1049 C 317 1117 435 1151 590 1151 C 863 1151 1010 1055 1030 864 C 1036 810 1039 726 1039 613 L 1036 217 C 1036 174 1037 130 1041 85 C 1045 40 1050 12 1057 0 Z M 803 510 L 733 516 L 651 518 C 542 518 458 504 400 476 C 342 448 313 403 313 340 C 313 284 328 243 360 218 C 391 192 441 180 510 180 C 610 180 684 205 732 255 C 779 305 803 390 803 510 Z" unicode="a" />
<glyph horiz-adv-x="1204" d="M 700 1149 C 852 1149 964 1097 1038 993 C 1112 889 1149 752 1149 582 C 1149 460 1131 352 1095 260 C 1059 168 1006 100 938 57 C 869 13 789 -8 698 -8 C 616 -8 545 4 486 28 C 426 52 382 87 354 131 L 332 0 L 106 0 L 106 1632 L 356 1632 L 356 979 C 375 1027 416 1067 480 1100 C 543 1132 616 1149 700 1149 Z M 627 915 C 532 915 461 889 415 837 C 369 785 346 693 346 561 C 346 468 354 399 372 354 C 390 308 419 273 459 248 C 499 223 554 211 623 211 C 686 211 738 222 780 246 C 821 269 851 305 870 354 C 889 402 899 473 899 567 C 899 688 876 776 832 832 C 788 887 719 915 627 915 Z" unicode="b" />
<glyph horiz-adv-x="1128" d="M 1077 694 L 834 694 C 834 735 825 774 807 810 C 789 846 761 874 725 894 C 688 914 640 924 580 924 C 519 924 469 912 430 890 C 390 867 360 830 340 780 C 319 730 309 658 309 565 C 309 432 331 337 375 281 C 419 225 490 197 588 199 C 645 199 692 207 730 225 C 767 242 795 269 813 306 C 831 343 840 381 840 420 L 1075 420 C 1075 342 1056 268 1018 196 C 980 124 924 70 852 36 C 780 1 690 -16 582 -16 C 401 -16 268 32 184 129 C 99 226 57 372 57 567 C 57 690 76 796 115 886 C 154 975 212 1041 290 1085 C 368 1129 462 1151 573 1151 C 811 1151 965 1070 1036 909 C 1048 883 1057 849 1065 807 C 1073 765 1077 727 1077 694 Z" unicode="c" />
<glyph horiz-adv-x="1190" d="M 504 1139 C 584 1139 653 1127 711 1103 C 769 1079 812 1045 842 1001 L 842 1626 L 1092 1626 L 1092 137 C 1092 107 1094 61 1100 0 L 872 0 L 844 141 C 818 92 775 53 713 25 C 651 -3 581 -18 502 -18 C 353 -18 242 32 169 132 C 95 232 59 371 59 549 C 59 650 70 739 92 816 C 114 892 145 953 184 997 C 223 1041 271 1076 327 1101 C 383 1126 442 1139 504 1139 Z M 586 907 C 482 907 411 878 371 820 C 331 762 311 675 311 557 C 311 468 318 400 334 352 C 349 304 377 268 417 242 C 457 216 512 203 580 203 C 668 203 735 230 780 286 C 825 341 848 431 848 555 C 848 616 844 666 837 705 C 830 743 817 779 799 811 C 780 843 752 867 715 883 C 677 899 634 907 586 907 Z" unicode="d" />
<glyph horiz-adv-x="1126" d="M 1081 360 C 1071 288 1043 222 998 161 C 953 99 896 54 827 25 C 758 -3 676 -18 582 -18 C 405 -18 273 30 187 127 C 100 224 57 370 57 565 C 57 761 104 907 198 1005 C 292 1102 420 1151 580 1151 C 687 1151 778 1130 854 1090 C 930 1050 988 990 1029 910 C 1069 830 1090 718 1091 575 L 1087 469 L 303 469 C 305 418 314 373 332 335 C 350 297 369 269 391 251 C 412 233 439 220 471 210 C 503 200 540 195 582 195 C 630 195 673 201 709 213 C 745 225 775 244 799 272 C 823 300 837 329 840 360 L 1081 360 Z M 842 664 C 842 696 837 730 828 766 C 818 802 807 829 793 846 C 745 904 673 934 578 934 C 398 934 305 844 299 664 L 842 664 Z" unicode="e" />
<glyph horiz-adv-x="725" d="M 715 905 L 442 905 L 442 0 L 190 0 L 190 905 L 25 905 L 25 1126 L 190 1126 L 190 1346 C 190 1444 217 1519 271 1569 C 325 1619 402 1645 502 1645 C 561 1645 635 1641 723 1634 L 723 1419 L 588 1427 C 540 1427 503 1416 478 1396 C 452 1376 440 1346 440 1307 L 440 1122 L 715 1122 L 715 905 Z" unicode="f" />
<glyph horiz-adv-x="1114" d="M 537 1155 C 683 1155 795 1124 872 1063 C 890 1084 921 1102 964 1116 C 1006 1130 1051 1137 1099 1137 L 1135 1135 L 1135 952 L 1100 952 C 1017 952 972 944 965 930 C 975 916 985 894 994 862 C 1002 830 1007 798 1007 765 C 1007 685 997 623 979 580 C 960 537 932 500 894 469 C 856 437 809 413 754 396 C 699 379 636 371 565 371 C 508 371 459 375 417 385 C 375 394 343 404 322 416 C 311 412 300 405 290 395 C 279 385 274 371 274 354 C 274 336 281 323 295 315 C 309 307 334 302 370 299 C 406 296 482 294 600 293 C 729 291 831 280 905 260 C 979 240 1032 210 1066 169 C 1099 128 1116 72 1116 0 C 1116 -113 1069 -196 976 -250 C 883 -303 743 -330 555 -330 C 371 -330 237 -309 151 -267 C 65 -225 23 -160 23 -70 C 23 36 78 104 188 135 C 151 142 121 161 97 193 C 73 225 61 262 61 305 C 61 343 73 379 97 413 C 121 446 152 469 190 483 C 158 499 131 528 110 571 C 89 614 79 664 79 720 L 82 834 C 85 894 105 949 143 998 C 181 1047 233 1085 301 1113 C 369 1141 447 1155 537 1155 Z M 543 942 C 480 942 428 928 386 900 C 344 872 323 839 322 799 L 320 748 L 322 696 C 325 654 346 621 384 596 C 422 571 474 559 541 559 C 611 559 665 572 705 599 C 745 626 765 666 765 718 L 762 807 C 757 851 735 884 697 907 C 658 930 607 942 543 942 Z M 547 -143 C 656 -143 737 -132 791 -112 C 845 -91 872 -59 872 -16 C 872 17 859 40 833 54 C 807 68 757 78 684 84 C 611 90 532 93 446 93 C 394 93 364 94 354 96 C 278 76 240 38 240 -16 C 240 -58 264 -90 313 -111 C 362 -132 440 -143 547 -143 Z" unicode="g" />
<glyph horiz-adv-x="1143" d="M 1055 0 L 799 0 C 795 0 793 33 793 99 L 793 729 C 793 788 776 833 742 864 C 708 895 657 911 590 911 C 522 911 466 891 423 853 C 379 815 358 765 358 705 L 358 0 L 106 0 L 106 1632 L 354 1632 L 354 979 C 376 1031 417 1072 477 1103 C 536 1133 610 1149 700 1149 C 812 1149 898 1119 956 1060 C 1014 1001 1044 913 1044 795 L 1044 465 C 1044 364 1044 272 1045 190 C 1045 108 1046 56 1047 35 C 1047 13 1050 2 1055 0 Z" unicode="h" />
<glyph horiz-adv-x="479" d="M 373 1250 L 106 1250 L 106 1508 L 373 1508 L 373 1250 Z M 377 0 L 125 0 C 119 2 116 10 115 25 C 113 40 113 66 113 102 L 113 1126 L 367 1126 L 367 109 C 367 43 370 6 377 0 Z" unicode="i" />
<glyph horiz-adv-x="489" d="M 385 1250 L 121 1250 L 121 1508 L 385 1508 L 385 1250 Z M 381 -90 C 381 -186 354 -259 301 -311 C 247 -363 174 -389 82 -389 C 59 -389 27 -387 -13 -384 C -53 -381 -80 -378 -92 -375 L -92 -168 C -69 -170 -43 -172 -14 -172 C 37 -172 73 -161 95 -140 C 116 -118 127 -81 127 -29 L 127 1126 L 381 1126 L 381 -90 Z" unicode="j" />
<glyph horiz-adv-x="1079" d="M 1087 0 L 809 0 L 530 541 L 358 358 L 358 0 L 106 0 L 106 1632 L 358 1632 L 358 666 L 770 1126 L 1057 1126 L 707 731 L 1087 0 Z" unicode="k" />
<glyph horiz-adv-x="467" d="M 369 0 L 117 0 C 111 3 109 30 109 80 L 109 1518 C 109 1570 107 1608 104 1632 L 354 1632 C 359 1616 362 1584 362 1538 L 362 100 C 362 40 364 7 369 0 Z" unicode="l" />
<glyph horiz-adv-x="1706" d="M 1374 0 C 1368 0 1366 192 1366 577 L 1366 737 C 1366 854 1304 913 1182 913 C 1124 913 1077 896 1039 862 C 1001 828 983 783 983 727 L 983 0 L 743 0 L 743 750 C 743 800 727 839 696 869 C 665 898 621 913 563 913 C 504 913 455 894 416 857 C 377 819 358 773 358 719 L 358 0 L 106 0 L 106 1126 L 352 1126 L 352 969 C 372 1023 411 1067 470 1099 C 529 1131 596 1147 672 1147 C 742 1147 802 1131 852 1101 C 902 1070 936 1025 956 967 C 976 1025 1013 1070 1069 1101 C 1124 1131 1192 1147 1272 1147 C 1488 1147 1597 1040 1597 827 L 1597 643 C 1597 499 1598 356 1600 215 C 1602 74 1604 2 1606 0 L 1374 0 Z" unicode="m" />
<glyph horiz-adv-x="1143" d="M 1051 0 L 805 0 C 801 0 798 9 797 27 C 795 45 794 94 794 174 C 793 253 793 337 793 425 L 793 721 C 793 847 727 911 596 911 C 525 911 468 892 424 854 C 380 816 358 764 358 698 L 358 0 L 106 0 L 106 1126 L 350 1126 L 350 975 C 372 1029 414 1072 474 1103 C 534 1133 607 1149 692 1149 C 809 1149 897 1120 956 1062 C 1014 1004 1044 914 1044 793 L 1044 463 C 1044 154 1046 0 1051 0 Z" unicode="n" />
<glyph horiz-adv-x="1174" d="M 1116 567 C 1116 381 1071 237 982 136 C 893 34 762 -16 588 -16 C 468 -16 368 7 288 54 C 208 101 150 169 113 258 C 75 346 57 449 57 567 C 57 689 77 793 117 881 C 157 968 217 1035 297 1081 C 377 1127 475 1151 590 1151 C 760 1151 891 1102 981 1004 C 1071 906 1116 760 1116 567 Z M 872 565 C 872 697 850 790 807 844 C 764 897 692 924 590 924 C 522 924 466 910 424 882 C 382 854 352 811 334 755 C 316 699 307 635 307 565 C 307 436 328 344 372 289 C 416 234 488 207 590 207 C 635 207 675 213 710 226 C 745 238 774 258 797 284 C 819 310 837 348 851 399 C 865 450 872 505 872 565 Z" unicode="o" />
<glyph horiz-adv-x="1196" d="M 1143 582 C 1143 449 1126 339 1092 252 C 1058 164 1006 99 936 56 C 866 13 786 -8 696 -8 C 619 -8 551 2 491 24 C 431 46 387 79 358 125 L 358 -348 L 106 -348 L 106 1126 L 350 1126 L 356 983 C 378 1032 420 1072 483 1103 C 546 1133 617 1149 696 1149 C 848 1149 960 1099 1033 1001 C 1106 902 1143 762 1143 582 Z M 889 567 C 889 685 867 773 825 832 C 783 890 713 920 616 920 C 558 920 510 907 471 882 C 431 856 402 819 382 769 C 362 719 352 651 352 567 C 352 477 360 408 378 360 C 395 312 422 276 460 250 C 498 224 550 211 618 211 C 716 211 786 238 827 293 C 868 348 889 439 889 567 Z" unicode="p" />
<glyph horiz-adv-x="1190" d="M 1094 -348 L 854 -348 L 844 -336 L 844 141 C 822 93 781 55 721 26 C 661 -3 590 -18 508 -18 C 364 -18 253 30 175 127 C 97 223 59 365 59 551 C 59 642 66 719 81 781 C 96 843 123 903 162 962 C 200 1020 251 1065 314 1095 C 377 1125 446 1141 520 1141 C 604 1141 674 1128 728 1104 C 782 1079 823 1041 852 989 L 852 1126 L 1085 1126 L 1085 -195 C 1085 -281 1088 -332 1094 -348 Z M 848 561 C 848 685 828 774 789 829 C 749 883 682 911 586 911 C 524 911 473 899 435 876 C 396 853 366 813 344 757 C 322 700 311 634 311 559 C 311 488 319 424 335 367 C 351 310 378 268 418 241 C 457 214 512 201 582 201 C 640 201 690 213 731 239 C 772 264 802 301 820 349 C 838 397 848 468 848 561 Z" unicode="q" />
<glyph horiz-adv-x="842" d="M 827 1133 L 827 877 C 765 894 694 903 616 903 C 536 903 474 876 428 824 C 382 771 360 700 360 612 L 360 0 L 106 0 L 106 1126 L 354 1126 L 354 954 C 367 1008 404 1055 464 1093 C 524 1131 590 1151 664 1151 C 729 1151 783 1145 827 1133 Z" unicode="r" />
<glyph horiz-adv-x="1081" d="M 1024 317 C 1024 93 869 -18 561 -18 C 439 -18 341 -6 268 16 C 195 39 142 75 110 123 C 77 171 61 246 61 346 L 307 346 C 307 298 310 267 318 251 C 325 235 338 223 356 213 C 374 203 401 196 436 191 C 470 186 512 184 561 184 C 636 184 691 193 727 213 C 762 232 780 264 780 309 C 780 347 762 377 726 398 C 690 418 572 454 373 504 C 267 531 191 571 145 624 C 99 677 76 750 76 842 C 76 938 115 1014 193 1069 C 271 1123 380 1151 520 1151 C 779 1151 930 1077 973 930 C 982 895 987 846 987 782 L 748 782 L 748 799 C 748 836 740 864 725 884 C 710 903 687 917 656 925 C 624 933 581 938 526 938 C 451 938 398 929 368 911 C 337 893 322 867 322 831 C 322 798 334 773 358 755 C 382 737 428 719 498 702 L 705 649 C 820 619 902 578 951 527 C 999 476 1024 406 1024 317 Z" unicode="s" />
<glyph horiz-adv-x="717" d="M 684 905 L 412 905 L 412 338 C 412 289 421 255 441 237 C 460 218 496 209 549 209 C 595 209 637 213 674 221 L 674 8 C 623 -5 549 -12 453 -12 C 357 -12 283 11 233 59 C 183 106 158 174 158 264 L 158 905 L 4 905 L 4 1126 L 154 1126 C 158 1138 161 1214 164 1352 L 408 1356 L 408 1126 L 684 1126 L 684 905 Z" unicode="t" />
<glyph horiz-adv-x="1141" d="M 801 0 L 795 135 C 765 86 721 49 663 23 C 605 -3 535 -16 453 -16 C 341 -16 254 10 192 64 C 130 117 100 195 100 297 C 100 844 97 1120 92 1126 L 346 1126 C 350 1126 352 873 352 369 C 352 310 368 265 402 235 C 436 205 485 190 551 190 C 625 190 683 207 725 243 C 767 278 788 327 788 389 L 788 1126 L 1036 1126 L 1036 168 C 1036 74 1038 18 1042 0 L 801 0 Z" unicode="u" />
<glyph horiz-adv-x="1124" d="M 1112 1126 L 717 0 L 410 0 L 12 1126 L 279 1126 L 565 246 L 858 1126 L 1112 1126 Z" unicode="v" />
<glyph horiz-adv-x="1724" d="M 1720 1126 L 1376 0 L 1085 0 L 987 363 L 879 774 C 876 785 871 838 864 934 L 852 776 C 843 724 775 465 647 0 L 354 0 L 12 1126 L 270 1126 L 514 254 L 735 1126 L 1012 1126 L 1239 254 L 1477 1126 L 1720 1126 Z" unicode="w" />
<glyph horiz-adv-x="1069" d="M 547 770 L 782 1126 L 1055 1126 L 684 580 L 1065 0 L 780 0 L 528 389 L 279 0 L 6 0 L 393 575 L 29 1126 L 313 1126 L 547 770 Z" unicode="x" />
<glyph horiz-adv-x="1124" d="M 1114 1126 L 561 -348 L 297 -348 L 432 12 L 12 1126 L 279 1126 C 457 632 554 359 569 307 C 573 322 582 352 598 397 C 613 441 699 684 856 1126 L 1114 1126 Z" unicode="y" />
<glyph horiz-adv-x="985" d="M 948 0 L 49 0 L 49 188 L 618 905 L 66 905 L 66 1126 L 926 1126 L 926 920 L 369 219 L 948 219 L 948 0 Z" unicode="z" />
<glyph horiz-adv-x="829" d="M 764 -338 L 569 -338 C 473 -338 399 -313 347 -265 C 294 -216 268 -149 268 -63 C 268 -23 274 54 287 170 C 299 284 305 361 305 399 C 305 551 228 627 76 627 L 76 825 C 154 826 211 844 249 878 C 286 912 305 965 305 1038 C 305 1071 299 1122 287 1192 C 274 1260 268 1316 268 1360 C 268 1436 295 1499 349 1548 C 403 1597 474 1622 563 1622 L 764 1622 L 764 1423 L 705 1425 C 635 1425 583 1412 549 1388 C 515 1363 498 1322 498 1266 C 498 1242 503 1195 514 1125 C 523 1059 528 1012 528 983 C 528 909 510 851 476 808 C 441 765 392 740 328 733 C 392 727 442 701 476 654 C 510 607 528 545 528 467 C 528 417 523 347 515 255 C 503 139 498 61 498 21 C 498 -34 514 -74 548 -99 C 581 -124 633 -137 704 -137 L 764 -135 L 764 -338 Z" unicode="{" />
<glyph horiz-adv-x="592" d="M 397 -410 L 199 -410 L 199 1638 L 397 1638 L 397 -410 Z" unicode="|" />
<glyph horiz-adv-x="829" d="M 66 -338 L 66 -135 L 125 -137 C 195 -137 247 -124 281 -99 C 315 -74 332 -32 332 26 C 332 64 326 141 314 255 C 304 349 299 419 299 467 C 299 546 316 609 351 655 C 385 701 436 727 502 733 C 436 740 386 766 351 810 C 316 854 299 911 299 983 C 299 1012 304 1059 314 1125 C 324 1200 330 1247 330 1266 C 330 1322 313 1363 281 1388 C 248 1412 196 1425 125 1425 L 66 1423 L 66 1622 L 264 1622 C 352 1622 424 1597 479 1549 C 533 1501 561 1438 561 1360 C 561 1316 555 1260 543 1192 C 530 1122 524 1071 524 1038 C 524 964 543 911 581 877 C 619 843 676 826 754 825 L 754 627 C 678 627 621 608 583 572 C 545 536 526 478 526 399 C 526 348 531 272 543 170 C 553 67 559 -10 559 -63 C 559 -149 533 -217 481 -265 C 429 -313 355 -338 260 -338 L 66 -338 Z" unicode="}" />
<glyph horiz-adv-x="1135" d="M 336 815 C 296 815 265 795 243 755 C 220 715 208 659 207 588 L 14 606 C 18 750 48 858 103 928 C 158 998 233 1034 328 1034 C 384 1034 434 1021 476 997 C 518 973 560 937 600 889 L 646 831 C 673 795 699 768 725 751 C 750 733 776 725 803 725 C 843 725 875 743 900 780 C 924 816 938 868 940 934 L 1116 911 C 1110 782 1082 684 1030 617 C 978 549 906 516 813 516 C 749 516 695 529 650 556 C 604 582 554 631 500 703 C 469 743 441 771 415 789 C 389 806 362 815 336 815 Z" unicode="~" />
<glyph horiz-adv-x="246" d="" unicode=" " />
<glyph horiz-adv-x="545" d="M 137 1626 L 408 1626 L 408 1300 L 137 1300 L 137 1626 Z M 123 -10 L 156 1188 L 391 1188 L 422 -10 L 123 -10 Z" unicode="¡" />
<glyph horiz-adv-x="1128" d="M 668 418 C 729 430 774 455 804 492 C 833 528 850 585 856 662 L 1096 662 C 1088 574 1075 508 1057 464 C 1039 420 1011 381 974 346 C 936 311 892 284 842 264 C 791 244 733 232 668 227 L 668 55 L 508 55 L 508 229 C 328 247 203 318 135 440 C 87 530 63 652 63 807 C 63 952 89 1074 143 1174 C 211 1294 332 1362 508 1378 L 508 1505 L 668 1505 L 668 1380 C 723 1376 773 1368 817 1354 C 861 1340 899 1322 932 1299 C 965 1276 994 1248 1018 1214 C 1042 1180 1060 1144 1071 1107 C 1082 1069 1090 1011 1096 932 L 856 932 L 853 991 C 850 1043 833 1086 803 1120 C 773 1154 728 1178 668 1190 L 668 418 Z M 508 1184 C 440 1164 396 1130 375 1081 C 354 1021 341 971 335 931 C 329 891 326 849 326 805 C 326 689 339 601 366 542 C 392 482 440 442 508 422 L 508 1184 Z" unicode="¢" />
<glyph horiz-adv-x="1223" d="M 229 819 C 188 900 159 972 143 1034 C 127 1096 119 1165 119 1243 L 121 1315 C 126 1380 149 1437 189 1487 C 229 1536 285 1574 356 1600 C 427 1626 512 1640 612 1640 C 764 1640 884 1608 972 1545 C 1059 1481 1107 1390 1116 1272 L 1118 1156 L 1118 1042 L 850 1042 L 851 1148 L 851 1208 C 851 1260 841 1300 823 1328 C 805 1356 779 1376 746 1390 C 713 1404 673 1411 625 1411 C 559 1411 507 1396 468 1366 C 429 1336 409 1298 408 1251 L 407 1202 L 407 1170 C 407 1137 408 1107 412 1079 C 416 1051 422 1020 432 987 C 442 953 464 897 498 819 L 993 819 L 993 608 L 555 608 C 567 564 574 528 574 501 C 574 353 515 257 397 215 L 1135 215 L 1135 0 L 88 0 L 88 221 C 237 277 312 372 312 506 C 312 530 306 564 295 608 L 100 608 L 100 819 L 229 819 Z" unicode="£" />
<glyph horiz-adv-x="1152" d="M 1056 392 L 940 284 L 740 500 C 692 468 636 452 572 452 C 510 452 456 468 408 500 L 208 284 L 92 392 L 300 608 C 281 634 268 660 262 686 C 255 711 252 742 252 780 C 252 848 268 906 300 952 L 92 1168 L 208 1276 L 408 1060 C 456 1092 510 1108 572 1108 C 636 1108 692 1092 740 1060 L 944 1276 L 1060 1156 L 852 952 C 870 925 883 898 890 872 C 896 845 900 814 900 780 C 900 716 882 658 848 608 L 1056 392 Z M 748 780 C 748 833 731 876 698 910 C 664 943 622 960 572 960 C 521 960 480 943 448 910 C 416 876 400 833 400 780 C 400 726 416 684 450 652 C 483 620 524 604 572 604 C 625 604 668 620 700 652 C 732 684 748 726 748 780 Z" unicode="¤" />
<glyph horiz-adv-x="1382" d="M 549 371 L 86 371 L 86 524 L 549 524 L 549 590 L 4 1622 L 295 1622 C 379 1465 464 1300 552 1127 C 640 953 684 858 684 842 C 684 861 725 949 809 1107 C 892 1264 986 1436 1090 1622 L 1378 1622 L 813 596 L 813 524 L 1280 524 L 1280 371 L 813 371 L 813 311 L 1280 311 L 1280 156 L 815 156 L 815 0 L 547 0 L 547 156 L 86 156 L 86 311 L 549 311 L 549 371 Z" unicode="¥" />
<glyph horiz-adv-x="592" d="M 395 729 L 197 729 L 197 1638 L 395 1638 L 395 729 Z M 395 -410 L 197 -410 L 197 469 L 395 469 L 395 -410 Z" unicode="¦" />
<glyph horiz-adv-x="991" d="M 207 1116 C 171 1139 146 1170 132 1208 C 117 1246 110 1295 110 1353 L 110 1379 C 110 1459 142 1522 207 1566 C 272 1610 365 1632 487 1632 C 613 1632 704 1612 761 1573 C 818 1533 852 1470 862 1382 L 866 1276 L 676 1276 L 676 1316 L 674 1354 C 670 1391 656 1418 632 1436 C 607 1453 562 1462 498 1462 C 443 1462 400 1455 370 1443 C 340 1431 322 1408 317 1374 L 316 1365 L 316 1351 L 317 1325 C 320 1292 332 1267 352 1250 C 372 1233 421 1212 500 1188 L 713 1114 C 753 1098 787 1079 815 1056 C 842 1032 863 1004 877 970 C 891 936 898 905 900 875 C 900 809 887 755 862 713 C 837 670 797 639 741 621 C 808 595 859 558 895 510 C 931 462 949 407 949 345 L 949 284 C 949 183 912 107 840 55 C 767 3 660 -23 518 -23 C 374 -23 265 0 192 44 C 119 89 75 161 61 260 L 57 367 L 301 367 L 301 327 L 303 287 C 308 238 326 204 358 186 C 390 167 445 158 524 158 C 588 158 637 167 669 185 C 701 203 718 235 721 279 L 721 340 C 717 381 701 414 674 440 C 646 466 598 490 530 514 L 238 623 C 122 666 65 752 65 880 C 65 944 77 994 102 1031 C 126 1067 161 1096 207 1116 Z M 631 690 C 653 692 673 705 689 728 C 705 750 714 776 714 806 C 714 828 709 848 701 868 C 692 887 681 901 668 909 C 593 952 487 995 350 1038 C 326 1034 307 1020 291 998 C 275 975 268 948 268 918 C 268 869 283 835 313 815 C 387 772 493 730 631 690 Z" unicode="§" />
<glyph horiz-adv-x="844" d="M 719 1212 L 498 1212 L 498 1468 L 719 1468 L 719 1212 Z M 348 1212 L 127 1212 L 127 1468 L 348 1468 L 348 1212 Z" unicode="¨" />
<glyph horiz-adv-x="1341" d="M 676 414 C 492 414 345 459 235 550 C 125 640 68 763 63 918 L 61 1021 L 61 1087 C 61 1262 116 1398 226 1495 C 336 1591 485 1640 674 1640 C 852 1640 995 1596 1103 1508 C 1211 1420 1270 1300 1282 1147 L 1285 1038 L 1282 918 C 1275 763 1218 640 1111 550 C 1003 459 858 414 676 414 Z M 1195 988 L 1195 1097 C 1195 1243 1149 1355 1057 1433 C 965 1511 838 1550 674 1550 C 513 1550 387 1514 296 1443 C 204 1372 156 1272 150 1143 L 149 1091 L 149 1032 L 150 942 C 154 800 201 691 293 615 C 385 538 512 500 674 500 C 787 500 882 518 960 554 C 1038 590 1096 644 1136 714 C 1175 784 1195 876 1195 988 Z M 1040 940 C 1039 934 1038 926 1038 916 C 1037 906 1036 895 1035 885 C 1034 875 1033 865 1032 855 C 1030 845 1029 837 1028 831 C 1014 771 975 724 912 689 C 848 654 769 637 674 637 C 587 637 516 650 461 676 C 406 702 366 739 340 788 C 314 837 301 913 301 1016 C 301 1124 314 1202 342 1250 C 369 1298 412 1335 471 1361 C 529 1387 600 1401 682 1401 C 756 1401 820 1389 876 1366 C 931 1343 972 1310 999 1268 C 1026 1226 1040 1168 1040 1096 L 846 1096 L 844 1124 C 841 1194 787 1229 682 1229 C 640 1229 606 1222 580 1208 C 554 1194 534 1173 521 1147 C 508 1120 502 1076 502 1016 C 502 930 515 873 542 846 C 568 818 615 805 682 805 C 729 805 765 810 791 821 C 816 832 832 853 840 883 L 846 911 L 848 940 L 1040 940 Z" unicode="©" />
<glyph horiz-adv-x="1010" d="M 942 543 L 707 543 C 698 605 694 645 694 664 L 694 672 C 634 580 525 535 367 535 C 262 535 181 557 123 602 C 65 646 36 711 36 796 L 36 827 C 36 901 48 960 74 1004 C 100 1048 140 1084 194 1114 C 248 1143 313 1163 387 1175 C 461 1186 561 1192 688 1192 L 688 1257 C 688 1322 681 1365 669 1386 C 657 1406 637 1421 609 1431 C 581 1441 545 1446 500 1446 C 434 1446 386 1429 356 1396 C 326 1362 311 1318 311 1264 L 82 1264 C 82 1394 118 1491 192 1556 C 265 1620 370 1653 508 1653 C 638 1653 737 1631 805 1587 C 873 1543 911 1476 920 1384 C 923 1339 925 1288 925 1230 L 925 1139 L 922 762 C 922 642 928 569 942 543 Z M 965 291 L 49 291 L 49 475 L 965 475 L 965 291 Z M 688 1026 C 645 1030 605 1033 567 1033 C 504 1033 452 1028 411 1018 C 369 1008 337 993 313 972 C 289 950 278 914 278 863 C 278 821 285 789 300 768 C 315 746 339 731 372 723 C 405 715 436 711 465 713 C 529 713 581 730 622 764 C 662 798 684 852 688 928 L 688 1026 Z" unicode="ª" />
<glyph horiz-adv-x="1128" d="M 1063 188 L 559 602 L 559 772 L 1063 1190 L 1063 922 L 770 688 L 1063 457 L 1063 188 Z M 582 188 L 76 602 L 76 772 L 582 1190 L 582 922 L 289 688 L 582 457 L 582 188 Z" unicode="«" />
<glyph horiz-adv-x="1536" d="M 1116 352 L 1116 728 L 212 728 L 212 920 L 1296 920 L 1296 352 L 1116 352 Z" unicode="¬" />
<glyph horiz-adv-x="831" d="M 801 641 L 33 641 L 33 895 L 801 895 L 801 641 Z" unicode="­" />
<glyph horiz-adv-x="1341" d="M 676 414 C 492 414 345 459 235 550 C 125 640 68 763 63 918 L 61 1021 L 61 1087 C 61 1262 116 1398 226 1495 C 336 1591 485 1640 674 1640 C 852 1640 995 1596 1103 1508 C 1211 1420 1270 1300 1282 1147 L 1285 1038 L 1282 918 C 1275 763 1218 640 1111 550 C 1003 459 858 414 676 414 Z M 1195 988 L 1195 1097 C 1195 1243 1149 1355 1057 1433 C 965 1511 838 1550 674 1550 C 513 1550 387 1514 296 1443 C 204 1372 156 1272 150 1143 L 149 1091 L 149 1032 L 150 942 C 154 800 201 691 293 615 C 385 538 512 500 674 500 C 784 500 879 518 958 555 C 1036 591 1095 645 1135 716 C 1175 787 1195 878 1195 988 Z M 1012 662 L 811 662 L 678 926 L 555 926 L 555 662 L 362 662 L 362 1370 L 739 1370 C 801 1370 853 1360 895 1341 C 937 1322 967 1296 985 1263 C 1003 1229 1012 1195 1012 1161 C 1012 1105 999 1059 973 1021 C 947 983 909 960 858 952 L 1012 662 Z M 819 1137 C 819 1159 810 1178 793 1194 C 775 1209 751 1217 721 1217 L 555 1217 L 555 1059 L 729 1059 C 755 1059 776 1066 793 1081 C 810 1095 819 1114 819 1137 Z" unicode="®" />
<glyph horiz-adv-x="844" d="M 721 1249 L 125 1249 L 125 1405 L 721 1405 L 721 1249 Z" unicode="¯" />
<glyph horiz-adv-x="623" d="M 311 1561 C 385 1561 448 1534 499 1481 C 549 1427 575 1364 575 1292 C 575 1219 549 1157 498 1105 C 446 1053 384 1028 311 1028 C 239 1028 177 1054 126 1106 C 74 1158 49 1220 49 1292 C 49 1364 74 1426 125 1480 C 176 1534 238 1561 311 1561 Z M 311 1409 C 279 1409 252 1397 229 1374 C 206 1351 195 1324 195 1292 C 195 1262 206 1235 229 1212 C 251 1189 279 1178 311 1178 C 343 1178 371 1189 393 1211 C 415 1233 426 1260 426 1292 C 426 1326 414 1354 392 1376 C 369 1398 342 1409 311 1409 Z" unicode="°" />
<glyph horiz-adv-x="1536" d="M 672 352 L 672 764 L 200 764 L 200 936 L 672 936 L 672 1352 L 864 1352 L 864 936 L 1340 936 L 1340 764 L 864 764 L 864 352 L 672 352 Z M 204 24 L 204 216 L 1336 216 L 1336 24 L 204 24 Z" unicode="±" />
<glyph horiz-adv-x="854" d="M 772 795 L 94 795 L 94 928 C 150 971 206 1010 262 1044 C 318 1078 369 1110 414 1142 C 458 1174 495 1206 523 1240 C 551 1273 565 1311 565 1354 L 565 1395 C 565 1425 554 1449 534 1467 C 513 1484 476 1493 422 1493 C 398 1493 378 1490 362 1486 C 346 1481 332 1474 322 1464 C 312 1454 303 1440 295 1422 C 287 1404 283 1375 283 1337 L 100 1337 C 100 1399 107 1447 123 1481 C 139 1515 160 1542 188 1564 C 216 1585 250 1601 291 1613 C 332 1624 382 1630 440 1630 C 646 1630 753 1557 760 1413 L 761 1400 L 761 1381 L 760 1346 C 758 1292 737 1241 695 1192 C 653 1142 590 1091 506 1038 L 362 944 L 772 944 L 772 795 Z" unicode="²" />
<glyph horiz-adv-x="877" d="M 582 1221 C 653 1217 708 1201 746 1173 C 784 1145 803 1099 803 1037 L 801 999 C 792 855 672 784 440 784 C 331 784 247 799 188 831 C 128 863 96 907 90 963 L 84 1055 L 270 1055 L 270 973 C 271 947 286 930 315 921 C 343 911 384 907 438 907 C 478 907 510 910 534 917 C 558 923 577 934 589 950 C 601 965 607 993 607 1034 C 607 1063 602 1085 592 1099 C 582 1113 565 1123 540 1129 C 515 1135 481 1139 438 1139 L 407 1139 L 272 1141 L 272 1272 L 440 1272 C 491 1276 527 1285 549 1300 C 571 1315 582 1338 584 1370 L 584 1421 C 580 1448 568 1468 547 1482 C 526 1496 490 1503 440 1503 C 349 1503 300 1477 293 1427 L 291 1364 L 113 1364 C 113 1384 116 1414 122 1454 C 128 1493 146 1526 176 1554 C 205 1581 242 1601 288 1613 C 334 1625 388 1632 451 1632 C 645 1632 751 1572 768 1454 L 769 1417 C 769 1353 754 1307 724 1278 C 694 1248 646 1229 582 1221 Z" unicode="³" />
<glyph horiz-adv-x="844" d="M 256 1212 L 430 1507 L 698 1507 L 489 1212 L 256 1212 Z" unicode="´" />
<glyph horiz-adv-x="1408" d="M 252 -424 C 214 -424 186 -413 168 -392 C 149 -370 140 -333 140 -280 C 140 -176 145 -49 156 100 C 166 233 172 309 172 328 L 176 356 L 176 1176 L 368 1176 L 368 320 C 368 258 395 210 450 176 C 504 141 564 124 628 124 C 716 124 792 146 858 190 C 923 234 973 297 1008 380 L 1008 1176 L 1200 1176 L 1200 308 L 1220 0 L 1056 0 L 1020 176 C 974 104 913 50 836 14 C 758 -22 670 -40 572 -40 C 537 -40 494 -31 444 -14 C 393 3 353 28 324 60 C 324 1 333 -56 352 -112 C 370 -168 380 -218 380 -264 C 380 -370 337 -424 252 -424 Z" unicode="µ" />
<glyph horiz-adv-x="1024" d="M 944 1630 L 944 -223 L 848 -223 L 848 1442 L 776 1442 L 776 -223 L 678 -223 L 678 526 C 656 497 621 474 575 456 C 529 438 480 430 430 430 C 336 430 259 450 201 490 C 142 530 102 593 80 677 C 58 761 47 880 47 1034 C 47 1181 59 1297 84 1381 C 109 1465 151 1528 211 1571 C 271 1614 343 1636 428 1636 C 482 1636 532 1627 579 1611 C 626 1595 660 1574 680 1548 L 702 1630 L 944 1630 Z M 678 1319 C 675 1347 659 1370 629 1388 C 599 1406 564 1415 526 1415 C 470 1415 428 1402 400 1377 C 372 1351 351 1306 337 1240 C 323 1174 317 1105 317 1032 C 317 974 321 913 331 848 C 341 782 352 738 366 715 C 379 692 399 674 425 661 C 451 647 480 641 512 641 C 554 641 591 652 623 675 C 655 697 672 724 676 756 L 678 865 L 678 1319 Z" unicode="¶" />
<glyph horiz-adv-x="578" d="M 446 633 L 133 633 L 133 981 L 446 981 L 446 633 Z" unicode="·" />
<glyph horiz-adv-x="844" d="M 489 -199 C 489 -181 483 -168 472 -158 C 461 -148 448 -139 434 -132 L 389 -109 C 373 -101 361 -89 351 -72 C 341 -55 336 -31 336 0 L 485 0 C 485 -20 489 -34 497 -44 C 505 -53 515 -60 529 -65 C 574 -83 606 -100 624 -114 C 642 -128 656 -144 666 -164 C 675 -183 680 -205 680 -231 C 680 -279 658 -318 616 -350 C 574 -382 516 -398 444 -398 C 386 -398 323 -385 256 -360 L 256 -238 C 304 -258 348 -269 390 -269 C 421 -269 445 -262 463 -250 C 480 -238 489 -221 489 -199 Z" unicode="¸" />
<glyph horiz-adv-x="711" d="M 502 795 L 322 795 L 322 1413 L 57 1366 L 57 1509 C 99 1509 158 1523 233 1553 C 308 1582 352 1606 365 1626 L 502 1626 L 502 795 Z" unicode="¹" />
<glyph horiz-adv-x="1057" d="M 1004 1092 C 1004 977 985 876 947 789 C 909 701 854 636 784 593 C 714 549 627 528 524 528 C 366 528 247 578 167 679 C 87 780 47 918 47 1092 C 47 1204 66 1304 104 1392 C 142 1480 196 1544 266 1586 C 336 1628 422 1649 526 1649 C 685 1649 804 1601 884 1506 C 964 1411 1004 1273 1004 1092 Z M 1001 291 L 49 291 L 49 475 L 1001 475 L 1001 291 Z M 762 1092 C 762 1181 754 1251 739 1303 C 724 1354 699 1391 664 1413 C 628 1435 582 1446 524 1446 C 466 1446 420 1433 386 1409 C 352 1384 327 1346 311 1294 C 295 1242 287 1175 287 1092 C 287 1010 295 940 313 883 C 330 825 355 785 388 762 C 420 738 466 727 526 727 C 579 727 622 737 656 759 C 689 781 715 822 734 883 C 752 944 762 1014 762 1092 Z" unicode="º" />
<glyph horiz-adv-x="1128" d="M 549 223 L 549 489 L 838 725 L 549 956 L 549 1221 L 1055 807 L 1055 635 L 549 223 Z M 68 223 L 68 489 L 354 725 L 68 956 L 68 1221 L 573 807 L 573 635 L 68 223 Z" unicode="»" />
<glyph horiz-adv-x="1444" d="M 467 795 L 285 795 L 285 1413 L 23 1366 L 23 1509 C 64 1509 122 1523 196 1551 C 270 1579 314 1604 330 1626 L 467 1626 L 467 795 Z M 1083 1622 C 821 1020 590 480 389 0 L 246 0 L 665 976 L 938 1622 L 1083 1622 Z M 1401 190 L 1268 190 L 1268 0 L 1094 0 L 1094 193 L 649 193 L 649 344 L 1085 827 L 1268 827 L 1268 336 L 1401 336 L 1401 190 Z M 1094 336 L 1094 629 L 827 336 L 1094 336 Z" unicode="¼" />
<glyph horiz-adv-x="1425" d="M 461 795 L 279 795 L 279 1413 L 14 1366 L 14 1509 C 56 1509 115 1523 190 1551 C 264 1579 308 1604 322 1626 L 461 1626 L 461 795 Z M 1042 1622 C 833 1150 601 609 346 0 L 203 0 L 624 976 L 897 1622 L 1042 1622 Z M 1380 0 L 702 0 L 702 133 C 758 176 815 215 871 249 C 927 283 977 315 1022 347 C 1067 379 1104 411 1132 445 C 1160 478 1174 516 1174 559 L 1174 600 C 1174 634 1162 659 1139 675 C 1116 690 1080 698 1030 698 C 1006 698 986 695 970 691 C 954 686 940 678 930 668 C 919 657 910 643 902 626 C 894 608 891 581 891 543 L 709 543 C 709 591 712 628 719 653 C 753 775 863 836 1049 836 C 1151 836 1229 817 1283 781 C 1337 744 1366 690 1370 618 L 1368 551 C 1366 498 1345 448 1305 400 C 1265 352 1201 300 1115 244 L 971 150 L 1380 150 L 1380 0 Z" unicode="½" />
<glyph horiz-adv-x="1630" d="M 522 1221 C 593 1217 648 1201 688 1173 C 727 1144 747 1099 747 1037 L 745 999 C 736 855 615 784 383 784 C 275 784 191 799 132 831 C 73 862 41 906 35 963 L 27 1055 L 213 1055 L 213 973 C 214 947 229 930 258 921 C 287 911 328 907 381 907 C 444 907 488 915 513 932 C 537 949 550 977 550 1015 L 550 1038 C 550 1078 537 1104 513 1118 C 488 1132 445 1139 383 1139 L 351 1139 L 215 1141 L 215 1272 L 385 1272 C 419 1274 447 1280 468 1288 C 489 1296 504 1308 513 1324 C 522 1339 527 1366 527 1405 C 527 1437 516 1462 495 1478 C 473 1494 436 1503 383 1503 C 293 1503 245 1477 238 1427 L 233 1364 L 55 1364 C 55 1438 68 1493 94 1528 C 120 1563 157 1589 206 1606 C 255 1623 317 1632 393 1632 C 495 1632 574 1615 630 1581 C 685 1547 713 1496 713 1427 C 713 1357 697 1307 666 1277 C 635 1247 587 1229 522 1221 Z M 1272 1622 L 1147 1331 C 895 753 706 309 578 0 L 436 0 L 805 858 L 1128 1622 L 1272 1622 Z M 1597 190 L 1466 190 L 1466 0 L 1290 0 L 1290 193 L 846 193 L 846 344 L 1284 827 L 1466 827 L 1466 336 L 1597 336 L 1597 190 Z M 1290 336 L 1290 633 L 1026 336 L 1290 336 Z" unicode="¾" />
<glyph horiz-adv-x="1094" d="M 473 1622 L 743 1622 L 743 1296 L 473 1296 L 473 1622 Z M 492 1180 L 492 1188 L 727 1188 L 727 1164 C 727 1092 718 1029 702 974 C 685 919 662 870 634 828 C 606 785 575 748 541 717 C 507 686 476 657 446 631 C 398 589 367 554 352 526 C 336 498 329 455 329 399 C 329 327 348 276 387 248 C 426 219 487 205 571 205 C 626 205 671 213 706 229 C 741 245 767 268 783 298 C 799 328 807 381 807 459 L 1063 459 C 1063 335 1044 240 1008 174 C 972 108 915 60 837 28 C 759 -4 661 -20 541 -20 C 385 -20 267 5 187 56 C 107 106 60 186 47 295 C 45 310 44 337 44 375 C 44 431 47 474 53 503 C 59 532 69 561 84 589 C 99 617 117 643 139 668 C 161 692 209 736 285 800 C 344 850 387 893 414 929 C 440 965 460 1004 473 1045 C 485 1086 492 1131 492 1180 Z" unicode="¿" />
<glyph horiz-adv-x="1337" d="M 393 393 L 274 0 L 0 0 L 512 1622 L 856 1622 L 1335 0 L 1057 0 L 944 393 L 393 393 Z M 874 627 L 709 1225 L 678 1370 L 647 1225 L 467 627 L 874 627 Z M 890 1622 L 655 1622 L 446 1917 L 714 1917 L 890 1622 Z" unicode="À" />
<glyph horiz-adv-x="1337" d="M 393 393 L 274 0 L 0 0 L 512 1622 L 856 1622 L 1335 0 L 1057 0 L 944 393 L 393 393 Z M 874 627 L 709 1225 L 678 1370 L 647 1225 L 467 627 L 874 627 Z M 447 1622 L 621 1917 L 889 1917 L 680 1622 L 447 1622 Z" unicode="Á" />
<glyph horiz-adv-x="1337" d="M 393 393 L 274 0 L 0 0 L 512 1622 L 856 1622 L 1335 0 L 1057 0 L 944 393 L 393 393 Z M 874 627 L 709 1225 L 678 1370 L 647 1225 L 467 627 L 874 627 Z M 998 1629 L 793 1629 L 666 1784 L 537 1629 L 338 1629 L 537 1919 L 797 1919 L 998 1629 Z" unicode="Â" />
<glyph horiz-adv-x="1337" d="M 393 393 L 274 0 L 0 0 L 512 1622 L 856 1622 L 1335 0 L 1057 0 L 944 393 L 393 393 Z M 874 627 L 709 1225 L 678 1370 L 647 1225 L 467 627 L 874 627 Z M 572 1728 C 542 1728 521 1719 510 1703 C 499 1687 493 1663 492 1633 L 328 1633 C 330 1720 347 1787 381 1834 C 414 1881 462 1905 525 1905 C 558 1905 585 1901 606 1893 C 627 1885 650 1870 674 1848 C 691 1831 706 1818 720 1808 C 734 1798 749 1794 766 1794 C 791 1794 810 1801 822 1816 C 834 1831 841 1857 844 1895 L 1008 1893 C 1001 1712 935 1622 811 1622 C 776 1622 749 1626 729 1634 C 709 1642 688 1656 668 1674 C 648 1692 631 1705 617 1714 C 602 1723 587 1728 572 1728 Z" unicode="Ã" />
<glyph horiz-adv-x="1337" d="M 393 393 L 274 0 L 0 0 L 512 1622 L 856 1622 L 1335 0 L 1057 0 L 944 393 L 393 393 Z M 874 627 L 709 1225 L 678 1370 L 647 1225 L 467 627 L 874 627 Z M 964 1622 L 743 1622 L 743 1878 L 964 1878 L 964 1622 Z M 593 1622 L 372 1622 L 372 1878 L 593 1878 L 593 1622 Z" unicode="Ä" />
<glyph horiz-adv-x="1337" d="M 500 1583 C 467 1624 451 1672 451 1726 C 451 1791 473 1847 517 1894 C 561 1940 616 1964 682 1964 C 748 1964 805 1940 851 1893 C 897 1846 920 1790 920 1726 C 920 1672 902 1623 868 1581 L 1335 0 L 1057 0 L 944 393 L 393 393 L 274 0 L 0 0 L 500 1583 Z M 682 1815 C 659 1815 640 1806 625 1789 C 609 1772 602 1751 602 1726 C 602 1702 610 1682 626 1664 C 642 1646 660 1638 682 1638 C 704 1638 723 1647 739 1665 C 755 1683 764 1703 764 1726 C 764 1751 756 1772 740 1789 C 724 1806 704 1815 682 1815 Z M 874 627 L 709 1225 L 678 1370 L 647 1225 L 467 627 L 874 627 Z" unicode="Å" />
<glyph horiz-adv-x="1833" d="M 1786 1622 L 1786 1376 L 1090 1376 L 1090 938 L 1749 938 L 1749 690 L 1090 690 L 1090 246 L 1790 246 L 1790 0 L 827 0 L 827 367 L 416 367 L 262 0 L -20 0 L 713 1622 L 1786 1622 Z M 827 1356 C 801 1264 782 1203 768 1171 L 514 592 L 827 592 L 827 1356 Z" unicode="Æ" />
<glyph horiz-adv-x="1372" d="M 68 817 C 68 1099 119 1307 222 1440 C 324 1573 488 1640 713 1640 C 847 1640 960 1616 1051 1568 C 1141 1520 1208 1448 1250 1350 C 1292 1252 1314 1146 1317 1032 L 1044 1032 C 1040 1110 1026 1177 1001 1233 C 976 1289 939 1329 891 1355 C 842 1380 781 1393 707 1393 C 637 1393 580 1381 534 1358 C 488 1334 452 1301 427 1259 C 401 1217 382 1157 368 1080 C 354 1002 348 914 348 815 C 348 611 374 461 426 363 C 478 265 575 217 715 217 C 821 217 901 247 955 309 C 1008 370 1039 460 1047 580 L 1319 580 C 1315 470 1291 368 1245 275 C 1199 181 1137 110 1060 62 C 982 13 883 -13 762 -18 C 766 -40 781 -55 805 -65 C 850 -83 882 -100 900 -114 C 918 -128 932 -144 942 -164 C 951 -183 956 -205 956 -231 C 956 -279 934 -318 892 -350 C 850 -382 792 -398 720 -398 C 662 -398 599 -385 532 -360 L 532 -238 C 580 -258 625 -269 667 -269 C 698 -269 722 -262 740 -250 C 757 -237 766 -220 766 -199 C 766 -181 760 -168 749 -158 C 738 -148 725 -139 711 -132 L 666 -109 C 650 -101 637 -89 627 -72 C 617 -54 612 -36 612 -16 C 416 4 276 82 193 219 C 109 356 68 555 68 817 Z" unicode="Ç" />
<glyph horiz-adv-x="1214" d="M 1141 0 L 135 0 L 135 1622 L 1133 1622 L 1133 1376 L 401 1376 L 401 938 L 1100 938 L 1100 690 L 401 690 L 401 246 L 1141 246 L 1141 0 Z M 829 1622 L 594 1622 L 385 1917 L 653 1917 L 829 1622 Z" unicode="È" />
<glyph horiz-adv-x="1214" d="M 1141 0 L 135 0 L 135 1622 L 1133 1622 L 1133 1376 L 401 1376 L 401 938 L 1100 938 L 1100 690 L 401 690 L 401 246 L 1141 246 L 1141 0 Z M 386 1622 L 560 1917 L 828 1917 L 619 1622 L 386 1622 Z" unicode="É" />
<glyph horiz-adv-x="1214" d="M 1141 0 L 135 0 L 135 1622 L 1133 1622 L 1133 1376 L 401 1376 L 401 938 L 1100 938 L 1100 690 L 401 690 L 401 246 L 1141 246 L 1141 0 Z M 937 1629 L 732 1629 L 605 1784 L 476 1629 L 277 1629 L 476 1919 L 736 1919 L 937 1629 Z" unicode="Ê" />
<glyph horiz-adv-x="1214" d="M 1141 0 L 135 0 L 135 1622 L 1133 1622 L 1133 1376 L 401 1376 L 401 938 L 1100 938 L 1100 690 L 401 690 L 401 246 L 1141 246 L 1141 0 Z M 903 1622 L 682 1622 L 682 1878 L 903 1878 L 903 1622 Z M 532 1622 L 311 1622 L 311 1878 L 532 1878 L 532 1622 Z" unicode="Ë" />
<glyph horiz-adv-x="547" d="M 412 0 L 135 0 L 135 1622 L 412 1622 L 412 0 Z M 497 1622 L 262 1622 L 53 1917 L 321 1917 L 497 1622 Z" unicode="Ì" />
<glyph horiz-adv-x="547" d="M 412 0 L 135 0 L 135 1622 L 412 1622 L 412 0 Z M 54 1622 L 228 1917 L 496 1917 L 287 1622 L 54 1622 Z" unicode="Í" />
<glyph horiz-adv-x="547" d="M 412 0 L 135 0 L 135 1622 L 412 1622 L 412 0 Z M 605 1629 L 400 1629 L 273 1784 L 144 1629 L -55 1629 L 144 1919 L 404 1919 L 605 1629 Z" unicode="Î" />
<glyph horiz-adv-x="547" d="M 412 0 L 135 0 L 135 1622 L 412 1622 L 412 0 Z M 571 1622 L 350 1622 L 350 1878 L 571 1878 L 571 1622 Z M 200 1622 L -21 1622 L -21 1878 L 200 1878 L 200 1622 Z" unicode="Ï" />
<glyph horiz-adv-x="1360" d="M 137 684 L 37 684 L 37 932 L 137 932 L 137 1622 L 754 1622 C 892 1622 1001 1597 1081 1547 C 1161 1497 1216 1421 1246 1319 C 1276 1217 1292 1056 1292 838 C 1292 604 1278 434 1250 327 C 1222 219 1170 138 1094 83 C 1017 27 911 0 776 0 L 137 0 L 137 684 Z M 406 932 L 700 932 L 700 684 L 406 684 L 406 238 L 729 238 C 789 238 838 245 876 259 C 914 273 945 298 971 334 C 1010 390 1030 558 1030 838 C 1030 945 1024 1039 1012 1120 C 1000 1200 984 1254 965 1280 C 936 1316 904 1342 868 1357 C 832 1372 784 1380 725 1380 L 406 1380 L 406 932 Z" unicode="Ð" />
<glyph horiz-adv-x="1378" d="M 1249 0 L 961 0 L 391 1135 L 391 0 L 135 0 L 135 1622 L 440 1622 L 993 516 L 993 1622 L 1249 1622 L 1249 0 Z M 593 1728 C 563 1728 542 1719 531 1703 C 520 1687 514 1663 513 1633 L 349 1633 C 351 1720 368 1787 402 1834 C 435 1881 483 1905 546 1905 C 579 1905 606 1901 627 1893 C 648 1885 671 1870 695 1848 C 712 1831 727 1818 741 1808 C 755 1798 770 1794 787 1794 C 812 1794 831 1801 843 1816 C 855 1831 862 1857 865 1895 L 1029 1893 C 1022 1712 956 1622 832 1622 C 797 1622 770 1626 750 1634 C 730 1642 709 1656 689 1674 C 669 1692 652 1705 638 1714 C 623 1723 608 1728 593 1728 Z" unicode="Ñ" />
<glyph horiz-adv-x="1407" d="M 702 1640 C 853 1640 976 1611 1070 1555 C 1164 1498 1233 1412 1275 1298 C 1317 1183 1339 1023 1339 819 C 1339 523 1289 310 1190 178 C 1091 46 928 -20 702 -20 C 554 -20 432 8 338 65 C 243 121 174 209 132 327 C 89 445 68 609 68 817 C 68 944 77 1056 96 1154 C 115 1252 142 1328 176 1382 C 280 1554 455 1640 702 1640 Z M 707 217 C 762 217 811 225 853 243 C 895 260 933 288 967 326 C 1000 364 1025 428 1043 517 C 1060 605 1069 704 1069 813 C 1069 957 1057 1071 1035 1154 C 1013 1237 976 1299 924 1341 C 872 1382 799 1403 705 1403 C 607 1403 533 1381 483 1337 C 433 1293 397 1228 376 1142 C 354 1055 344 944 344 809 C 344 608 370 459 423 362 C 476 265 571 217 707 217 Z M 925 1622 L 690 1622 L 481 1917 L 749 1917 L 925 1622 Z" unicode="Ò" />
<glyph horiz-adv-x="1407" d="M 702 1640 C 853 1640 976 1611 1070 1555 C 1164 1498 1233 1412 1275 1298 C 1317 1183 1339 1023 1339 819 C 1339 523 1289 310 1190 178 C 1091 46 928 -20 702 -20 C 554 -20 432 8 338 65 C 243 121 174 209 132 327 C 89 445 68 609 68 817 C 68 944 77 1056 96 1154 C 115 1252 142 1328 176 1382 C 280 1554 455 1640 702 1640 Z M 707 217 C 762 217 811 225 853 243 C 895 260 933 288 967 326 C 1000 364 1025 428 1043 517 C 1060 605 1069 704 1069 813 C 1069 957 1057 1071 1035 1154 C 1013 1237 976 1299 924 1341 C 872 1382 799 1403 705 1403 C 607 1403 533 1381 483 1337 C 433 1293 397 1228 376 1142 C 354 1055 344 944 344 809 C 344 608 370 459 423 362 C 476 265 571 217 707 217 Z M 482 1622 L 656 1917 L 924 1917 L 715 1622 L 482 1622 Z" unicode="Ó" />
<glyph horiz-adv-x="1407" d="M 702 1640 C 853 1640 976 1611 1070 1555 C 1164 1498 1233 1412 1275 1298 C 1317 1183 1339 1023 1339 819 C 1339 523 1289 310 1190 178 C 1091 46 928 -20 702 -20 C 554 -20 432 8 338 65 C 243 121 174 209 132 327 C 89 445 68 609 68 817 C 68 944 77 1056 96 1154 C 115 1252 142 1328 176 1382 C 280 1554 455 1640 702 1640 Z M 707 217 C 762 217 811 225 853 243 C 895 260 933 288 967 326 C 1000 364 1025 428 1043 517 C 1060 605 1069 704 1069 813 C 1069 957 1057 1071 1035 1154 C 1013 1237 976 1299 924 1341 C 872 1382 799 1403 705 1403 C 607 1403 533 1381 483 1337 C 433 1293 397 1228 376 1142 C 354 1055 344 944 344 809 C 344 608 370 459 423 362 C 476 265 571 217 707 217 Z M 1033 1629 L 828 1629 L 701 1784 L 572 1629 L 373 1629 L 572 1919 L 832 1919 L 1033 1629 Z" unicode="Ô" />
<glyph horiz-adv-x="1407" d="M 702 1640 C 853 1640 976 1611 1070 1555 C 1164 1498 1233 1412 1275 1298 C 1317 1183 1339 1023 1339 819 C 1339 523 1289 310 1190 178 C 1091 46 928 -20 702 -20 C 554 -20 432 8 338 65 C 243 121 174 209 132 327 C 89 445 68 609 68 817 C 68 944 77 1056 96 1154 C 115 1252 142 1328 176 1382 C 280 1554 455 1640 702 1640 Z M 707 217 C 762 217 811 225 853 243 C 895 260 933 288 967 326 C 1000 364 1025 428 1043 517 C 1060 605 1069 704 1069 813 C 1069 957 1057 1071 1035 1154 C 1013 1237 976 1299 924 1341 C 872 1382 799 1403 705 1403 C 607 1403 533 1381 483 1337 C 433 1293 397 1228 376 1142 C 354 1055 344 944 344 809 C 344 608 370 459 423 362 C 476 265 571 217 707 217 Z M 607 1728 C 577 1728 556 1719 545 1703 C 534 1687 528 1663 527 1633 L 363 1633 C 365 1720 382 1787 416 1834 C 449 1881 497 1905 560 1905 C 593 1905 620 1901 641 1893 C 662 1885 685 1870 709 1848 C 726 1831 741 1818 755 1808 C 769 1798 784 1794 801 1794 C 826 1794 845 1801 857 1816 C 869 1831 876 1857 879 1895 L 1043 1893 C 1036 1712 970 1622 846 1622 C 811 1622 784 1626 764 1634 C 744 1642 723 1656 703 1674 C 683 1692 666 1705 652 1714 C 637 1723 622 1728 607 1728 Z" unicode="Õ" />
<glyph horiz-adv-x="1407" d="M 702 1640 C 853 1640 976 1611 1070 1555 C 1164 1498 1233 1412 1275 1298 C 1317 1183 1339 1023 1339 819 C 1339 523 1289 310 1190 178 C 1091 46 928 -20 702 -20 C 554 -20 432 8 338 65 C 243 121 174 209 132 327 C 89 445 68 609 68 817 C 68 944 77 1056 96 1154 C 115 1252 142 1328 176 1382 C 280 1554 455 1640 702 1640 Z M 707 217 C 762 217 811 225 853 243 C 895 260 933 288 967 326 C 1000 364 1025 428 1043 517 C 1060 605 1069 704 1069 813 C 1069 957 1057 1071 1035 1154 C 1013 1237 976 1299 924 1341 C 872 1382 799 1403 705 1403 C 607 1403 533 1381 483 1337 C 433 1293 397 1228 376 1142 C 354 1055 344 944 344 809 C 344 608 370 459 423 362 C 476 265 571 217 707 217 Z M 999 1622 L 778 1622 L 778 1878 L 999 1878 L 999 1622 Z M 628 1622 L 407 1622 L 407 1878 L 628 1878 L 628 1622 Z" unicode="Ö" />
<glyph horiz-adv-x="1004" d="M 848 989 L 631 776 L 850 557 L 719 424 L 502 641 L 287 424 L 156 559 L 373 776 L 156 989 L 287 1124 L 502 911 L 719 1126 L 848 989 Z" unicode="×" />
<glyph horiz-adv-x="1407" d="M 1161 1489 C 1223 1421 1268 1334 1296 1227 C 1324 1120 1339 984 1339 819 C 1339 627 1315 467 1269 339 C 1223 211 1153 120 1061 64 C 969 8 849 -20 702 -20 C 569 -20 457 3 365 51 C 358 36 332 -8 287 -84 L 119 -84 C 182 32 224 106 246 137 C 182 211 136 302 109 411 C 81 519 68 655 68 817 C 68 1073 104 1260 178 1380 C 282 1553 457 1640 702 1640 C 840 1640 954 1617 1044 1571 L 1092 1651 L 1253 1651 C 1203 1571 1172 1517 1161 1489 Z M 399 420 L 920 1343 C 866 1383 794 1403 705 1403 C 607 1403 533 1381 483 1337 C 433 1293 397 1228 376 1142 C 354 1055 344 944 344 809 C 344 650 362 520 399 420 Z M 1012 1212 L 492 281 C 547 238 619 217 707 217 C 762 217 811 225 853 243 C 895 260 933 288 967 326 C 1000 364 1025 428 1043 517 C 1060 605 1069 704 1069 813 C 1069 991 1050 1124 1012 1212 Z" unicode="Ø" />
<glyph horiz-adv-x="1376" d="M 1257 424 C 1257 284 1206 175 1104 97 C 1002 19 864 -20 688 -20 C 506 -20 365 19 266 97 C 166 175 117 288 117 436 L 117 1622 L 385 1622 L 385 463 C 385 384 411 323 464 281 C 516 238 592 217 692 217 C 783 217 855 239 908 283 C 960 327 987 386 987 461 L 987 1622 L 1257 1622 L 1257 424 Z M 910 1622 L 675 1622 L 466 1917 L 734 1917 L 910 1622 Z" unicode="Ù" />
<glyph horiz-adv-x="1376" d="M 1257 424 C 1257 284 1206 175 1104 97 C 1002 19 864 -20 688 -20 C 506 -20 365 19 266 97 C 166 175 117 288 117 436 L 117 1622 L 385 1622 L 385 463 C 385 384 411 323 464 281 C 516 238 592 217 692 217 C 783 217 855 239 908 283 C 960 327 987 386 987 461 L 987 1622 L 1257 1622 L 1257 424 Z M 467 1622 L 641 1917 L 909 1917 L 700 1622 L 467 1622 Z" unicode="Ú" />
<glyph horiz-adv-x="1376" d="M 1257 424 C 1257 284 1206 175 1104 97 C 1002 19 864 -20 688 -20 C 506 -20 365 19 266 97 C 166 175 117 288 117 436 L 117 1622 L 385 1622 L 385 463 C 385 384 411 323 464 281 C 516 238 592 217 692 217 C 783 217 855 239 908 283 C 960 327 987 386 987 461 L 987 1622 L 1257 1622 L 1257 424 Z M 1018 1629 L 813 1629 L 686 1784 L 557 1629 L 358 1629 L 557 1919 L 817 1919 L 1018 1629 Z" unicode="Û" />
<glyph horiz-adv-x="1376" d="M 1257 424 C 1257 284 1206 175 1104 97 C 1002 19 864 -20 688 -20 C 506 -20 365 19 266 97 C 166 175 117 288 117 436 L 117 1622 L 385 1622 L 385 463 C 385 384 411 323 464 281 C 516 238 592 217 692 217 C 783 217 855 239 908 283 C 960 327 987 386 987 461 L 987 1622 L 1257 1622 L 1257 424 Z M 984 1622 L 763 1622 L 763 1878 L 984 1878 L 984 1622 Z M 613 1622 L 392 1622 L 392 1878 L 613 1878 L 613 1622 Z" unicode="Ü" />
<glyph horiz-adv-x="1343" d="M 1343 1622 L 799 561 L 799 0 L 526 0 L 526 559 L 4 1622 L 289 1622 L 666 829 L 1067 1622 L 1343 1622 Z M 450 1622 L 624 1917 L 892 1917 L 683 1622 L 450 1622 Z" unicode="Ý" />
<glyph horiz-adv-x="1319" d="M 414 1622 L 416 1364 L 823 1364 C 919 1364 996 1349 1055 1319 C 1114 1289 1158 1244 1186 1182 C 1210 1146 1229 1098 1242 1040 C 1255 981 1262 916 1262 846 C 1262 742 1247 651 1218 573 C 1189 495 1142 435 1078 395 C 1014 354 929 332 823 330 L 745 330 L 410 332 L 410 0 L 135 0 L 135 1622 L 414 1622 Z M 987 842 C 987 910 981 957 971 985 C 958 1034 936 1069 904 1089 C 872 1109 828 1120 772 1120 L 410 1120 L 410 567 L 766 567 C 821 567 864 576 895 594 C 926 612 949 640 964 677 C 979 713 987 768 987 842 Z" unicode="Þ" />
<glyph horiz-adv-x="1585" d="M 608 1427 C 550 1425 509 1412 484 1388 C 458 1363 446 1322 446 1266 L 446 0 L 190 0 L 190 905 L 25 905 L 25 1126 L 190 1126 L 190 1305 C 190 1412 227 1495 301 1555 C 375 1615 483 1645 627 1645 C 743 1645 838 1617 910 1561 C 982 1505 1018 1432 1018 1341 C 1018 1265 986 1192 922 1123 C 890 1088 865 1055 849 1023 C 833 991 825 959 825 926 C 825 897 830 873 842 855 C 853 837 869 821 891 809 C 912 797 958 780 1030 758 L 1229 698 C 1338 666 1419 620 1473 562 C 1527 503 1554 426 1554 332 C 1554 218 1513 131 1432 71 C 1351 11 1232 -18 1075 -18 C 779 -18 614 65 582 233 C 576 256 573 293 573 345 L 571 379 L 829 379 L 829 342 C 829 280 849 235 889 209 C 929 183 990 170 1073 170 C 1153 170 1211 181 1247 203 C 1282 225 1300 262 1300 315 C 1300 369 1278 411 1236 441 C 1194 470 1093 507 934 551 C 834 581 762 611 716 640 C 670 668 636 703 613 743 C 589 783 578 831 578 887 C 578 961 607 1033 666 1101 C 698 1137 720 1169 734 1196 C 747 1223 754 1252 754 1282 C 754 1328 741 1364 716 1389 C 691 1414 655 1427 608 1427 Z" unicode="ß" />
<glyph horiz-adv-x="1139" d="M 1057 0 L 827 0 C 821 0 816 9 812 27 C 807 45 805 67 805 93 L 805 113 C 765 70 715 39 655 19 C 595 0 524 -10 440 -10 C 363 -10 296 1 240 25 C 183 49 139 84 108 130 C 76 176 61 234 61 306 C 61 398 82 472 126 527 C 169 582 234 624 322 653 C 409 681 517 696 647 696 C 686 696 736 693 797 688 L 797 745 L 795 811 C 784 895 715 938 588 938 C 506 938 445 922 407 892 C 369 862 350 811 350 739 L 113 739 C 113 877 153 981 235 1049 C 317 1117 435 1151 590 1151 C 863 1151 1010 1055 1030 864 C 1036 810 1039 726 1039 613 L 1036 217 C 1036 174 1037 130 1041 85 C 1045 40 1050 12 1057 0 Z M 803 510 L 733 516 L 651 518 C 542 518 458 504 400 476 C 342 448 313 403 313 340 C 313 284 328 243 360 218 C 391 192 441 180 510 180 C 610 180 684 205 732 255 C 779 305 803 390 803 510 Z M 791 1212 L 556 1212 L 347 1507 L 615 1507 L 791 1212 Z" unicode="à" />
<glyph horiz-adv-x="1139" d="M 1057 0 L 827 0 C 821 0 816 9 812 27 C 807 45 805 67 805 93 L 805 113 C 765 70 715 39 655 19 C 595 0 524 -10 440 -10 C 363 -10 296 1 240 25 C 183 49 139 84 108 130 C 76 176 61 234 61 306 C 61 398 82 472 126 527 C 169 582 234 624 322 653 C 409 681 517 696 647 696 C 686 696 736 693 797 688 L 797 745 L 795 811 C 784 895 715 938 588 938 C 506 938 445 922 407 892 C 369 862 350 811 350 739 L 113 739 C 113 877 153 981 235 1049 C 317 1117 435 1151 590 1151 C 863 1151 1010 1055 1030 864 C 1036 810 1039 726 1039 613 L 1036 217 C 1036 174 1037 130 1041 85 C 1045 40 1050 12 1057 0 Z M 803 510 L 733 516 L 651 518 C 542 518 458 504 400 476 C 342 448 313 403 313 340 C 313 284 328 243 360 218 C 391 192 441 180 510 180 C 610 180 684 205 732 255 C 779 305 803 390 803 510 Z M 348 1212 L 522 1507 L 790 1507 L 581 1212 L 348 1212 Z" unicode="á" />
<glyph horiz-adv-x="1139" d="M 1057 0 L 827 0 C 821 0 816 9 812 27 C 807 45 805 67 805 93 L 805 113 C 765 70 715 39 655 19 C 595 0 524 -10 440 -10 C 363 -10 296 1 240 25 C 183 49 139 84 108 130 C 76 176 61 234 61 306 C 61 398 82 472 126 527 C 169 582 234 624 322 653 C 409 681 517 696 647 696 C 686 696 736 693 797 688 L 797 745 L 795 811 C 784 895 715 938 588 938 C 506 938 445 922 407 892 C 369 862 350 811 350 739 L 113 739 C 113 877 153 981 235 1049 C 317 1117 435 1151 590 1151 C 863 1151 1010 1055 1030 864 C 1036 810 1039 726 1039 613 L 1036 217 C 1036 174 1037 130 1041 85 C 1045 40 1050 12 1057 0 Z M 803 510 L 733 516 L 651 518 C 542 518 458 504 400 476 C 342 448 313 403 313 340 C 313 284 328 243 360 218 C 391 192 441 180 510 180 C 610 180 684 205 732 255 C 779 305 803 390 803 510 Z M 899 1219 L 694 1219 L 567 1374 L 438 1219 L 239 1219 L 438 1509 L 698 1509 L 899 1219 Z" unicode="â" />
<glyph horiz-adv-x="1139" d="M 1057 0 L 827 0 C 821 0 816 9 812 27 C 807 45 805 67 805 93 L 805 113 C 765 70 715 39 655 19 C 595 0 524 -10 440 -10 C 363 -10 296 1 240 25 C 183 49 139 84 108 130 C 76 176 61 234 61 306 C 61 398 82 472 126 527 C 169 582 234 624 322 653 C 409 681 517 696 647 696 C 686 696 736 693 797 688 L 797 745 L 795 811 C 784 895 715 938 588 938 C 506 938 445 922 407 892 C 369 862 350 811 350 739 L 113 739 C 113 877 153 981 235 1049 C 317 1117 435 1151 590 1151 C 863 1151 1010 1055 1030 864 C 1036 810 1039 726 1039 613 L 1036 217 C 1036 174 1037 130 1041 85 C 1045 40 1050 12 1057 0 Z M 803 510 L 733 516 L 651 518 C 542 518 458 504 400 476 C 342 448 313 403 313 340 C 313 284 328 243 360 218 C 391 192 441 180 510 180 C 610 180 684 205 732 255 C 779 305 803 390 803 510 Z M 473 1318 C 443 1318 422 1309 411 1293 C 400 1277 394 1253 393 1223 L 229 1223 C 231 1310 248 1377 282 1424 C 315 1471 363 1495 426 1495 C 459 1495 486 1491 507 1483 C 528 1475 551 1460 575 1438 C 592 1421 607 1408 621 1398 C 635 1388 650 1384 667 1384 C 692 1384 711 1391 723 1406 C 735 1421 742 1447 745 1485 L 909 1483 C 902 1302 836 1212 712 1212 C 677 1212 650 1216 630 1224 C 610 1232 589 1246 569 1264 C 549 1282 532 1295 518 1304 C 503 1313 488 1318 473 1318 Z" unicode="ã" />
<glyph horiz-adv-x="1139" d="M 1057 0 L 827 0 C 821 0 816 9 812 27 C 807 45 805 67 805 93 L 805 113 C 765 70 715 39 655 19 C 595 0 524 -10 440 -10 C 363 -10 296 1 240 25 C 183 49 139 84 108 130 C 76 176 61 234 61 306 C 61 398 82 472 126 527 C 169 582 234 624 322 653 C 409 681 517 696 647 696 C 686 696 736 693 797 688 L 797 745 L 795 811 C 784 895 715 938 588 938 C 506 938 445 922 407 892 C 369 862 350 811 350 739 L 113 739 C 113 877 153 981 235 1049 C 317 1117 435 1151 590 1151 C 863 1151 1010 1055 1030 864 C 1036 810 1039 726 1039 613 L 1036 217 C 1036 174 1037 130 1041 85 C 1045 40 1050 12 1057 0 Z M 803 510 L 733 516 L 651 518 C 542 518 458 504 400 476 C 342 448 313 403 313 340 C 313 284 328 243 360 218 C 391 192 441 180 510 180 C 610 180 684 205 732 255 C 779 305 803 390 803 510 Z M 865 1212 L 644 1212 L 644 1468 L 865 1468 L 865 1212 Z M 494 1212 L 273 1212 L 273 1468 L 494 1468 L 494 1212 Z" unicode="ä" />
<glyph horiz-adv-x="1139" d="M 1057 0 L 827 0 C 821 0 816 9 812 27 C 807 45 805 67 805 93 L 805 113 C 765 70 715 39 655 19 C 595 0 524 -10 440 -10 C 363 -10 296 1 240 25 C 183 49 139 84 108 130 C 76 176 61 234 61 306 C 61 398 82 472 126 527 C 169 582 234 624 322 653 C 409 681 517 696 647 696 C 686 696 736 693 797 688 L 797 745 L 795 811 C 784 895 715 938 588 938 C 506 938 445 922 407 892 C 369 862 350 811 350 739 L 113 739 C 113 877 153 981 235 1049 C 317 1117 435 1151 590 1151 C 863 1151 1010 1055 1030 864 C 1036 810 1039 726 1039 613 L 1036 217 C 1036 174 1037 130 1041 85 C 1045 40 1050 12 1057 0 Z M 803 510 L 733 516 L 651 518 C 542 518 458 504 400 476 C 342 448 313 403 313 340 C 313 284 328 243 360 218 C 391 192 441 180 510 180 C 610 180 684 205 732 255 C 779 305 803 390 803 510 Z M 567 1642 C 632 1642 688 1618 734 1572 C 780 1526 804 1470 804 1405 C 804 1339 780 1284 733 1240 C 686 1196 631 1174 567 1174 C 503 1174 448 1196 403 1240 C 357 1284 335 1339 335 1405 C 335 1470 357 1526 402 1572 C 447 1618 502 1642 567 1642 Z M 567 1501 C 542 1501 521 1491 504 1473 C 487 1454 479 1431 479 1405 C 479 1380 487 1358 505 1338 C 523 1318 543 1309 567 1309 C 589 1309 610 1318 629 1338 C 647 1358 657 1380 657 1405 C 657 1431 648 1454 630 1473 C 612 1491 591 1501 567 1501 Z" unicode="å" />
<glyph horiz-adv-x="1864" d="M 905 162 C 857 98 795 54 719 28 C 643 2 553 -10 449 -10 C 325 -10 230 14 162 63 C 94 112 61 191 61 300 C 61 392 82 465 124 520 C 166 575 230 617 315 647 C 399 677 516 692 665 693 C 707 692 751 690 797 686 L 797 712 L 793 811 C 783 893 712 934 578 934 C 498 934 439 918 403 886 C 366 854 348 805 348 739 L 113 739 C 113 873 154 975 237 1045 C 319 1115 437 1151 590 1151 C 778 1151 898 1093 948 979 C 970 1029 1014 1071 1082 1103 C 1150 1135 1231 1151 1325 1151 C 1428 1151 1518 1129 1595 1086 C 1671 1043 1729 981 1768 899 C 1807 817 1827 706 1827 566 L 1825 477 L 1040 477 C 1040 438 1043 404 1051 375 C 1059 345 1073 315 1094 285 C 1114 255 1144 232 1184 218 C 1223 204 1267 197 1317 197 C 1367 197 1409 202 1445 214 C 1480 225 1510 244 1534 272 C 1558 300 1572 329 1575 360 L 1817 360 C 1809 293 1783 228 1739 166 C 1695 103 1638 57 1568 27 C 1498 -3 1415 -18 1317 -18 C 1211 -18 1124 -1 1054 31 C 984 63 934 107 905 162 Z M 1579 653 C 1579 690 1574 727 1565 764 C 1555 801 1544 828 1530 846 C 1482 904 1410 934 1315 934 C 1223 934 1153 909 1106 861 C 1059 813 1036 743 1036 653 L 1579 653 Z M 742 520 C 626 520 549 515 512 506 C 385 477 322 421 322 338 C 322 308 327 284 337 266 C 347 248 366 233 393 221 C 418 203 460 195 520 195 L 542 196 L 598 201 C 734 216 803 298 803 446 L 805 463 L 803 518 L 742 520 Z" unicode="æ" />
<glyph horiz-adv-x="1128" d="M 57 567 C 57 690 76 796 115 886 C 154 975 212 1041 290 1085 C 368 1129 462 1151 573 1151 C 811 1151 965 1070 1036 909 C 1048 883 1057 849 1065 807 C 1073 765 1077 727 1077 694 L 834 694 C 834 735 825 774 807 810 C 789 846 761 874 725 894 C 688 914 640 924 580 924 C 519 924 469 912 430 890 C 390 867 360 830 340 780 C 319 730 309 658 309 565 C 309 432 331 337 375 281 C 419 225 490 197 588 199 C 645 199 692 207 730 225 C 767 242 795 269 813 306 C 831 343 840 381 840 420 L 1075 420 C 1075 348 1058 277 1024 209 C 990 140 942 87 880 51 C 818 14 739 -7 643 -14 C 647 -28 653 -39 662 -47 C 670 -55 683 -62 703 -69 C 793 -100 838 -153 838 -227 C 838 -275 816 -314 774 -346 C 732 -378 674 -394 602 -394 C 544 -394 481 -381 414 -356 L 414 -233 C 463 -254 508 -265 550 -265 C 580 -265 603 -258 621 -246 C 638 -233 647 -216 647 -195 C 647 -177 641 -164 630 -154 C 619 -144 606 -135 592 -128 C 577 -120 562 -113 547 -105 C 531 -97 520 -87 512 -74 C 504 -63 500 -52 498 -42 C 496 -31 495 -21 494 -12 C 342 4 232 60 162 157 C 92 254 57 391 57 567 Z" unicode="ç" />
<glyph horiz-adv-x="1126" d="M 1081 360 C 1071 288 1043 222 998 161 C 953 99 896 54 827 25 C 758 -3 676 -18 582 -18 C 405 -18 273 30 187 127 C 100 224 57 370 57 565 C 57 761 104 907 198 1005 C 292 1102 420 1151 580 1151 C 687 1151 778 1130 854 1090 C 930 1050 988 990 1029 910 C 1069 830 1090 718 1091 575 L 1087 469 L 303 469 C 305 418 314 373 332 335 C 350 297 369 269 391 251 C 412 233 439 220 471 210 C 503 200 540 195 582 195 C 630 195 673 201 709 213 C 745 225 775 244 799 272 C 823 300 837 329 840 360 L 1081 360 Z M 842 664 C 842 696 837 730 828 766 C 818 802 807 829 793 846 C 745 904 673 934 578 934 C 398 934 305 844 299 664 L 842 664 Z M 785 1212 L 550 1212 L 341 1507 L 609 1507 L 785 1212 Z" unicode="è" />
<glyph horiz-adv-x="1126" d="M 1081 360 C 1071 288 1043 222 998 161 C 953 99 896 54 827 25 C 758 -3 676 -18 582 -18 C 405 -18 273 30 187 127 C 100 224 57 370 57 565 C 57 761 104 907 198 1005 C 292 1102 420 1151 580 1151 C 687 1151 778 1130 854 1090 C 930 1050 988 990 1029 910 C 1069 830 1090 718 1091 575 L 1087 469 L 303 469 C 305 418 314 373 332 335 C 350 297 369 269 391 251 C 412 233 439 220 471 210 C 503 200 540 195 582 195 C 630 195 673 201 709 213 C 745 225 775 244 799 272 C 823 300 837 329 840 360 L 1081 360 Z M 842 664 C 842 696 837 730 828 766 C 818 802 807 829 793 846 C 745 904 673 934 578 934 C 398 934 305 844 299 664 L 842 664 Z M 342 1212 L 516 1507 L 784 1507 L 575 1212 L 342 1212 Z" unicode="é" />
<glyph horiz-adv-x="1126" d="M 1081 360 C 1071 288 1043 222 998 161 C 953 99 896 54 827 25 C 758 -3 676 -18 582 -18 C 405 -18 273 30 187 127 C 100 224 57 370 57 565 C 57 761 104 907 198 1005 C 292 1102 420 1151 580 1151 C 687 1151 778 1130 854 1090 C 930 1050 988 990 1029 910 C 1069 830 1090 718 1091 575 L 1087 469 L 303 469 C 305 418 314 373 332 335 C 350 297 369 269 391 251 C 412 233 439 220 471 210 C 503 200 540 195 582 195 C 630 195 673 201 709 213 C 745 225 775 244 799 272 C 823 300 837 329 840 360 L 1081 360 Z M 842 664 C 842 696 837 730 828 766 C 818 802 807 829 793 846 C 745 904 673 934 578 934 C 398 934 305 844 299 664 L 842 664 Z M 893 1219 L 688 1219 L 561 1374 L 432 1219 L 233 1219 L 432 1509 L 692 1509 L 893 1219 Z" unicode="ê" />
<glyph horiz-adv-x="1126" d="M 1081 360 C 1071 288 1043 222 998 161 C 953 99 896 54 827 25 C 758 -3 676 -18 582 -18 C 405 -18 273 30 187 127 C 100 224 57 370 57 565 C 57 761 104 907 198 1005 C 292 1102 420 1151 580 1151 C 687 1151 778 1130 854 1090 C 930 1050 988 990 1029 910 C 1069 830 1090 718 1091 575 L 1087 469 L 303 469 C 305 418 314 373 332 335 C 350 297 369 269 391 251 C 412 233 439 220 471 210 C 503 200 540 195 582 195 C 630 195 673 201 709 213 C 745 225 775 244 799 272 C 823 300 837 329 840 360 L 1081 360 Z M 842 664 C 842 696 837 730 828 766 C 818 802 807 829 793 846 C 745 904 673 934 578 934 C 398 934 305 844 299 664 L 842 664 Z M 859 1212 L 638 1212 L 638 1468 L 859 1468 L 859 1212 Z M 488 1212 L 267 1212 L 267 1468 L 488 1468 L 488 1212 Z" unicode="ë" />
<glyph horiz-adv-x="479" d="M 377 0 L 125 0 C 117 4 113 38 113 102 L 113 1126 L 367 1126 L 367 109 C 367 43 370 6 377 0 Z M 463 1212 L 228 1212 L 19 1507 L 287 1507 L 463 1212 Z" unicode="ì" />
<glyph horiz-adv-x="479" d="M 377 0 L 125 0 C 117 4 113 38 113 102 L 113 1126 L 367 1126 L 367 109 C 367 43 370 6 377 0 Z M 20 1212 L 194 1507 L 462 1507 L 253 1212 L 20 1212 Z" unicode="í" />
<glyph horiz-adv-x="479" d="M 377 0 L 125 0 C 117 4 113 38 113 102 L 113 1126 L 367 1126 L 367 109 C 367 43 370 6 377 0 Z M 571 1219 L 366 1219 L 239 1374 L 110 1219 L -89 1219 L 110 1509 L 370 1509 L 571 1219 Z" unicode="î" />
<glyph horiz-adv-x="479" d="M 377 0 L 125 0 C 117 4 113 38 113 102 L 113 1126 L 367 1126 L 367 109 C 367 43 370 6 377 0 Z M 537 1212 L 316 1212 L 316 1468 L 537 1468 L 537 1212 Z M 166 1212 L -55 1212 L -55 1468 L 166 1468 L 166 1212 Z" unicode="ï" />
<glyph horiz-adv-x="1184" d="M 842 1143 C 806 1122 773 1112 745 1112 C 704 1112 669 1124 640 1150 C 610 1176 592 1215 584 1268 L 668 1296 C 674 1262 683 1238 695 1225 C 707 1212 724 1206 748 1206 C 776 1206 803 1216 829 1237 C 823 1268 817 1293 811 1311 C 795 1352 769 1385 732 1409 C 694 1433 646 1446 586 1446 C 512 1446 459 1432 425 1406 C 391 1380 375 1344 375 1300 L 127 1300 C 127 1365 145 1425 181 1479 C 217 1533 269 1573 339 1601 C 408 1628 494 1642 598 1642 C 704 1642 794 1620 868 1578 C 942 1535 996 1473 1032 1393 L 1057 1337 C 1075 1349 1091 1358 1104 1362 C 1116 1366 1132 1368 1151 1368 C 1195 1366 1231 1351 1260 1321 C 1289 1291 1308 1252 1317 1204 L 1235 1171 C 1229 1207 1219 1233 1205 1249 C 1191 1264 1173 1272 1149 1272 C 1130 1272 1114 1266 1100 1256 L 1083 1243 C 1096 1188 1107 1121 1116 1043 C 1125 965 1130 899 1130 846 C 1130 740 1125 639 1117 544 C 1108 448 1097 378 1085 334 C 1017 99 850 -18 586 -18 C 462 -18 362 1 285 39 C 208 77 150 134 112 212 C 74 289 55 390 55 516 C 55 646 73 748 109 824 C 145 899 195 953 260 987 C 324 1021 408 1038 512 1038 C 664 1038 782 991 866 897 C 866 990 858 1072 842 1143 Z M 586 199 C 660 199 719 216 763 250 C 807 284 834 331 846 391 C 856 450 863 550 868 690 C 848 734 812 770 762 798 C 711 826 654 840 592 840 C 533 840 485 831 449 814 C 412 796 383 770 363 735 C 343 700 331 632 328 532 L 327 492 C 327 417 333 364 346 334 C 383 244 463 199 586 199 Z" unicode="ð" />
<glyph horiz-adv-x="1143" d="M 1051 0 L 805 0 C 801 0 798 9 797 27 C 795 45 794 94 794 174 C 793 253 793 337 793 425 L 793 721 C 793 847 727 911 596 911 C 525 911 468 892 424 854 C 380 816 358 764 358 698 L 358 0 L 106 0 L 106 1126 L 350 1126 L 350 975 C 372 1029 414 1072 474 1103 C 534 1133 607 1149 692 1149 C 809 1149 897 1120 956 1062 C 1014 1004 1044 914 1044 793 L 1044 463 C 1044 154 1046 0 1051 0 Z M 475 1318 C 445 1318 424 1309 413 1293 C 402 1277 396 1253 395 1223 L 231 1223 C 233 1310 250 1377 284 1424 C 317 1471 365 1495 428 1495 C 461 1495 488 1491 509 1483 C 530 1475 553 1460 577 1438 C 594 1421 609 1408 623 1398 C 637 1388 652 1384 669 1384 C 694 1384 713 1391 725 1406 C 737 1421 744 1447 747 1485 L 911 1483 C 904 1302 838 1212 714 1212 C 679 1212 652 1216 632 1224 C 612 1232 591 1246 571 1264 C 551 1282 534 1295 520 1304 C 505 1313 490 1318 475 1318 Z" unicode="ñ" />
<glyph horiz-adv-x="1174" d="M 1116 567 C 1116 381 1071 237 982 136 C 893 34 762 -16 588 -16 C 468 -16 368 7 288 54 C 208 101 150 169 113 258 C 75 346 57 449 57 567 C 57 689 77 793 117 881 C 157 968 217 1035 297 1081 C 377 1127 475 1151 590 1151 C 760 1151 891 1102 981 1004 C 1071 906 1116 760 1116 567 Z M 872 565 C 872 697 850 790 807 844 C 764 897 692 924 590 924 C 522 924 466 910 424 882 C 382 854 352 811 334 755 C 316 699 307 635 307 565 C 307 436 328 344 372 289 C 416 234 488 207 590 207 C 635 207 675 213 710 226 C 745 238 774 258 797 284 C 819 310 837 348 851 399 C 865 450 872 505 872 565 Z M 809 1212 L 574 1212 L 365 1507 L 633 1507 L 809 1212 Z" unicode="ò" />
<glyph horiz-adv-x="1174" d="M 1116 567 C 1116 381 1071 237 982 136 C 893 34 762 -16 588 -16 C 468 -16 368 7 288 54 C 208 101 150 169 113 258 C 75 346 57 449 57 567 C 57 689 77 793 117 881 C 157 968 217 1035 297 1081 C 377 1127 475 1151 590 1151 C 760 1151 891 1102 981 1004 C 1071 906 1116 760 1116 567 Z M 872 565 C 872 697 850 790 807 844 C 764 897 692 924 590 924 C 522 924 466 910 424 882 C 382 854 352 811 334 755 C 316 699 307 635 307 565 C 307 436 328 344 372 289 C 416 234 488 207 590 207 C 635 207 675 213 710 226 C 745 238 774 258 797 284 C 819 310 837 348 851 399 C 865 450 872 505 872 565 Z M 366 1212 L 540 1507 L 808 1507 L 599 1212 L 366 1212 Z" unicode="ó" />
<glyph horiz-adv-x="1174" d="M 1116 567 C 1116 381 1071 237 982 136 C 893 34 762 -16 588 -16 C 468 -16 368 7 288 54 C 208 101 150 169 113 258 C 75 346 57 449 57 567 C 57 689 77 793 117 881 C 157 968 217 1035 297 1081 C 377 1127 475 1151 590 1151 C 760 1151 891 1102 981 1004 C 1071 906 1116 760 1116 567 Z M 872 565 C 872 697 850 790 807 844 C 764 897 692 924 590 924 C 522 924 466 910 424 882 C 382 854 352 811 334 755 C 316 699 307 635 307 565 C 307 436 328 344 372 289 C 416 234 488 207 590 207 C 635 207 675 213 710 226 C 745 238 774 258 797 284 C 819 310 837 348 851 399 C 865 450 872 505 872 565 Z M 917 1219 L 712 1219 L 585 1374 L 456 1219 L 257 1219 L 456 1509 L 716 1509 L 917 1219 Z" unicode="ô" />
<glyph horiz-adv-x="1174" d="M 1116 567 C 1116 381 1071 237 982 136 C 893 34 762 -16 588 -16 C 468 -16 368 7 288 54 C 208 101 150 169 113 258 C 75 346 57 449 57 567 C 57 689 77 793 117 881 C 157 968 217 1035 297 1081 C 377 1127 475 1151 590 1151 C 760 1151 891 1102 981 1004 C 1071 906 1116 760 1116 567 Z M 872 565 C 872 697 850 790 807 844 C 764 897 692 924 590 924 C 522 924 466 910 424 882 C 382 854 352 811 334 755 C 316 699 307 635 307 565 C 307 436 328 344 372 289 C 416 234 488 207 590 207 C 635 207 675 213 710 226 C 745 238 774 258 797 284 C 819 310 837 348 851 399 C 865 450 872 505 872 565 Z M 491 1318 C 461 1318 440 1309 429 1293 C 418 1277 412 1253 411 1223 L 247 1223 C 249 1310 266 1377 300 1424 C 333 1471 381 1495 444 1495 C 477 1495 504 1491 525 1483 C 546 1475 569 1460 593 1438 C 610 1421 625 1408 639 1398 C 653 1388 668 1384 685 1384 C 710 1384 729 1391 741 1406 C 753 1421 760 1447 763 1485 L 927 1483 C 920 1302 854 1212 730 1212 C 695 1212 668 1216 648 1224 C 628 1232 607 1246 587 1264 C 567 1282 550 1295 536 1304 C 521 1313 506 1318 491 1318 Z" unicode="õ" />
<glyph horiz-adv-x="1174" d="M 1116 567 C 1116 381 1071 237 982 136 C 893 34 762 -16 588 -16 C 468 -16 368 7 288 54 C 208 101 150 169 113 258 C 75 346 57 449 57 567 C 57 689 77 793 117 881 C 157 968 217 1035 297 1081 C 377 1127 475 1151 590 1151 C 760 1151 891 1102 981 1004 C 1071 906 1116 760 1116 567 Z M 872 565 C 872 697 850 790 807 844 C 764 897 692 924 590 924 C 522 924 466 910 424 882 C 382 854 352 811 334 755 C 316 699 307 635 307 565 C 307 436 328 344 372 289 C 416 234 488 207 590 207 C 635 207 675 213 710 226 C 745 238 774 258 797 284 C 819 310 837 348 851 399 C 865 450 872 505 872 565 Z M 883 1212 L 662 1212 L 662 1468 L 883 1468 L 883 1212 Z M 512 1212 L 291 1212 L 291 1468 L 512 1468 L 512 1212 Z" unicode="ö" />
<glyph horiz-adv-x="1536" d="M 208 684 L 208 896 L 1328 896 L 1328 684 L 208 684 Z M 768 228 C 725 228 688 244 656 276 C 624 308 608 345 608 388 C 608 430 622 468 650 500 C 678 532 717 548 768 548 C 816 548 854 532 884 500 C 913 468 928 430 928 388 C 928 345 912 308 880 276 C 848 244 810 228 768 228 Z M 768 1028 C 725 1028 688 1044 656 1076 C 624 1108 608 1145 608 1188 C 608 1230 622 1268 650 1300 C 678 1332 717 1348 768 1348 C 816 1348 854 1332 884 1300 C 913 1268 928 1230 928 1188 C 928 1145 912 1108 880 1076 C 848 1044 810 1028 768 1028 Z" unicode="÷" />
<glyph horiz-adv-x="1174" d="M 213 104 C 157 166 117 236 93 313 C 69 390 57 475 57 567 C 57 689 77 793 117 881 C 157 968 217 1035 297 1081 C 377 1127 475 1151 590 1151 C 688 1151 776 1133 856 1098 L 907 1176 L 1055 1176 L 958 1032 L 1016 963 C 1082 861 1116 729 1116 567 C 1116 381 1071 237 983 136 C 894 34 762 -16 588 -16 C 476 -16 383 3 309 41 L 248 -49 L 111 -49 L 213 104 Z M 352 324 L 729 899 C 695 915 649 924 590 924 C 522 924 467 910 425 883 C 383 855 352 814 333 758 C 314 702 305 638 305 565 C 305 465 320 385 352 324 Z M 821 817 L 436 236 C 474 215 525 205 590 205 C 656 205 711 218 753 244 C 795 270 825 311 845 369 C 864 426 874 491 874 565 C 874 615 869 662 859 708 C 849 754 837 790 821 817 Z" unicode="ø" />
<glyph horiz-adv-x="1141" d="M 801 0 L 795 135 C 765 86 721 49 663 23 C 605 -3 535 -16 453 -16 C 341 -16 254 10 192 64 C 130 117 100 195 100 297 C 100 844 97 1120 92 1126 L 346 1126 C 350 1126 352 873 352 369 C 352 310 368 265 402 235 C 436 205 485 190 551 190 C 625 190 683 207 725 243 C 767 278 788 327 788 389 L 788 1126 L 1036 1126 L 1036 168 C 1036 74 1038 18 1042 0 L 801 0 Z M 792 1212 L 557 1212 L 348 1507 L 616 1507 L 792 1212 Z" unicode="ù" />
<glyph horiz-adv-x="1141" d="M 801 0 L 795 135 C 765 86 721 49 663 23 C 605 -3 535 -16 453 -16 C 341 -16 254 10 192 64 C 130 117 100 195 100 297 C 100 844 97 1120 92 1126 L 346 1126 C 350 1126 352 873 352 369 C 352 310 368 265 402 235 C 436 205 485 190 551 190 C 625 190 683 207 725 243 C 767 278 788 327 788 389 L 788 1126 L 1036 1126 L 1036 168 C 1036 74 1038 18 1042 0 L 801 0 Z M 349 1212 L 523 1507 L 791 1507 L 582 1212 L 349 1212 Z" unicode="ú" />
<glyph horiz-adv-x="1141" d="M 801 0 L 795 135 C 765 86 721 49 663 23 C 605 -3 535 -16 453 -16 C 341 -16 254 10 192 64 C 130 117 100 195 100 297 C 100 844 97 1120 92 1126 L 346 1126 C 350 1126 352 873 352 369 C 352 310 368 265 402 235 C 436 205 485 190 551 190 C 625 190 683 207 725 243 C 767 278 788 327 788 389 L 788 1126 L 1036 1126 L 1036 168 C 1036 74 1038 18 1042 0 L 801 0 Z M 900 1219 L 695 1219 L 568 1374 L 439 1219 L 240 1219 L 439 1509 L 699 1509 L 900 1219 Z" unicode="û" />
<glyph horiz-adv-x="1141" d="M 801 0 L 795 135 C 765 86 721 49 663 23 C 605 -3 535 -16 453 -16 C 341 -16 254 10 192 64 C 130 117 100 195 100 297 C 100 844 97 1120 92 1126 L 346 1126 C 350 1126 352 873 352 369 C 352 310 368 265 402 235 C 436 205 485 190 551 190 C 625 190 683 207 725 243 C 767 278 788 327 788 389 L 788 1126 L 1036 1126 L 1036 168 C 1036 74 1038 18 1042 0 L 801 0 Z M 866 1212 L 645 1212 L 645 1468 L 866 1468 L 866 1212 Z M 495 1212 L 274 1212 L 274 1468 L 495 1468 L 495 1212 Z" unicode="ü" />
<glyph horiz-adv-x="1124" d="M 1114 1126 L 561 -348 L 297 -348 L 432 12 L 12 1126 L 279 1126 C 457 632 554 359 569 307 C 573 322 582 352 598 397 C 613 441 699 684 856 1126 L 1114 1126 Z M 341 1212 L 515 1507 L 783 1507 L 574 1212 L 341 1212 Z" unicode="ý" />
<glyph horiz-adv-x="1184" d="M 1141 582 C 1141 452 1124 343 1091 256 C 1057 169 1006 103 936 59 C 866 14 785 -8 694 -8 C 617 -8 549 2 490 24 C 430 46 386 79 356 125 L 358 -348 L 109 -348 L 109 1632 L 354 1632 L 354 981 C 375 1032 417 1073 481 1103 C 545 1133 617 1149 698 1149 C 774 1149 839 1136 893 1112 C 947 1088 994 1049 1032 995 C 1070 941 1097 881 1115 815 C 1132 749 1141 671 1141 582 Z M 887 567 C 887 690 866 780 826 837 C 785 893 714 922 614 922 C 534 922 472 896 426 844 C 375 773 350 681 350 567 C 350 492 356 432 368 386 C 380 340 396 305 418 282 C 440 258 467 240 499 228 C 531 215 570 209 616 209 C 723 209 797 242 838 309 C 870 369 887 455 887 567 Z" unicode="þ" />
<glyph horiz-adv-x="1124" d="M 1114 1126 L 561 -348 L 297 -348 L 432 12 L 12 1126 L 279 1126 C 457 632 554 359 569 307 C 573 322 582 352 598 397 C 613 441 699 684 856 1126 L 1114 1126 Z M 858 1212 L 637 1212 L 637 1468 L 858 1468 L 858 1212 Z M 487 1212 L 266 1212 L 266 1468 L 487 1468 L 487 1212 Z" unicode="ÿ" />
<glyph horiz-adv-x="479" d="M 377 0 L 125 0 C 117 4 113 38 113 102 L 113 1126 L 367 1126 L 367 109 C 367 43 370 6 377 0 Z" unicode="ı" />
<glyph horiz-adv-x="1122" d="M 408 641 L 408 242 L 1094 242 L 1094 0 L 135 0 L 135 557 L 51 526 L 51 715 L 135 743 L 135 1622 L 408 1622 L 408 827 L 786 948 L 786 760 L 408 641 Z" unicode="Ł" />
<glyph horiz-adv-x="496" d="M 371 592 L 371 100 C 371 42 373 8 379 0 L 129 0 C 123 3 121 30 121 80 L 121 508 L 18 473 L 18 672 L 121 707 L 121 1518 C 121 1575 119 1613 115 1632 L 365 1632 C 369 1620 371 1588 371 1538 L 371 791 L 477 827 L 477 629 L 371 592 Z" unicode="ł" />
<glyph horiz-adv-x="2013" d="M 1008 1622 L 1960 1622 L 1960 1378 L 1245 1378 L 1245 938 L 1927 938 L 1927 692 L 1245 692 L 1245 244 L 1968 244 L 1968 0 L 1014 0 L 1014 76 C 982 46 938 23 882 6 C 825 -11 759 -20 684 -20 C 605 -20 532 -9 465 11 C 398 32 339 63 288 105 C 237 146 197 195 167 252 C 137 309 113 390 94 494 C 75 598 66 705 66 817 C 66 945 76 1061 97 1164 C 118 1266 154 1354 205 1427 C 256 1500 320 1554 398 1588 C 476 1622 568 1640 676 1640 C 750 1640 817 1630 875 1611 C 933 1592 978 1567 1008 1536 L 1008 1622 Z M 709 217 C 785 217 845 225 891 243 C 936 260 965 282 979 309 C 984 327 987 468 987 731 L 987 893 C 987 1120 983 1247 977 1274 C 933 1358 843 1401 707 1401 C 561 1401 462 1347 410 1241 C 390 1203 374 1141 362 1055 C 350 969 344 887 344 809 C 344 731 349 649 361 565 C 373 481 389 420 410 383 C 471 272 571 217 709 217 Z" unicode="Œ" />
<glyph horiz-adv-x="1939" d="M 1389 -18 C 1289 -18 1202 -1 1130 31 C 1058 63 1009 109 985 168 C 957 112 909 67 841 34 C 773 0 688 -16 588 -16 C 468 -16 368 7 288 54 C 208 101 150 169 113 258 C 75 346 57 449 57 567 C 57 689 77 793 117 881 C 157 968 217 1035 297 1081 C 377 1127 475 1151 590 1151 C 694 1151 781 1133 849 1098 C 917 1062 966 1017 995 961 C 1021 1020 1067 1066 1133 1100 C 1199 1134 1283 1151 1386 1151 C 1492 1151 1583 1130 1660 1090 C 1737 1049 1796 988 1837 908 C 1877 828 1898 719 1898 581 L 1894 473 L 1112 473 C 1112 435 1116 401 1124 372 C 1132 342 1145 312 1165 281 C 1185 253 1215 232 1254 217 C 1293 202 1338 195 1389 195 C 1439 195 1482 200 1518 212 C 1554 224 1583 243 1607 271 C 1631 299 1644 328 1647 360 L 1888 360 C 1870 246 1819 155 1737 86 C 1655 16 1539 -18 1389 -18 Z M 1649 655 C 1649 689 1644 725 1635 763 C 1625 801 1613 829 1599 848 C 1553 906 1482 936 1386 936 C 1320 936 1266 924 1225 900 C 1184 876 1154 843 1136 800 C 1117 757 1108 709 1108 655 L 1649 655 Z M 872 565 C 872 697 850 790 807 844 C 764 897 692 924 590 924 C 522 924 466 910 424 882 C 382 854 352 811 334 755 C 316 699 307 635 307 565 C 307 484 316 415 335 359 C 353 303 383 263 425 240 C 466 216 521 205 590 205 C 656 205 711 218 753 244 C 795 270 825 310 844 366 C 862 422 872 488 872 565 Z" unicode="œ" />
<glyph horiz-adv-x="1311" d="M 1241 430 C 1241 287 1191 176 1093 98 C 994 19 855 -20 676 -20 C 571 -20 481 -10 405 9 C 329 28 267 56 218 94 C 168 132 131 180 107 239 C 82 298 70 377 70 475 L 342 475 C 342 437 346 401 356 365 C 365 329 382 300 408 278 C 433 256 467 239 511 228 C 555 216 608 211 670 211 C 866 211 965 276 965 408 C 965 477 945 531 905 570 C 865 608 791 647 682 686 L 477 760 C 209 847 76 1001 76 1223 C 76 1356 124 1459 222 1531 C 319 1603 458 1640 639 1640 C 947 1640 1132 1531 1194 1313 C 1210 1257 1219 1203 1219 1153 L 944 1153 C 944 1201 933 1246 912 1287 C 891 1327 858 1357 814 1376 C 769 1395 709 1405 633 1405 C 537 1405 466 1390 420 1362 C 374 1333 352 1289 352 1231 C 352 1173 374 1125 418 1087 C 462 1048 539 1011 649 975 L 848 903 C 987 854 1087 792 1149 717 C 1210 641 1241 546 1241 430 Z M 325 1923 L 526 1923 L 655 1766 L 782 1923 L 985 1923 L 786 1631 L 524 1631 L 325 1923 Z" unicode="Š" />
<glyph horiz-adv-x="1081" d="M 1024 317 C 1024 93 869 -18 561 -18 C 439 -18 341 -6 268 16 C 195 39 142 75 110 123 C 77 171 61 246 61 346 L 307 346 C 307 298 310 267 318 251 C 325 235 338 223 356 213 C 374 203 401 196 436 191 C 470 186 512 184 561 184 C 636 184 691 193 727 213 C 762 232 780 264 780 309 C 780 347 762 377 726 398 C 690 418 572 454 373 504 C 267 531 191 571 145 624 C 99 677 76 750 76 842 C 76 938 115 1014 193 1069 C 271 1123 380 1151 520 1151 C 779 1151 930 1077 973 930 C 982 895 987 846 987 782 L 748 782 L 748 799 C 748 836 740 864 725 884 C 710 903 687 917 656 925 C 624 933 581 938 526 938 C 451 938 398 929 368 911 C 337 893 322 867 322 831 C 322 798 334 773 358 755 C 382 737 428 719 498 702 L 705 649 C 820 619 902 578 951 527 C 999 476 1024 406 1024 317 Z M 210 1513 L 411 1513 L 540 1356 L 667 1513 L 870 1513 L 671 1221 L 409 1221 L 210 1513 Z" unicode="š" />
<glyph horiz-adv-x="1343" d="M 1343 1622 L 799 561 L 799 0 L 526 0 L 526 559 L 4 1622 L 289 1622 L 666 829 L 1067 1622 L 1343 1622 Z M 967 1622 L 746 1622 L 746 1878 L 967 1878 L 967 1622 Z M 596 1622 L 375 1622 L 375 1878 L 596 1878 L 596 1622 Z" unicode="Ÿ" />
<glyph horiz-adv-x="1190" d="M 1155 0 L 45 0 L 45 215 L 815 1376 L 86 1376 L 86 1622 L 1135 1622 L 1135 1413 L 358 244 L 1155 244 L 1155 0 Z M 265 1923 L 466 1923 L 595 1766 L 722 1923 L 925 1923 L 726 1631 L 464 1631 L 265 1923 Z" unicode="Ž" />
<glyph horiz-adv-x="985" d="M 948 0 L 49 0 L 49 188 L 618 905 L 66 905 L 66 1126 L 926 1126 L 926 920 L 369 219 L 948 219 L 948 0 Z M 162 1513 L 363 1513 L 492 1356 L 619 1513 L 822 1513 L 623 1221 L 361 1221 L 162 1513 Z" unicode="ž" />
<glyph horiz-adv-x="848" d="M 84 -340 C 28 -340 -36 -336 -111 -328 L -111 -104 C -84 -110 -42 -113 14 -113 C 59 -111 93 -99 117 -76 C 140 -52 154 -22 158 14 L 242 913 L 84 913 L 84 1135 L 268 1135 L 289 1366 C 296 1460 330 1531 392 1579 C 454 1627 540 1651 651 1651 C 710 1651 765 1646 817 1637 L 852 1632 L 848 1419 C 788 1429 741 1434 707 1434 C 605 1431 550 1391 543 1315 L 524 1133 L 791 1133 L 791 913 L 500 913 L 414 -43 C 403 -135 370 -207 315 -260 C 260 -313 183 -340 84 -340 Z" unicode="ƒ" />
<glyph horiz-adv-x="844" d="M 754 1219 L 549 1219 L 422 1374 L 293 1219 L 94 1219 L 293 1509 L 553 1509 L 754 1219 Z" unicode="ˆ" />
<glyph horiz-adv-x="844" d="M 92 1513 L 293 1513 L 422 1356 L 549 1513 L 752 1513 L 553 1221 L 291 1221 L 92 1513 Z" unicode="ˇ" />
<glyph horiz-adv-x="844" d="M 741 1485 C 741 1403 712 1337 655 1285 C 597 1233 520 1208 424 1208 C 328 1208 250 1234 192 1286 C 133 1338 104 1405 104 1485 L 291 1485 C 291 1447 302 1415 325 1390 C 347 1364 380 1352 422 1352 C 465 1352 498 1364 520 1389 C 542 1413 553 1445 553 1485 L 741 1485 Z" unicode="˘" />
<glyph horiz-adv-x="844" d="M 528 1219 L 317 1219 L 317 1462 L 528 1462 L 528 1219 Z" unicode="˙" />
<glyph horiz-adv-x="844" d="M 422 1642 C 487 1642 543 1618 589 1572 C 635 1526 659 1470 659 1405 C 659 1339 635 1284 588 1240 C 541 1196 486 1174 422 1174 C 358 1174 303 1196 258 1240 C 212 1284 190 1339 190 1405 C 190 1470 212 1526 257 1572 C 302 1618 357 1642 422 1642 Z M 422 1501 C 397 1501 376 1491 359 1473 C 342 1454 334 1431 334 1405 C 334 1380 342 1358 360 1338 C 378 1318 398 1309 422 1309 C 444 1309 465 1318 484 1338 C 502 1358 512 1380 512 1405 C 512 1431 503 1454 485 1473 C 467 1491 446 1501 422 1501 Z" unicode="˚" />
<glyph horiz-adv-x="885" d="M 406 -184 C 406 -205 418 -225 444 -243 C 469 -261 507 -273 557 -279 L 557 -381 C 446 -370 366 -347 316 -313 C 266 -278 242 -235 242 -184 C 242 -130 265 -87 311 -56 C 357 -24 423 -6 508 0 L 528 -78 C 446 -96 406 -132 406 -184 Z" unicode="˛" />
<glyph horiz-adv-x="844" d="M 326 1318 C 296 1318 275 1309 264 1293 C 253 1277 247 1253 246 1223 L 82 1223 C 84 1310 101 1377 135 1424 C 168 1471 216 1495 279 1495 C 312 1495 339 1491 360 1483 C 381 1475 404 1460 428 1438 C 445 1421 460 1408 474 1398 C 488 1388 503 1384 520 1384 C 545 1384 564 1391 576 1406 C 588 1421 595 1447 598 1485 L 762 1483 C 755 1302 689 1212 565 1212 C 530 1212 503 1216 483 1224 C 463 1232 442 1246 422 1264 C 402 1282 385 1295 371 1304 C 356 1313 341 1318 326 1318 Z" unicode="˜" />
<glyph horiz-adv-x="844" d="M 455 1212 L 600 1507 L 809 1507 L 631 1212 L 455 1212 Z M 168 1212 L 315 1507 L 526 1507 L 346 1212 L 168 1212 Z" unicode="˝" />
<glyph horiz-adv-x="844" d="M 721 1249 L 125 1249 L 125 1405 L 721 1405 L 721 1249 Z" unicode="̄" />
<glyph horiz-adv-x="1536" d="M 76 0 L 652 1536 L 884 1536 L 1456 0 L 76 0 Z M 352 148 L 1164 148 L 752 1256 L 352 148 Z" unicode="Δ" />
<glyph horiz-adv-x="1664" d="M 832 1376 C 706 1376 599 1328 510 1234 C 420 1139 376 1006 376 836 C 376 673 405 538 464 432 C 522 325 609 241 724 180 L 724 0 L 88 0 L 88 196 L 536 196 C 456 225 378 295 304 406 C 229 516 192 664 192 848 C 192 1024 247 1184 358 1330 C 468 1475 626 1548 832 1548 C 1037 1548 1195 1478 1306 1338 C 1416 1198 1472 1034 1472 848 C 1472 664 1434 516 1360 406 C 1285 295 1208 225 1128 196 L 1576 196 L 1576 0 L 940 0 L 940 180 C 1054 241 1141 325 1200 432 C 1258 538 1288 673 1288 836 C 1288 974 1246 1099 1162 1210 C 1078 1320 968 1376 832 1376 Z" unicode="Ω" />
<glyph horiz-adv-x="1408" d="M 252 -424 C 214 -424 186 -413 168 -392 C 149 -370 140 -333 140 -280 C 140 -176 145 -49 156 100 C 166 233 172 309 172 328 L 176 356 L 176 1176 L 368 1176 L 368 320 C 368 258 395 210 450 176 C 504 141 564 124 628 124 C 716 124 792 146 858 190 C 923 234 973 297 1008 380 L 1008 1176 L 1200 1176 L 1200 308 L 1220 0 L 1056 0 L 1020 176 C 974 104 913 50 836 14 C 758 -22 670 -40 572 -40 C 537 -40 494 -31 444 -14 C 393 3 353 28 324 60 C 324 1 333 -56 352 -112 C 370 -168 380 -218 380 -264 C 380 -370 337 -424 252 -424 Z" unicode="μ" />
<glyph horiz-adv-x="1408" d="M 296 0 L 296 1028 L 12 1028 L 12 1176 L 1316 1176 L 1316 1028 L 996 1028 L 996 344 C 996 266 1011 213 1042 184 C 1072 154 1109 140 1152 140 C 1184 140 1210 140 1232 142 C 1253 143 1274 148 1296 156 L 1296 28 C 1264 12 1234 0 1206 -6 C 1178 -12 1138 -16 1088 -16 C 1002 -16 935 10 886 64 C 836 117 812 208 812 336 L 812 1028 L 484 1028 L 484 0 L 296 0 Z" unicode="π" />
<glyph horiz-adv-x="909" d="M 866 575 L 45 575 L 45 823 L 866 823 L 866 575 Z" unicode="–" />
<glyph horiz-adv-x="1280" d="M 1184 575 L 94 575 L 94 825 L 1184 825 L 1184 575 Z" unicode="—" />
<glyph horiz-adv-x="436" d="M 373 1409 L 373 1067 L 74 1067 L 74 1417 L 258 1642 L 383 1559 L 301 1415 L 311 1409 L 373 1409 Z" unicode="‘" />
<glyph horiz-adv-x="436" d="M 68 1282 L 68 1626 L 369 1626 L 369 1274 L 182 1051 L 57 1133 L 141 1276 L 129 1282 L 68 1282 Z" unicode="’" />
<glyph horiz-adv-x="436" d="M 68 0 L 68 342 L 369 342 L 369 -4 L 182 -233 L 57 -152 L 141 -4 L 129 0 L 68 0 Z" unicode="‚" />
<glyph horiz-adv-x="827" d="M 756 1399 L 756 1067 L 471 1067 L 471 1405 L 655 1642 L 780 1559 L 688 1405 L 696 1399 L 756 1399 Z M 362 1399 L 362 1067 L 76 1067 L 76 1405 L 262 1642 L 385 1559 L 293 1405 L 301 1399 L 362 1399 Z" unicode="“" />
<glyph horiz-adv-x="827" d="M 475 1294 L 475 1626 L 762 1626 L 762 1286 L 575 1051 L 453 1133 L 547 1288 L 535 1294 L 475 1294 Z M 80 1294 L 80 1626 L 369 1626 L 369 1286 L 180 1051 L 57 1133 L 152 1288 L 141 1294 L 80 1294 Z" unicode="”" />
<glyph horiz-adv-x="827" d="M 475 0 L 475 332 L 762 332 L 762 -6 L 575 -244 L 453 -162 L 547 -4 L 535 0 L 475 0 Z M 80 0 L 80 332 L 369 332 L 369 -6 L 180 -244 L 57 -162 L 152 -4 L 141 0 L 80 0 Z" unicode="„" />
<glyph horiz-adv-x="772" d="M 743 846 L 516 846 L 516 -2 L 383 -223 L 258 -2 L 258 846 L 27 846 L 27 1077 L 260 1077 C 258 1094 257 1136 257 1202 L 257 1291 L 262 1626 L 510 1626 L 516 1201 L 514 1077 L 743 1077 L 743 846 Z" unicode="†" />
<glyph horiz-adv-x="772" d="M 516 723 L 731 723 L 731 520 L 518 520 L 518 -2 L 387 -223 L 264 -2 L 264 520 L 41 520 L 41 723 L 264 723 L 264 940 L 41 940 L 41 1145 L 264 1145 L 262 1338 L 262 1626 L 518 1626 L 518 1145 L 731 1145 L 731 940 L 516 940 L 516 723 Z" unicode="‡" />
<glyph horiz-adv-x="778" d="M 391 545 C 336 545 289 564 251 603 C 212 641 193 688 193 743 C 193 799 212 847 250 887 C 288 926 335 946 391 946 C 448 946 496 926 534 886 C 572 846 592 798 592 743 C 592 689 572 643 533 604 C 494 564 447 545 391 545 Z" unicode="•" />
<glyph horiz-adv-x="1741" d="M 1599 0 L 1296 0 L 1296 348 L 1599 348 L 1599 0 Z M 1020 0 L 717 0 L 717 348 L 1020 348 L 1020 0 Z M 440 0 L 139 0 L 139 348 L 440 348 L 440 0 Z" unicode="…" />
<glyph horiz-adv-x="2626" d="M 856 1161 C 856 1055 819 969 747 903 C 674 836 580 803 465 803 C 347 803 252 836 180 902 C 108 968 72 1055 72 1161 L 72 1290 C 72 1402 107 1489 177 1553 C 247 1617 343 1649 465 1649 C 545 1649 615 1633 674 1602 C 732 1571 777 1528 809 1474 C 840 1420 856 1358 856 1290 L 856 1161 Z M 1405 1587 L 520 0 L 362 0 L 1251 1587 L 1405 1587 Z M 2572 340 C 2572 227 2536 139 2466 76 C 2395 13 2298 -18 2175 -18 C 2098 -18 2030 -2 1972 28 C 1913 58 1867 101 1835 156 C 1802 211 1786 272 1786 340 L 1786 471 C 1786 538 1802 599 1834 654 C 1866 709 1912 752 1972 783 C 2031 813 2100 829 2179 829 C 2257 829 2325 813 2385 781 C 2445 749 2491 705 2523 650 C 2555 594 2572 535 2572 471 L 2572 340 Z M 1724 340 C 1724 227 1688 139 1618 76 C 1547 13 1449 -18 1325 -18 C 1209 -18 1116 15 1045 82 C 973 149 938 235 938 340 L 938 471 C 938 538 954 599 986 654 C 1018 709 1064 752 1124 783 C 1183 813 1252 829 1331 829 C 1409 829 1478 813 1537 781 C 1596 749 1642 706 1675 650 C 1707 594 1724 535 1724 471 L 1724 340 Z M 655 1169 L 655 1284 C 655 1332 636 1374 600 1408 C 564 1442 519 1460 465 1460 C 403 1460 355 1443 321 1411 C 287 1379 270 1336 270 1284 L 270 1171 C 270 1117 288 1072 324 1037 C 360 1002 408 985 467 985 C 523 985 568 1002 603 1037 C 637 1071 655 1115 655 1169 Z M 2372 352 L 2372 465 C 2372 513 2354 555 2318 589 C 2282 623 2235 641 2179 641 C 2120 641 2073 625 2039 593 C 2004 561 1987 518 1987 465 L 1987 352 C 1987 300 2004 256 2040 220 C 2075 184 2121 166 2179 166 C 2239 166 2287 182 2321 216 C 2355 249 2372 294 2372 352 Z M 1524 352 L 1524 465 C 1524 512 1506 553 1470 588 C 1434 623 1388 641 1331 641 C 1272 641 1225 625 1191 593 C 1156 561 1139 518 1139 465 L 1139 352 C 1139 300 1156 256 1192 220 C 1227 184 1273 166 1331 166 C 1392 166 1439 182 1473 215 C 1507 248 1524 294 1524 352 Z" unicode="‰" />
<glyph horiz-adv-x="584" d="M 547 223 L 43 635 L 43 807 L 547 1221 L 547 956 L 246 725 L 547 489 L 547 223 Z" unicode="‹" />
<glyph horiz-adv-x="584" d="M 39 223 L 39 489 L 342 725 L 39 956 L 39 1221 L 545 807 L 545 635 L 39 223 Z" unicode="›" />
<glyph horiz-adv-x="381" d="M 602 1622 L -98 0 L -219 0 L 477 1622 L 602 1622 Z" unicode="⁄" />
<glyph horiz-adv-x="1325" d="M 440 840 L 440 780 L 893 780 L 893 625 L 444 625 C 450 513 457 442 463 412 C 486 278 573 211 723 211 C 810 211 874 232 915 275 C 955 317 979 382 987 469 L 993 547 L 1262 547 C 1255 460 1248 401 1241 371 C 1212 238 1154 140 1068 77 C 982 13 866 -18 721 -18 C 568 -18 451 13 369 75 C 287 137 231 237 201 373 C 190 418 180 502 172 625 L 27 625 L 27 780 L 168 780 L 168 840 L 27 840 L 27 993 L 170 993 C 173 1108 181 1195 193 1253 C 216 1379 273 1475 364 1541 C 455 1607 575 1640 723 1640 C 871 1640 991 1605 1084 1537 C 1177 1468 1233 1374 1251 1255 C 1259 1203 1264 1136 1268 1055 L 995 1055 L 992 1136 C 988 1228 963 1296 918 1340 C 872 1384 807 1407 721 1407 C 641 1407 580 1388 536 1351 C 492 1314 467 1264 459 1200 C 456 1184 451 1115 444 993 L 893 993 L 893 840 L 440 840 Z" unicode="€" />
<glyph horiz-adv-x="1341" d="M 676 414 C 492 414 345 459 235 550 C 125 640 68 763 63 918 L 61 1021 L 61 1087 C 61 1262 116 1398 226 1495 C 336 1591 485 1640 674 1640 C 852 1640 995 1596 1103 1508 C 1211 1420 1270 1300 1282 1147 L 1285 1038 L 1282 918 C 1275 763 1218 640 1111 550 C 1003 459 858 414 676 414 Z M 1195 988 L 1195 1097 C 1195 1243 1149 1355 1057 1433 C 965 1511 838 1550 674 1550 C 513 1550 387 1514 296 1443 C 204 1372 156 1272 150 1143 L 149 1091 L 149 1032 L 150 942 C 154 800 201 691 293 615 C 385 538 512 500 674 500 C 784 500 879 518 958 555 C 1036 591 1095 645 1135 716 C 1175 787 1195 878 1195 988 Z M 559 905 L 559 662 L 367 662 L 367 1370 L 752 1370 C 840 1370 907 1350 954 1311 C 1000 1271 1024 1215 1026 1141 C 1026 1098 1017 1057 999 1018 C 981 979 953 950 914 932 C 875 914 832 905 786 905 L 559 905 Z M 831 1130 C 831 1142 828 1156 822 1170 C 816 1184 808 1196 797 1204 C 786 1212 764 1217 731 1217 L 559 1217 L 559 1044 L 733 1044 C 754 1044 771 1045 783 1049 C 795 1053 805 1061 815 1073 C 825 1083 831 1102 831 1130 Z" unicode="℗" />
<glyph horiz-adv-x="1642" d="M 1386 1040 L 1386 1372 C 1386 1428 1359 1456 1305 1456 C 1277 1456 1255 1446 1239 1426 C 1222 1406 1214 1380 1214 1350 L 1214 1040 L 1018 1040 L 1018 1380 C 1018 1405 1010 1424 995 1437 C 980 1449 961 1456 938 1456 C 910 1456 887 1444 869 1422 C 851 1400 842 1374 842 1346 L 842 1040 L 645 1040 L 645 1632 L 840 1632 L 840 1538 C 850 1569 873 1594 909 1613 C 944 1632 985 1642 1032 1642 C 1079 1642 1116 1632 1142 1612 C 1168 1592 1186 1566 1194 1534 C 1204 1568 1227 1594 1262 1613 C 1296 1632 1339 1642 1389 1642 C 1451 1642 1499 1625 1535 1593 C 1571 1560 1589 1516 1589 1460 L 1589 1040 L 1386 1040 Z M 592 1456 L 381 1456 L 381 1284 C 381 1230 411 1204 471 1204 L 557 1204 L 557 1042 C 551 1040 524 1038 476 1036 C 428 1033 402 1032 399 1034 C 337 1034 289 1049 253 1081 C 217 1113 199 1155 199 1208 L 199 1456 L 14 1456 L 14 1632 L 592 1632 L 592 1456 Z" unicode="™" />
<glyph horiz-adv-x="1664" d="M 832 1376 C 706 1376 599 1328 510 1234 C 420 1139 376 1006 376 836 C 376 673 405 538 464 432 C 522 325 609 241 724 180 L 724 0 L 88 0 L 88 196 L 536 196 C 456 225 378 295 304 406 C 229 516 192 664 192 848 C 192 1024 247 1184 358 1330 C 468 1475 626 1548 832 1548 C 1037 1548 1195 1478 1306 1338 C 1416 1198 1472 1034 1472 848 C 1472 664 1434 516 1360 406 C 1285 295 1208 225 1128 196 L 1576 196 L 1576 0 L 940 0 L 940 180 C 1054 241 1141 325 1200 432 C 1258 538 1288 673 1288 836 C 1288 974 1246 1099 1162 1210 C 1078 1320 968 1376 832 1376 Z" unicode="Ω" />
<glyph horiz-adv-x="1280" d="M 476 -32 C 342 -32 239 5 166 80 C 92 154 56 248 56 360 C 56 506 108 636 214 750 C 319 863 449 920 604 920 C 668 920 734 908 802 886 C 870 863 924 840 964 816 C 972 872 976 928 976 984 C 976 1109 953 1207 908 1278 C 862 1348 800 1384 720 1384 C 634 1384 567 1374 518 1356 C 468 1337 418 1312 368 1280 L 324 1444 C 374 1473 430 1498 492 1518 C 553 1538 629 1548 720 1548 C 877 1548 992 1496 1064 1394 C 1136 1291 1172 1149 1172 968 C 1172 690 1104 454 968 260 C 832 65 668 -32 476 -32 Z M 488 128 C 716 128 868 313 944 684 C 922 705 882 726 824 748 C 765 769 706 780 648 780 C 520 780 424 738 360 654 C 296 570 264 476 264 372 C 264 300 282 241 318 196 C 354 150 410 128 488 128 Z" unicode="∂" />
<glyph horiz-adv-x="1536" d="M 76 0 L 652 1536 L 884 1536 L 1456 0 L 76 0 Z M 352 148 L 1164 148 L 752 1256 L 352 148 Z" unicode="∆" />
<glyph horiz-adv-x="1536" d="M 332 0 L 332 1348 L 80 1348 L 80 1524 L 1456 1524 L 1456 1348 L 1212 1348 L 1212 0 L 1004 0 L 1004 1356 L 540 1356 L 540 0 L 332 0 Z" unicode="∏" />
<glyph horiz-adv-x="1152" d="M 1084 1524 L 1084 1344 L 332 1344 L 796 784 L 304 188 L 1080 188 L 1080 0 L 40 0 L 40 172 L 560 788 L 68 1380 L 68 1524 L 1084 1524 Z" unicode="∑" />
<glyph horiz-adv-x="1059" d="M 989 674 L 66 674 L 66 885 L 989 885 L 989 674 Z" unicode="−" />
<glyph horiz-adv-x="381" d="M 602 1622 L -98 0 L -219 0 L 477 1622 L 602 1622 Z" unicode="∕" />
<glyph horiz-adv-x="578" d="M 446 633 L 133 633 L 133 981 L 446 981 L 446 633 Z" unicode="∙" />
<glyph horiz-adv-x="1356" d="M 1339 1626 L 702 -39 L 381 -39 L 23 659 L 293 659 L 532 184 L 1067 1626 L 1339 1626 Z" unicode="√" />
<glyph horiz-adv-x="1536" d="M 1072 396 C 1000 396 939 411 890 441 C 841 471 800 521 767 591 C 729 531 682 483 626 448 C 569 413 507 396 440 396 C 336 396 252 433 190 508 C 127 582 96 682 96 808 C 96 925 133 1022 208 1100 C 282 1177 369 1216 468 1216 C 540 1216 601 1201 653 1172 C 704 1143 747 1096 781 1030 C 851 1154 957 1216 1100 1216 C 1198 1216 1280 1181 1346 1112 C 1411 1042 1444 945 1444 820 C 1444 700 1409 599 1340 518 C 1270 436 1181 396 1072 396 Z M 472 1048 C 408 1048 356 1026 316 982 C 276 938 256 874 256 792 C 256 709 271 648 302 610 C 332 571 381 552 448 552 C 565 552 649 636 700 806 C 674 895 643 958 606 994 C 569 1030 524 1048 472 1048 Z M 1072 556 C 1128 556 1176 579 1218 626 C 1259 672 1280 736 1280 816 C 1280 882 1264 940 1234 988 C 1203 1036 1152 1060 1080 1060 C 1024 1060 979 1041 946 1004 C 912 967 880 900 850 803 C 858 702 883 636 925 604 C 966 572 1015 556 1072 556 Z" unicode="∞" />
<glyph horiz-adv-x="1152" d="M -8 -392 L 56 -260 C 96 -273 132 -280 164 -280 C 196 -280 222 -268 242 -246 C 262 -223 277 -178 288 -112 L 516 1224 C 553 1437 674 1544 880 1544 C 941 1544 995 1536 1042 1522 C 1088 1507 1125 1492 1152 1476 L 1088 1304 C 1008 1354 935 1380 868 1380 C 806 1380 760 1360 730 1322 C 699 1283 680 1238 672 1188 L 448 -224 C 434 -296 402 -348 350 -382 C 298 -415 240 -432 176 -432 C 136 -432 99 -428 66 -420 C 32 -412 8 -402 -8 -392 Z" unicode="∫" />
<glyph horiz-adv-x="1536" d="M 236 400 C 230 429 228 456 228 480 C 228 546 248 604 288 652 C 328 700 390 724 476 724 C 542 724 600 714 650 696 C 699 677 745 659 788 642 C 830 624 872 610 912 598 C 952 586 988 580 1020 580 C 1070 580 1106 590 1128 610 C 1149 630 1160 654 1160 684 L 1156 716 L 1300 716 C 1305 686 1308 660 1308 636 C 1308 569 1288 512 1248 464 C 1208 416 1145 392 1060 392 C 993 392 935 400 886 418 C 836 435 790 452 748 470 C 705 487 664 501 624 512 C 584 522 548 528 516 528 C 465 528 429 518 408 500 C 386 481 376 458 376 432 L 380 400 L 236 400 Z M 236 860 C 230 889 228 916 228 940 C 228 1006 248 1064 288 1112 C 328 1160 390 1184 476 1184 C 542 1184 600 1174 650 1156 C 699 1137 745 1119 788 1102 C 830 1084 872 1070 912 1058 C 952 1046 988 1040 1020 1040 C 1070 1040 1106 1050 1128 1070 C 1149 1090 1160 1114 1160 1144 L 1156 1176 L 1300 1176 C 1305 1146 1308 1120 1308 1096 C 1308 1029 1288 972 1248 924 C 1208 876 1145 852 1060 852 C 993 852 935 860 886 878 C 836 895 790 912 748 930 C 705 947 664 961 624 972 C 584 982 548 988 516 988 C 465 988 429 978 408 960 C 386 941 376 918 376 892 L 380 860 L 236 860 Z" unicode="≈" />
<glyph horiz-adv-x="1536" d="M 212 976 L 212 1176 L 900 1176 L 996 1356 L 1168 1356 L 1072 1176 L 1328 1176 L 1328 976 L 966 976 L 768 604 L 1328 604 L 1328 404 L 662 404 L 548 188 L 372 188 L 487 404 L 212 404 L 212 604 L 594 604 L 793 976 L 212 976 Z" unicode="≠" />
<glyph horiz-adv-x="1536" d="M 1348 236 L 208 708 L 208 872 L 1348 1344 L 1348 1128 L 448 792 L 1348 452 L 1348 236 Z M 212 24 L 212 216 L 1348 216 L 1348 24 L 212 24 Z" unicode="≤" />
<glyph horiz-adv-x="1536" d="M 212 236 L 212 452 L 1112 792 L 212 1128 L 212 1344 L 1352 872 L 1352 708 L 212 236 Z M 212 24 L 212 216 L 1348 216 L 1348 24 L 212 24 Z" unicode="≥" />
<glyph horiz-adv-x="1152" d="M 472 -48 L 68 756 L 472 1560 L 656 1560 L 1084 756 L 656 -48 L 472 -48 Z M 556 152 L 876 768 L 572 1356 L 252 740 L 556 152 Z" unicode="◊" />
<glyph horiz-adv-x="1001" d="M 705 1036 L 768 1118 C 776 1129 784 1135 794 1135 C 805 1135 814 1130 822 1120 C 829 1110 833 1099 833 1089 C 833 1073 825 1065 809 1063 C 779 1058 745 1049 705 1036 Z M 297 1028 C 255 1041 220 1050 193 1055 C 177 1057 169 1066 169 1080 C 169 1092 173 1102 181 1112 C 189 1122 198 1127 209 1127 C 217 1127 225 1121 233 1110 C 237 1103 259 1076 297 1028 Z M 469 1434 L 10 1434 L 10 1628 L 991 1628 L 991 1434 L 530 1434 L 535 1065 C 594 1055 643 1028 682 983 C 721 937 741 885 741 825 C 741 763 720 710 680 664 C 639 618 590 592 532 586 L 528 223 L 991 223 L 991 10 L 10 10 L 10 223 L 467 223 L 465 586 C 407 594 358 620 319 666 C 279 711 260 764 260 825 C 260 884 279 936 319 982 C 358 1028 407 1055 467 1065 L 469 1434 Z M 707 629 C 747 615 781 606 811 602 C 826 599 834 590 834 576 C 834 564 830 554 822 544 C 814 534 805 530 795 530 C 786 530 778 535 770 547 L 707 629 Z M 283 616 L 249 574 L 219 535 C 211 523 202 518 193 518 C 181 518 172 523 165 533 C 157 543 154 553 154 564 C 154 579 162 588 178 590 C 209 594 244 603 283 616 Z M 530 999 L 530 903 L 498 834 L 469 903 L 469 999 C 427 991 393 970 365 937 C 337 904 324 867 324 825 C 324 783 337 745 365 713 C 392 681 426 661 467 653 L 467 750 L 498 817 L 528 750 L 528 653 C 570 661 606 681 634 713 C 662 745 676 782 676 825 C 676 866 662 903 634 937 C 606 970 572 991 530 999 Z" unicode="" />
<glyph horiz-adv-x="1341" d="M 438 905 L 438 0 L 186 0 L 186 905 L 25 905 L 25 1126 L 186 1126 L 186 1346 C 186 1444 213 1519 267 1569 C 321 1619 398 1645 498 1645 C 515 1645 533 1644 553 1643 C 572 1642 623 1638 705 1632 L 705 1419 L 647 1424 L 578 1427 C 483 1427 436 1386 436 1305 L 436 1122 L 807 1122 L 807 1315 C 807 1418 834 1499 889 1557 C 944 1615 1020 1645 1116 1645 C 1132 1645 1149 1644 1168 1644 C 1186 1643 1237 1639 1321 1632 L 1321 1419 C 1273 1424 1230 1427 1194 1427 C 1101 1427 1055 1388 1055 1311 L 1055 1122 L 1319 1122 L 1319 905 L 1059 905 L 1059 0 L 807 0 L 807 905 L 438 905 Z" unicode="ﬀ" />
<glyph horiz-adv-x="1212" d="M 817 909 L 442 909 L 442 0 L 190 0 L 190 905 L 25 905 L 25 1126 L 190 1126 L 190 1346 C 190 1442 217 1516 273 1568 C 328 1619 408 1645 514 1645 C 530 1645 548 1644 566 1644 C 584 1643 635 1639 719 1632 L 719 1419 C 686 1426 643 1430 590 1430 C 490 1430 440 1386 440 1298 L 440 1122 L 1071 1122 L 1071 109 C 1071 44 1075 8 1083 0 L 831 0 C 821 12 817 46 817 102 L 817 909 Z" unicode="ﬁ" />
<glyph horiz-adv-x="1214" d="M 25 905 L 25 1126 L 186 1126 L 186 1346 C 186 1443 213 1517 267 1568 C 321 1619 398 1645 498 1645 C 537 1645 609 1640 713 1632 L 713 1419 C 679 1426 633 1430 575 1430 C 482 1430 436 1391 436 1313 L 436 1122 L 705 1122 L 705 905 L 440 905 L 440 0 L 186 0 L 186 905 L 25 905 Z M 1081 0 L 831 0 C 821 3 817 30 817 80 L 817 1518 C 817 1546 815 1584 811 1632 L 1061 1632 C 1065 1614 1067 1582 1067 1538 L 1067 100 C 1067 39 1071 6 1081 0 Z" unicode="ﬂ" />
<glyph horiz-adv-x="1831" d="M 1432 907 L 1059 907 L 1059 0 L 807 0 L 807 909 L 438 909 L 438 0 L 186 0 L 186 905 L 25 905 L 25 1126 L 186 1126 L 186 1346 C 186 1444 213 1519 267 1569 C 321 1619 398 1645 498 1645 C 515 1645 533 1644 553 1643 C 572 1642 623 1638 705 1632 L 705 1419 L 647 1424 L 578 1427 C 483 1427 436 1386 436 1305 L 436 1122 L 807 1122 L 807 1315 C 807 1418 834 1499 889 1557 C 944 1615 1020 1645 1116 1645 C 1132 1645 1149 1644 1168 1644 C 1186 1643 1237 1639 1321 1632 L 1321 1419 C 1273 1424 1230 1427 1194 1427 C 1101 1427 1055 1388 1055 1311 L 1055 1122 L 1686 1122 L 1686 109 C 1686 45 1691 8 1702 0 L 1452 0 C 1438 4 1432 38 1432 102 L 1432 907 Z" unicode="ﬃ" />
<glyph horiz-adv-x="1833" d="M 438 907 L 438 0 L 186 0 L 186 905 L 25 905 L 25 1126 L 186 1126 L 186 1346 C 186 1444 213 1519 267 1569 C 321 1619 398 1645 498 1645 C 515 1645 533 1644 553 1643 C 572 1642 623 1638 705 1632 L 705 1419 L 647 1424 L 578 1427 C 483 1427 436 1386 436 1305 L 436 1122 L 807 1122 L 807 1315 C 807 1418 834 1499 889 1557 C 944 1615 1020 1645 1116 1645 C 1155 1645 1227 1640 1331 1632 L 1331 1419 L 1307 1421 L 1194 1427 C 1101 1427 1055 1388 1055 1311 L 1055 1122 L 1323 1122 L 1323 905 L 1059 905 L 1059 0 L 807 0 L 807 907 L 438 907 Z M 1700 0 L 1450 0 C 1440 3 1436 30 1436 80 L 1436 1518 C 1436 1578 1434 1616 1430 1632 L 1679 1632 C 1683 1611 1686 1580 1686 1538 L 1686 100 C 1686 39 1690 6 1700 0 Z" unicode="ﬄ" />
</font>
</defs>
</svg>
