<?xml version="1.0" encoding="utf-8"?>
<!-- Generator: Adobe Illustrator 16.2.1, SVG Export Plug-In . SVG Version: 6.00 Build 0)  -->
<!DOCTYPE svg PUBLIC "-//W3C//DTD SVG 1.1//EN" "http://www.w3.org/Graphics/SVG/1.1/DTD/svg11.dtd">
<svg version="1.1" id="Layer_1" xmlns="http://www.w3.org/2000/svg" xmlns:xlink="http://www.w3.org/1999/xlink" x="0px" y="0px"
   width="561px" height="119px" viewBox="0 0 561 119" enable-background="new 0 0 561 119" xml:space="preserve">
<g>
  <g>
    <path fill="#00B3E3" d="M185.42,53.757c0.104-1.009,0.244-2.012,0.413-3.007h-1.603h-26.999v23.123c0,0,9.715,0,12.525,0
      c0,0.564-6.423,6.805-16.058,6.805c-10.601,0-22.602-8.369-22.843-21.778c-0.249-13.893,11.77-22.996,22.843-22.601
      c8.992,0.32,12.425,2.891,17.443,7.826c0,0,7.251,0.006,14.627,0.012c0.562,0,1.126,0,1.687,0.002
      c1.572-4.869,3.92-9.468,6.922-13.623c-0.309-0.438-0.624-0.877-0.954-1.315c-7.375-9.812-20.185-19.774-40.086-19.8
      c-23.389-0.03-41.437,15.608-47.391,34.747c-0.07,0.231-0.141,0.461-0.208,0.694c-0.003,0.012-0.007,0.023-0.011,0.037
      c-1.225,4.28-1.881,8.8-1.883,13.47c0.044,4.47,0.625,8.749,1.681,12.788c3.757,13.967,13.53,25.492,26.398,31.676
      c0.104,0.049,0.208,0.1,0.313,0.146c0.065,0.033,0.131,0.061,0.197,0.092c6.496,2.955,13.788,4.6,21.537,4.66
      c16.426-0.135,30.951-8.178,39.904-20.479c0.187-0.258,0.364-0.521,0.546-0.779c-4.582-6.596-7.567-14.15-8.617-21.838
      C185.803,64.615,185.077,61.141,185.42,53.757z"/>
    <path fill="#E2231A" d="M277.021,87.533c0,0,9.121-11.902,9.158-27.414c0.073-30.467-21.266-50.253-51.036-50.3
      c-17.246-0.028-31.875,8.389-40.766,20.697c3.685,5.229,5.842,10.286,6.711,13.63c-0.766,0-7.031-0.004-13.633-0.007
      c-0.697,2.155-1.24,4.365-1.623,6.611h16.836c0.389,2.485,0.592,5.033,0.592,7.627c0,10.436-3.273,20.105-8.842,28.076
      c8.671,12.48,23.065,21.523,40.897,21.525c11.834,0.002,20.203-5.049,21.719-5.852l3.133,4.139h30.311L277.021,87.533z
       M258.572,65.33l-2.587-3.494h-30.751l12.504,18.059c-13.014,2.555-25.308-8.346-25.129-21.007
      c0.183-12.937,10.623-22.625,23.109-22.543C249.424,36.436,263.097,51.216,258.572,65.33z"/>
    <path fill="#790000" d="M201.089,44.146c-0.87-3.344-3.026-8.4-6.711-13.63c-3.002,4.155-5.35,8.754-6.922,13.623
      C194.059,44.142,200.324,44.146,201.089,44.146z"/>
    <path fill="#790000" d="M202.67,50.75h-16.836c-0.169,0.995-0.309,1.998-0.413,3.007c-0.344,7.384,0.383,10.858,0.383,10.858
      c1.05,7.688,4.035,15.242,8.617,21.838c5.569-7.971,8.842-17.641,8.842-28.076C203.262,55.783,203.059,53.235,202.67,50.75z"/>
  </g>
  <g>
    <path fill="#010101" d="M26.957,104.342l-1.158-1.791c-0.231,1.158-3.011,2.316-5.674,2.316c-5.559,0-9.264-2.842-9.496-9.789
      c-0.116-2.105-0.231-25.16-0.231-32.951c0-7.79-0.116-24.001,0-30.738c0.116-7.158,3.589-11.686,10.074-11.686
      c6.948,0,9.264,4.632,9.496,9.369c0.116,4.422,0,16.423,0,16.423h-5.095V30.968c0-4.527-1.621-6.316-4.4-6.316
      c-2.663,0-4.748,2.105-4.748,6.947c0,4.843-0.116,25.16-0.116,30.739c0,3.791,0.116,28.318,0.116,32.002
      c0,4.105,1.39,6.422,4.748,6.422c2.895,0,4.748-2,4.748-6V65.076h-6.253v-4.527h11.232v43.793H26.957z"/>
    <path fill="#010101" d="M42.243,104.342V20.124h17.949v4.527H47.338v34.845h11.117v4.422H47.338v35.896h12.97v4.527H42.243z"/>
    <path fill="#010101" d="M80.57,24.651v79.69h-5.095v-79.69h-7.875v-4.527h20.96v4.527H80.57z"/>
    <path fill="#010101" d="M311.824,104.342V20.124h17.948v4.527h-12.854v34.845h11.117v4.422h-11.117v35.896h12.97v4.527H311.824z"
      />
    <path fill="#010101" d="M352.122,104.342h-6.137l-9.148-84.218h5.211l7.063,71.796l6.948-71.796h5.095L352.122,104.342z"/>
    <path fill="#010101" d="M371.692,104.342V20.124h17.948v4.527h-12.854v34.845h11.117v4.422h-11.117v35.896h12.97v4.527H371.692z"
      />
    <path fill="#010101" d="M417.55,56.548c-0.927,2.316-2.2,4.632-3.821,5.159l7.411,42.635h-5.559l-6.716-41.162l-3.821,0.105
      v41.057h-4.979V20.124h8.569c6.253,0,8.916,3.79,9.727,9.686c0.463,3.579,0.695,6.316,0.695,12.632
      C419.056,49.39,418.36,54.548,417.55,56.548z M413.149,30.757c-0.348-3.474-1.853-6-4.516-6h-3.475c0,0,0,31.791,0,34.002
      c0,0,2.663,0,3.821-0.211c2.085-0.21,2.896-1.684,3.358-3.158c0.811-2.21,1.273-8.526,1.273-12.105
      C413.612,38.547,413.266,31.81,413.149,30.757z"/>
    <path fill="#010101" d="M443.355,73.287v31.055h-5.558v-30.74l-9.728-53.478h5.211c0,0,7.411,40.95,7.527,45.058
      c0-4.316,7.643-45.058,7.643-45.058h5.211L443.355,73.287z"/>
    <path fill="#010101" d="M474.043,104.342h-10.074V20.124h8.801c6.832,0,10.19,3.369,11.001,8.948
      c0.463,3.579,0.579,24.844,0.579,31.266c0,7.158,0,30.949-0.579,35.371C483.191,99.814,481.338,104.342,474.043,104.342z
       M479.022,60.232c0-3.158,0-25.159-0.116-28.317c-0.115-4.737-2.547-7.369-5.674-7.369h-4.169v75.585h5.442
      c2.2,0,4.169-1.369,4.285-5.053C479.022,88.445,479.022,63.391,479.022,60.232z"/>
    <path fill="#010101" d="M498.103,104.342h-4.979l9.495-84.218h6.485l7.18,84.218h-4.979c0,0-1.506-19.371-1.506-20.318h-9.727
      C499.955,84.971,498.103,104.342,498.103,104.342z M506.093,41.389c-0.348-3.684-0.695-14.211-0.695-14.211
      s-0.231,10.527-0.694,14.106c-0.348,2.632-4.517,38.528-4.517,38.634h9.496C509.683,79.812,506.324,44.126,506.093,41.389z"/>
    <path fill="#010101" d="M536.877,73.287v31.055h-5.558v-30.74l-9.728-53.478h5.211c0,0,7.411,40.95,7.527,45.058
      c0-4.316,7.643-45.058,7.643-45.058h5.211L536.877,73.287z"/>
  </g>
</g>
</svg>
