<?xml version="1.0" encoding="utf-8"?>
<!-- Generator: Adobe Illustrator 16.2.1, SVG Export Plug-In . SVG Version: 6.00 Build 0)  -->
<!DOCTYPE svg PUBLIC "-//W3C//DTD SVG 1.1//EN" "http://www.w3.org/Graphics/SVG/1.1/DTD/svg11.dtd">
<svg version="1.1" id="Layer_1" xmlns="http://www.w3.org/2000/svg" xmlns:xlink="http://www.w3.org/1999/xlink" x="0px" y="0px"
	 width="266px" height="56.424px" viewBox="0 0 266 56.424" enable-background="new 0 0 266 56.424" xml:space="preserve">
<g>
	<g>
		<path fill="#00B3E3" d="M90.789,25.981c0.047-0.456,0.11-0.91,0.187-1.36H90.25H78.042v10.457c0,0,4.393,0,5.664,0
			c0,0.255-2.904,3.077-7.261,3.077c-4.794,0-10.221-3.785-10.33-9.848c-0.112-6.283,5.323-10.399,10.33-10.22
			c4.066,0.145,5.619,1.307,7.888,3.539c0,0,3.279,0.002,6.615,0.005c0.254,0,0.509,0,0.763,0.001
			c0.711-2.202,1.772-4.282,3.13-6.161c-0.14-0.198-0.282-0.396-0.432-0.595c-3.335-4.437-9.128-8.942-18.127-8.954
			C65.704,5.91,57.542,12.981,54.85,21.636c-0.031,0.104-0.063,0.208-0.094,0.314c-0.001,0.005-0.003,0.01-0.005,0.017
			c-0.554,1.936-0.851,3.979-0.852,6.091c0.02,2.021,0.283,3.956,0.76,5.783c1.699,6.316,6.118,11.528,11.937,14.324
			c0.047,0.022,0.094,0.045,0.142,0.066c0.029,0.015,0.06,0.027,0.089,0.042c2.938,1.336,6.235,2.08,9.739,2.107
			c7.428-0.061,13.996-3.698,18.045-9.26c0.084-0.117,0.165-0.236,0.247-0.353c-2.072-2.983-3.421-6.399-3.896-9.875
			C90.962,30.892,90.634,29.32,90.789,25.981z"/>
		<path fill="#E2231A" d="M132.211,41.255c0,0,4.125-5.382,4.142-12.397c0.033-13.777-9.617-22.725-23.079-22.746
			C105.475,6.1,98.86,9.906,94.839,15.472c1.666,2.365,2.642,4.651,3.035,6.164c-0.347,0-3.18-0.001-6.165-0.003
			c-0.315,0.974-0.561,1.974-0.734,2.989h7.613c0.176,1.124,0.268,2.276,0.268,3.449c0,4.719-1.48,9.092-3.998,12.696
			c3.921,5.644,10.43,9.733,18.494,9.734c5.352,0.001,9.136-2.283,9.822-2.646l1.417,1.872h13.708L132.211,41.255z M123.869,31.215
			l-1.17-1.58h-13.906l5.654,8.167c-5.885,1.156-11.444-3.774-11.363-9.5c0.083-5.85,4.804-10.231,10.45-10.194
			C119.732,18.149,125.915,24.833,123.869,31.215z"/>
		<path fill="#790000" d="M97.875,21.635c-0.394-1.512-1.369-3.798-3.035-6.164c-1.358,1.879-2.419,3.959-3.13,6.161
			C94.695,21.634,97.529,21.635,97.875,21.635z"/>
		<path fill="#790000" d="M98.589,24.622h-7.613c-0.077,0.45-0.14,0.904-0.187,1.36c-0.155,3.339,0.173,4.91,0.173,4.91
			c0.475,3.477,1.825,6.893,3.896,9.875c2.519-3.604,3.999-7.978,3.999-12.696C98.857,26.898,98.765,25.746,98.589,24.622z"/>
	</g>
	<g>
		<path fill="#FFFFFF" d="M19.13,48.856l-0.523-0.81c-0.104,0.524-1.362,1.047-2.566,1.047c-2.514,0-4.189-1.285-4.294-4.426
			c-0.052-0.952-0.104-11.378-0.104-14.901s-0.052-10.854,0-13.9c0.053-3.237,1.623-5.285,4.556-5.285
			c3.142,0,4.189,2.095,4.294,4.237c0.053,2,0,7.427,0,7.427h-2.304v-6.569c0-2.047-0.733-2.856-1.99-2.856
			c-1.204,0-2.147,0.952-2.147,3.142c0,2.19-0.053,11.377-0.053,13.9c0,1.714,0.053,12.806,0.053,14.472
			c0,1.856,0.628,2.904,2.147,2.904c1.309,0,2.147-0.904,2.147-2.713V31.1h-2.828v-2.047h5.08v19.804H19.13z"/>
		<path fill="#FFFFFF" d="M26.043,48.856V10.772h8.117v2.047h-5.813v15.757h5.027v2h-5.027v16.233h5.865v2.047L26.043,48.856
			L26.043,48.856z"/>
		<path fill="#FFFFFF" d="M43.375,12.819v36.037h-2.304V12.819H37.51v-2.047h9.478v2.047H43.375z"/>
		<path fill="#FFFFFF" d="M147.95,48.856V10.772h8.117v2.047h-5.813v15.757h5.027v2h-5.027v16.233h5.865v2.047L147.95,48.856
			L147.95,48.856z"/>
		<path fill="#FFFFFF" d="M166.173,48.856h-2.775l-4.137-38.084h2.356l3.194,32.467l3.142-32.467h2.304L166.173,48.856z"/>
		<path fill="#FFFFFF" d="M175.023,48.856V10.772h8.116v2.047h-5.812v15.757h5.027v2h-5.027v16.233h5.865v2.047L175.023,48.856
			L175.023,48.856z"/>
		<path fill="#FFFFFF" d="M195.76,27.244c-0.419,1.047-0.995,2.094-1.728,2.333l3.352,19.28h-2.514l-3.037-18.614l-1.728,0.047
			v18.566h-2.251V10.772h3.875c2.828,0,4.032,1.714,4.399,4.38c0.209,1.619,0.314,2.856,0.314,5.712
			C196.441,24.007,196.126,26.339,195.76,27.244z M193.77,15.581c-0.158-1.571-0.838-2.713-2.042-2.713h-1.571
			c0,0,0,14.376,0,15.376c0,0,1.204,0,1.728-0.095c0.943-0.095,1.31-0.761,1.519-1.428c0.367-1,0.576-3.855,0.576-5.474
			C193.979,19.104,193.822,16.057,193.77,15.581z"/>
		<path fill="#FFFFFF" d="M207.429,34.813v14.043h-2.514V34.956l-4.398-24.183h2.356c0,0,3.351,18.518,3.403,20.375
			c0-1.952,3.457-20.375,3.457-20.375h2.356L207.429,34.813z"/>
		<path fill="#FFFFFF" d="M221.307,48.856h-4.556V10.772h3.979c3.09,0,4.608,1.523,4.976,4.046
			c0.209,1.618,0.261,11.235,0.261,14.139c0,3.237,0,13.996-0.261,15.995C225.443,46.809,224.605,48.856,221.307,48.856z
			 M223.558,28.91c0-1.428,0-11.377-0.052-12.805c-0.052-2.143-1.152-3.333-2.566-3.333h-1.886v34.18h2.461
			c0.995,0,1.885-0.619,1.938-2.285C223.558,41.668,223.558,30.338,223.558,28.91z"/>
		<path fill="#FFFFFF" d="M232.187,48.856h-2.251l4.294-38.084h2.932l3.247,38.084h-2.251c0,0-0.681-8.76-0.681-9.188h-4.398
			C233.024,40.097,232.187,48.856,232.187,48.856z M235.8,20.389c-0.157-1.666-0.314-6.427-0.314-6.427s-0.105,4.761-0.314,6.379
			c-0.157,1.19-2.043,17.423-2.043,17.47h4.294C237.423,37.764,235.904,21.626,235.8,20.389z"/>
		<path fill="#FFFFFF" d="M249.721,34.813v14.043h-2.513V34.956l-4.399-24.183h2.356c0,0,3.352,18.518,3.404,20.375
			c0-1.952,3.456-20.375,3.456-20.375h2.356L249.721,34.813z"/>
	</g>
</g>
</svg>
