<?xml version="1.0" encoding="utf-8"?>
<!-- Generator: Adobe Illustrator 16.2.1, SVG Export Plug-In . SVG Version: 6.00 Build 0)  -->
<!DOCTYPE svg PUBLIC "-//W3C//DTD SVG 1.1//EN" "http://www.w3.org/Graphics/SVG/1.1/DTD/svg11.dtd">
<svg version="1.1" id="Logo" xmlns="http://www.w3.org/2000/svg" xmlns:xlink="http://www.w3.org/1999/xlink" x="0px" y="0px"
	 width="213.25px" height="183px" viewBox="0 -25.333 213.25 183" enable-background="new 0 -25.333 213.25 183"
	 xml:space="preserve">
<path fill="#0A70FF" d="M115.141-20.226C60.153-25.458,12.019,7.717,7.626,53.873C4.75,84.102,21.354,112.759,48.601,130.41
	c-6.9,12.709-21.029,17.425-21.029,17.425s21.198,10.919,39.356-7.937c9.976,4.034,20.832,6.77,32.31,7.861
	c54.987,5.232,103.123-28.785,107.515-74.94C211.142,26.665,170.128-14.994,115.141-20.226z"/>
<g>
	<path fill="#FFFFFF" d="M57.192,33.941V63.1h-7.619V33.941h-9.868v-6.48h27.355v6.48H57.192z"/>
	<path fill="#FFFFFF" d="M84.916,63.1c-0.138,0-0.138-0.54-0.138-15.389c0-2.295-1.193-3.78-4.085-3.78
		c-2.754,0-4.682,1.665-4.682,4.14V63.1h-6.977V27.236h6.885v14.31c1.01-2.34,3.81-3.69,7.803-3.69c5.416,0,8.078,2.79,8.078,8.37
		c0,16.604,0.046,16.83,0.275,16.875H84.916z"/>
	<path fill="#FFFFFF" d="M112.363,63.1c-0.275,0-0.596-0.675-0.596-2.34c-1.653,1.62-4.269,2.564-8.629,2.564
		c-4.773,0-8.17-2.024-8.445-5.804c-0.046-0.765-0.092-1.665,0-2.565c0.275-3.735,3.534-6.84,11.199-7.29
		c1.79-0.09,3.626-0.045,5.692,0.135c0-0.585,0.045-1.485-0.047-2.25c-0.229-1.44-1.698-2.34-4.13-2.34
		c-2.065,0-3.396,0.27-4.085,1.215c-0.597,0.81-0.872,1.62-0.872,2.475H95.84c-0.046-1.395,0.413-3.42,1.147-4.68
		c1.882-3.06,5.141-4.41,10.373-4.41c6.93,0,10.235,2.43,10.741,6.48c0.184,1.53,0.275,4.95,0.229,7.064
		c-0.045,1.665-0.045,4.815-0.045,6.66c0,1.98,0.137,4.59,0.459,5.085H112.363z M108.095,52.031
		c-1.377,0.045-3.351,0.045-4.865,0.81c-1.056,0.54-1.698,1.44-1.698,2.52c0,0.675,0,1.305,0.459,1.89
		c0.597,0.765,2.065,1.08,3.58,1.08c1.377,0,3.029-0.36,3.993-1.08c0.872-0.63,1.698-1.53,1.973-3.015
		c0.184-0.675,0.23-1.62,0.23-1.98C110.665,52.121,109.472,51.985,108.095,52.031z"/>
	<path fill="#FFFFFF" d="M138.296,63.1c-0.275,0-0.275-0.54-0.275-15.119c0-2.565-1.239-4.05-3.947-4.05
		c-2.57,0-4.819,1.395-4.819,4.23V63.1h-6.977V38.351h6.747v3.24c1.193-2.52,4.406-3.735,7.803-3.735
		c5.737,0,8.216,2.88,8.216,8.325c0,16.56,0.046,16.919,0.184,16.919H138.296z"/>
	<path fill="#FFFFFF" d="M165.24,63.1l-5.829-11.069l-3.534,3.735V63.1H148.9V27.236h6.977v20.205l8.354-9.09h7.895l-7.849,8.685
		l8.583,16.064H165.24z"/>
	<path fill="#FFFFFF" d="M84.668,95.726V108.1h-7.619V95.771l-11.934-23.31h7.986c0,0,7.757,15.795,7.803,16.334
		c0-0.539,8.445-16.334,8.445-16.334h7.757L84.668,95.726z"/>
	<path fill="#FFFFFF" d="M114.492,104.095c-2.02,2.565-5.416,4.41-10.235,4.41c-4.911,0-8.17-1.62-10.189-4.14
		c-1.698-2.25-2.524-5.266-2.524-8.73c0-3.149,0.688-6.074,2.524-8.504c1.928-2.565,5.141-4.32,10.281-4.32
		c5.003,0,8.215,1.71,10.051,4.14c1.791,2.295,2.57,5.445,2.57,8.685C116.97,98.965,116.191,101.8,114.492,104.095z M109.122,90.641
		c-0.872-1.26-2.387-1.936-4.819-1.936c-2.341,0-3.901,0.811-4.773,2.25c-0.734,1.08-1.01,3.061-1.01,4.725
		c0,1.936,0.229,3.825,0.872,4.95c0.964,1.485,2.616,2.16,4.911,2.16c2.203,0,3.901-0.766,4.819-2.205
		c0.688-1.125,1.01-3.015,1.01-4.905C110.132,93.79,109.856,91.721,109.122,90.641z"/>
	<path fill="#FFFFFF" d="M142.628,108.1h-6.701l-0.184-2.88c-1.515,2.34-4.36,3.24-7.803,3.24c-4.452,0-8.216-2.025-8.216-7.65
		c0-15.929-0.046-17.324-0.184-17.459c0,0,7.16,0,7.068,0c0.092,0,0.138,5.535,0.138,16.02c0,2.745,1.698,3.645,4.039,3.645
		c2.938,0,4.728-1.484,4.728-4.095V83.351h6.977c0,0,0,17.055,0,21.149C142.491,106.479,142.583,107.83,142.628,108.1z"/>
	<path fill="#FFFFFF" d="M147.035,108.1v-8.505h7.986v8.505H147.035z"/>
</g>
</svg>
