<?xml version="1.0" encoding="utf-8"?>
<!-- Generator: Adobe Illustrator 16.2.1, SVG Export Plug-In . SVG Version: 6.00 Build 0)  -->
<!DOCTYPE svg PUBLIC "-//W3C//DTD SVG 1.1//EN" "http://www.w3.org/Graphics/SVG/1.1/DTD/svg11.dtd">
<svg version="1.1" id="Layer_1" xmlns="http://www.w3.org/2000/svg" xmlns:xlink="http://www.w3.org/1999/xlink" x="0px" y="0px"
	 width="30px" height="30px" viewBox="0 0 30 30" enable-background="new 0 0 30 30" xml:space="preserve">
<path fill="#B2B3B4" d="M23.537,20.841l-0.114-0.115l-3.295-3.304c0.631-1.09,0.996-2.352,1.005-3.702
	c0.026-4.131-3.294-7.5-7.416-7.525c-0.017,0-0.032,0-0.049,0c-4.099,0-7.436,3.316-7.462,7.432c-0.026,4.129,3.293,7.5,7.416,7.527
	c0.016,0,0.032,0,0.049,0c1.369,0,2.653-0.373,3.758-1.02l3.293,3.3l0,0l0.113,0.112c0.344,0.346,0.899,0.346,1.242,0l1.46-1.462
	C23.88,21.741,23.88,21.185,23.537,20.841z M16.549,16.577c-0.771,0.768-1.793,1.191-2.879,1.191h-0.026
	c-2.253-0.016-4.074-1.863-4.061-4.121c0.015-2.244,1.848-4.07,4.086-4.07h0.026c1.091,0.007,2.115,0.44,2.882,1.219
	c0.767,0.777,1.186,1.809,1.178,2.903C17.748,14.788,17.319,15.812,16.549,16.577z"/>
</svg>
