<?xml version="1.0" encoding="utf-8"?>
<!-- Generator: Adobe Illustrator 16.2.1, SVG Export Plug-In . SVG Version: 6.00 Build 0)  -->
<!DOCTYPE svg PUBLIC "-//W3C//DTD SVG 1.1//EN" "http://www.w3.org/Graphics/SVG/1.1/DTD/svg11.dtd">
<svg version="1.1" id="Layer_1" xmlns="http://www.w3.org/2000/svg" xmlns:xlink="http://www.w3.org/1999/xlink" x="0px" y="0px"
	 width="30px" height="30px" viewBox="0 0 30 30" enable-background="new 0 0 30 30" xml:space="preserve">
<path fill="#FFFFFF" d="M22.385,3.454H7.616c-2.565,0-4.654,2.088-4.654,4.654v4.911v9.856c0,2.566,2.089,4.653,4.654,4.653h14.769
	c2.566,0,4.653-2.087,4.653-4.653V13.02V8.108C27.038,5.542,24.951,3.454,22.385,3.454z M23.721,6.229l0.532-0.002v0.531v3.549
	l-4.068,0.015L20.17,6.24L23.721,6.229z M11.565,13.02c0.771-1.066,2.021-1.766,3.436-1.766c1.413,0,2.665,0.699,3.435,1.766
	c0.503,0.697,0.803,1.549,0.803,2.473c0,2.336-1.901,4.236-4.237,4.236c-2.337,0-4.237-1.9-4.237-4.236
	C10.764,14.568,11.063,13.717,11.565,13.02z M24.692,22.876c0,1.274-1.033,2.309-2.308,2.309H7.616
	c-1.273,0-2.308-1.034-2.308-2.309V13.02h3.594c-0.311,0.766-0.485,1.6-0.485,2.473c0,3.629,2.953,6.582,6.584,6.582
	c3.629,0,6.582-2.953,6.582-6.582c0-0.873-0.176-1.707-0.484-2.473h3.594V22.876z"/>
</svg>
