<?xml version="1.0" encoding="utf-8"?>
<!-- Generator: Adobe Illustrator 16.2.1, SVG Export Plug-In . SVG Version: 6.00 Build 0)  -->
<!DOCTYPE svg PUBLIC "-//W3C//DTD SVG 1.1//EN" "http://www.w3.org/Graphics/SVG/1.1/DTD/svg11.dtd">
<svg version="1.1" id="Layer_1" xmlns="http://www.w3.org/2000/svg" xmlns:xlink="http://www.w3.org/1999/xlink" x="0px" y="0px"
	 width="288px" height="50px" viewBox="0 120 288 50" enable-background="new 0 120 288 50" xml:space="preserve">
<g>
	<path fill="#ABABAB" d="M26,161c-1.5,1.4-3.6,2.4-5.8,2.4c-6.9,0-8.5-6-8.5-14c0-8,1.5-14,8.4-14c2.2,0,4.2,1,5.7,2.4l3.8,6.7h0.2
		v-9.2h-0.2l-3.6,1.9c-1.1-0.9-3.1-2.3-5.9-2.3c-6.7,0-14.6,5.3-14.6,14.5c0,9.199,7.8,14.5,14.7,14.5c2.7,0,5-1.4,6-2.301l3.8,1.9
		h0.2v-9.6H30L26,161z"/>
	<path fill="#ABABAB" d="M48.5,134.8c-6.5,0-14.2,5.7-14.2,14.5s7.7,14.5,14.2,14.5s14.2-5.7,14.2-14.5S55,134.8,48.5,134.8z
		 M48.5,163.4c-6.6,0-8.1-5.601-8.1-14c0-8.4,1.5-14,8.1-14s8.1,5.6,8.1,14C56.6,157.8,55.2,163.4,48.5,163.4z"/>
	<polygon fill="#ABABAB" points="85.6,135.8 89.1,135.8 89.1,153.7 89,153.7 76.6,135.4 65.9,135.4 65.9,135.8 69.4,135.8 69.4,163
		65.9,163 65.9,163.4 73.5,163.4 73.5,163 70,163 70,135.8 70,135.8 89.5,163.9 89.7,163.9 89.7,135.8 93.2,135.8 93.2,135.4
		85.6,135.4 	"/>
	<path fill="#ABABAB" d="M108.4,135.4H96.3v0.4h3.5V163h-3.5v0.4h12.1c6,0,16.2-2.7,16.2-14.2S114.4,135.4,108.4,135.4z M108.2,163
		h-2.9v-27.2h2.9c7.1,0,10.4,5,10.4,13.601C118.6,157.9,115.3,163,108.2,163z"/>
	<path fill="#ABABAB" d="M147,163h-10.3v-14.4h5.2c1.7,1.4,3.7,5.4,3.7,5.4h0.2v-11.3h-0.2c0,0-2,4-3.7,5.399h-5.2v-12.3h9.2
		c2.699,1.8,5,7.1,5,7.1h0.199v-7.5H127.7v0.4h3.5V163h-3.5v0.4h24.2V154h-0.2C151.7,154,149.3,160.3,147,163z"/>
	<polygon fill="#ABABAB" points="146.5,129.4 145.8,127.5 146.4,124.2 146.2,124.1 137.6,131.4 137.7,131.6 	"/>
	<polygon fill="#ABABAB" points="202,135.4 194.4,135.4 194.4,135.8 197.9,135.8 197.9,153.7 197.9,153.7 185.4,135.4 174.7,135.4
		174.7,135.8 178.2,135.8 178.2,163 174.7,163 174.7,163.4 182.3,163.4 182.3,163 178.8,163 178.8,135.8 178.9,135.8 198.3,163.9
		198.5,163.9 198.5,135.8 202,135.8 	"/>
	<path fill="#ABABAB" d="M216.7,134.4h-0.2L204.8,163h-3.2v0.4h7.301V163h-3.5l4.399-10.7h8.8L223.2,163h-3.5v0.4h12.8V163h-3.3
		L216.7,134.4z M209.9,151.8l4.1-10.1l4.3,10.1H209.9z"/>
	<path fill="#ABABAB" d="M248.2,146.9l-5.3-1.9c-2.7-0.9-4.801-2.3-4.801-4.9c0-3.1,2.301-4.8,5.9-4.8c2.2,0,3.6,0.6,4.9,1.9
		l3.8,6.5h0.2v-8.9h-0.2l-3.601,1.8c-0.899-0.8-2.5-1.8-5.1-1.8c-5.2,0-8.6,3.5-8.6,8.4c0,4,2.699,6,5.8,7.2l5.5,2
		c2.899,1.1,4.8,2.399,4.8,5.3c0,2.8-1.8,5.6-6.5,5.6c-2.2,0-4.8-1-6.2-2.5l-4.1-7.2h-0.2l0.2,9.7h0.2l3.699-2
		c1.101,1,3.7,2.4,6.4,2.4c5.9,0,9.8-4.3,9.8-9.101C254.7,150.2,251.6,148.1,248.2,146.9z"/>
	<path fill="#ABABAB" d="M257.4,135.4v8.7h0.199c0,0,2.601-5.6,4.9-8.3h4.7V163h-4.3v0.4h14V163H272.6v-27.2h4.7
		c2.4,2.7,4.9,8.3,4.9,8.3h0.2v-8.7H257.4z"/>
</g>
</svg>
