<?xml version="1.0" encoding="utf-8"?>
<!-- Generator: Adobe Illustrator 16.2.1, SVG Export Plug-In . SVG Version: 6.00 Build 0)  -->
<!DOCTYPE svg PUBLIC "-//W3C//DTD SVG 1.1//EN" "http://www.w3.org/Graphics/SVG/1.1/DTD/svg11.dtd">
<svg version="1.1" id="Logo" xmlns="http://www.w3.org/2000/svg" xmlns:xlink="http://www.w3.org/1999/xlink" x="0px" y="0px"
	 width="230px" height="121px" viewBox="0 0 230 121" enable-background="new 0 0 230 121" xml:space="preserve">
<path fill="none" d="M83.757,42.976c-6.055-5.959-10.198-9.059-21.043-9.444c-13.359-0.477-27.86,10.505-27.559,27.263
	c0.295,16.174,14.768,26.273,27.559,26.273c11.623,0,19.37-7.53,19.37-8.211c-3.388,0-15.107,0-15.107,0V50.963h32.569h1.933
	c0.458-2.709,1.114-5.375,1.96-7.975c-0.68-0.006-1.359-0.006-2.036-0.006C92.505,42.979,83.757,42.976,83.757,42.976z"/>
<path d="M122.482,60.165c0-3.13-0.244-6.203-0.711-9.202h-20.292h-0.02h-1.914H66.979v27.895c0,0,11.719,0,15.107,0
	c0,0.682-7.748,8.213-19.37,8.213c-12.791,0-27.264-10.102-27.559-26.274c-0.301-16.758,14.2-27.74,27.559-27.263
	c10.844,0.385,14.987,3.484,21.042,9.444c0,0,8.748,0.002,17.646,0.007c0.677,0,1.356,0,2.036,0.006
	c0.001-0.003,0.002-0.005,0.003-0.008c7.959,0.004,15.515,0.011,16.444,0.011c-1.054-4.034-3.652-10.135-8.104-16.445l0,0
	c-0.371-0.525-0.749-1.053-1.144-1.58c-8.896-11.837-24.35-23.856-48.36-23.886C34.064,1.047,12.29,19.911,5.109,43
	c-0.084,0.279-0.171,0.557-0.251,0.836c-0.004,0.014-0.009,0.031-0.01,0.046c-1.48,5.164-2.272,10.617-2.276,16.248
	c0.054,5.394,0.756,10.556,2.03,15.431c4.532,16.847,16.321,30.752,31.845,38.211c0.126,0.06,0.25,0.119,0.376,0.178
	c0.082,0.041,0.161,0.074,0.241,0.107c7.833,3.566,16.63,5.549,25.98,5.623c19.814-0.162,37.334-9.863,48.14-24.703
	c0.221-0.311,0.438-0.629,0.658-0.94c-0.004-0.006-0.007-0.013-0.011-0.017C118.541,84.408,122.482,72.749,122.482,60.165z"/>
<path fill="#EE2E27" d="M211.475,95.324c0,0,11.012-14.354,11.055-33.068c0.09-36.753-25.658-60.624-61.564-60.677
	c-20.812-0.036-38.453,10.116-49.175,24.965c0.014,0.02,0.026,0.04,0.04,0.06c-3.594,4.998-6.415,10.524-8.306,16.373
	c-0.03,0-0.059,0-0.089,0c-0.84,2.602-1.496,5.267-1.955,7.976c-0.204,1.203-0.376,2.411-0.497,3.627
	c-0.419,8.911,0.463,13.102,0.463,13.102c1.263,9.271,4.863,18.383,10.393,26.336c0,0.002-0.001,0.004-0.002,0.004
	c10.46,15.059,27.826,25.965,49.335,25.971c14.275,0.003,24.377-6.092,26.199-7.062l3.777,4.992h36.569L211.475,95.324z
	 M189.225,68.542l-3.127-4.214h-37.094l15.084,21.785c-15.693,3.078-30.529-10.066-30.312-25.342
	c0.22-15.608,12.815-27.293,27.875-27.198C178.186,33.683,194.678,51.515,189.225,68.542z"/>
<path fill="#892C2C" d="M119.878,43.011c-1.053-4.034-3.651-10.135-8.104-16.445c-3.613,5.014-6.447,10.562-8.344,16.434
	C111.392,43.004,118.95,43.011,119.878,43.011z"/>
<path fill="#892C2C" d="M121.791,50.963h-20.312c-0.204,1.203-0.376,2.411-0.497,3.627c-0.419,8.911,0.463,13.102,0.463,13.102
	c1.263,9.273,4.864,18.388,10.396,26.342c6.716-9.612,10.661-21.277,10.661-33.867C122.502,57.035,122.258,53.962,121.791,50.963z"
	/>
</svg>
