<?xml version="1.0" encoding="utf-8"?>
<!-- Generator: Adobe Illustrator 16.2.1, SVG Export Plug-In . SVG Version: 6.00 Build 0)  -->
<!DOCTYPE svg PUBLIC "-//W3C//DTD SVG 1.1//EN" "http://www.w3.org/Graphics/SVG/1.1/DTD/svg11.dtd">
<svg version="1.1" id="Layer_1" xmlns="http://www.w3.org/2000/svg" xmlns:xlink="http://www.w3.org/1999/xlink" x="0px" y="0px"
	 width="30px" height="30px" viewBox="0 0 30 30" enable-background="new 0 0 30 30" xml:space="preserve">
<path fill="#FFFFFF" d="M28.6,7.074c-0.972,0.431-2.016,0.722-3.113,0.853c1.121-0.67,1.98-1.731,2.383-2.996
	c-1.047,0.621-2.203,1.071-3.441,1.313c-0.983-1.053-2.395-1.71-3.954-1.71c-2.992,0-5.417,2.426-5.417,5.417
	c0,0.426,0.045,0.838,0.14,1.234c-4.502-0.227-8.493-2.381-11.169-5.661C3.562,6.326,3.295,7.256,3.295,8.25
	c0,1.877,0.956,3.537,2.41,4.509c-0.888-0.027-1.724-0.273-2.456-0.677v0.067c0,2.626,1.868,4.816,4.347,5.313
	c-0.452,0.127-0.932,0.191-1.428,0.191c-0.349,0-0.687-0.035-1.017-0.099c0.688,2.155,2.688,3.721,5.062,3.762
	c-1.856,1.455-4.192,2.32-6.729,2.32c-0.438,0-0.869-0.023-1.294-0.072c2.399,1.532,5.247,2.432,8.306,2.432
	c9.97,0,15.415-8.255,15.415-15.417c0-0.235-0.003-0.471-0.016-0.701C26.956,9.114,27.876,8.16,28.6,7.074"/>
</svg>
