<?xml version="1.0" encoding="utf-8"?>
<!-- Generator: Adobe Illustrator 16.2.1, SVG Export Plug-In . SVG Version: 6.00 Build 0)  -->
<!DOCTYPE svg PUBLIC "-//W3C//DTD SVG 1.1//EN" "http://www.w3.org/Graphics/SVG/1.1/DTD/svg11.dtd">
<svg version="1.1" id="Layer_1" xmlns="http://www.w3.org/2000/svg" xmlns:xlink="http://www.w3.org/1999/xlink" x="0px" y="0px"
	 width="30px" height="30px" viewBox="0 0 30 30" enable-background="new 0 0 30 30" xml:space="preserve">
<path fill="#FFFFFF" d="M16.583,1.761v6.692h6.282v4.156h-6.282V19.4c0,1.535,0.082,2.521,0.244,2.954
	c0.16,0.438,0.464,0.785,0.909,1.046c0.585,0.35,1.253,0.524,2.009,0.524c1.339,0,2.67-0.435,3.999-1.31v4.181
	c-1.133,0.53-2.156,0.905-3.073,1.119c-0.917,0.216-1.909,0.323-2.976,0.323c-1.211,0-2.282-0.154-3.209-0.458
	c-0.931-0.308-1.725-0.741-2.381-1.309c-0.656-0.563-1.113-1.169-1.366-1.806c-0.256-0.637-0.38-1.561-0.38-2.771v-9.286H7.431
	V8.863c1.043-0.341,1.934-0.823,2.676-1.452c0.739-0.632,1.337-1.39,1.784-2.274c0.448-0.885,0.759-2.011,0.927-3.376H16.583z"/>
</svg>
