<?xml version="1.0" encoding="utf-8"?>
<!-- Generator: Adobe Illustrator 16.2.1, SVG Export Plug-In . SVG Version: 6.00 Build 0)  -->
<!DOCTYPE svg PUBLIC "-//W3C//DTD SVG 1.1//EN" "http://www.w3.org/Graphics/SVG/1.1/DTD/svg11.dtd">
<svg version="1.1" id="Logo" xmlns="http://www.w3.org/2000/svg" xmlns:xlink="http://www.w3.org/1999/xlink" x="0px" y="0px"
	 width="481.5px" height="136.334px" viewBox="0 0 481.5 136.334" enable-background="new 0 0 481.5 136.334" xml:space="preserve">
<g>
	<path fill="#DDDDDD" d="M253.003,112.679h-40.194V20.623h38.652c13.516,0,21.697,3.254,26.559,9.88
		c5.336,6.974,6.521,17.551,6.521,34.52c0,19.644-1.185,29.988-6.046,36.846C273.751,108.727,266.281,112.679,253.003,112.679z
		 M265.808,65.022c0-8.484-0.949-19.293-3.558-22.548c-2.964-3.835-6.402-5.347-12.924-5.347h-17.31v59.394h17.429
		c6.64,0,10.434-1.511,13.161-5.347C265.214,87.456,265.808,74.089,265.808,65.022z"/>
	<path fill="#DDDDDD" d="M334.311,112.679c-0.712,0-1.542-1.743-1.542-6.045c-4.268,4.185-11.026,6.626-22.29,6.626
		c-12.33,0-21.104-5.23-21.816-14.995c-0.118-1.976-0.236-4.3,0-6.624c0.712-9.647,9.131-17.668,28.93-18.83
		c4.625-0.232,9.367-0.117,14.703,0.349c0-1.511,0.119-3.836-0.118-5.812c-0.593-3.719-4.388-6.043-10.672-6.043
		c-5.335,0-8.773,0.696-10.552,3.138c-1.541,2.093-2.253,4.185-2.253,6.394h-17.073c-0.119-3.604,1.066-8.835,2.965-12.088
		c4.86-7.904,13.278-11.391,26.795-11.391c17.903,0,26.44,6.276,27.744,16.736c0.475,3.952,0.711,12.785,0.593,18.249
		c-0.118,4.301-0.118,12.437-0.118,17.202c0,5.114,0.355,11.855,1.186,13.135H334.311z M323.283,84.085
		c-3.557,0.116-8.655,0.116-12.567,2.092c-2.727,1.395-4.388,3.721-4.388,6.51c0,1.743,0,3.371,1.187,4.882
		c1.542,1.976,5.336,2.789,9.248,2.789c3.557,0,7.825-0.929,10.315-2.789c2.252-1.628,4.387-3.952,5.099-7.788
		c0.474-1.743,0.592-4.185,0.592-5.114C329.923,84.317,326.841,83.969,323.283,84.085z"/>
	<path fill="#DDDDDD" d="M358.138,42.939V26.667h18.734v16.273H358.138z M359.087,112.679c-0.593-0.232-0.712-1.162-0.712-6.045
		c0-11.042,0-57.883,0-57.883h18.26c0,0,0,49.747,0,57.65c0,4.766,0,5.928,0.474,6.277H359.087z"/>
	<path fill="#DDDDDD" d="M386.117,112.679c-0.356-0.232-0.475-1.395-0.475-4.998c0-10.345,0-67.647,0-80.898
		c0-2.906-0.237-5.695-0.355-6.625h18.022c0.237,0.697,0.474,2.79,0.474,5.347c0,11.507,0,64.625,0,81.595
		c0,3.254,0,4.998,0.475,5.579H386.117z"/>
	<path fill="#DDDDDD" d="M442.79,132.438h-18.971l7.944-20.109l-24.898-63.578h19.089c0,0,15.532,43.703,15.651,44.633
		c0.118-0.93,15.295-44.633,15.295-44.633h18.614L442.79,132.438z"/>
</g>
<path fill="#EA232B" d="M121.479,59.978c0-2.929-0.016-5.813-0.453-8.358H68.134v25.442h15.7c0,2.543-7.257,7.771-18.145,7.771
	c-11.978,0-25.539-9.417-25.81-24.568c-0.283-15.697,13.297-25.963,25.81-25.516c10.162,0.363,14.043,3.277,19.71,8.855
	c0,0,32.975,0.025,33.839,0.025c-0.983-3.779-3.418-9.489-7.584-15.4c-0.348-0.492-0.703-0.988-1.078-1.48
	C102.245,15.66,87.77,4.402,65.279,4.378c-26.426-0.037-46.822,17.63-53.548,39.261c-0.08,0.261-0.157,0.522-0.236,0.785
	c0,0.012-0.005,0.03-0.01,0.04c-1.381,4.84-2.127,9.948-2.127,15.223c0.05,5.051,0.706,9.886,1.898,14.448
	c4.244,15.782,15.29,28.807,29.833,35.793c0.117,0.055,0.233,0.112,0.353,0.164c0.075,0.04,0.152,0.069,0.221,0.104
	c7.339,3.338,15.583,5.197,24.336,5.266c18.56-0.15,34.976-9.232,45.09-23.131C111.296,92.044,121.479,77.314,121.479,59.978z"/>
<path fill="#0A71FF" d="M205.044,92.089c0,0,10.308-13.164,10.347-30.692c0.082-34.423-24.031-56.639-57.67-56.689
	c-19.488-0.03-37.455,10.335-46.656,22.771c-8.184,11.064-9.533,20.282-9.533,26.987c-0.388,8.342,0.432,12.287,0.432,12.287
	c1.188,8.686,4.56,17.23,9.737,24.682l0,0c9.797,14.107,26.064,24.33,46.213,24.33c13.372,0.002,22.831-6.279,24.54-7.187
	l3.544,4.104h34.252L205.044,92.089z M184.193,67.934l-2.924-3.593h-34.748l14.127,20.052c-14.7,2.881-28.594-9.61-28.391-23.918
	c0.206-14.619,12.004-25.477,26.112-25.382C173.857,35.191,189.307,51.982,184.193,67.934z"/>
<g opacity="0.5">
	<path fill="#EA232B" d="M119.238,43.644c-0.983-3.779-3.418-9.496-7.584-15.404c-0.174-0.251-0.363-0.502-0.542-0.755
		c-0.015,0.02-0.032,0.04-0.047,0.06c-4.395,5.938-6.815,11.335-8.117,16.095C110.978,43.642,118.822,43.644,119.238,43.644z"/>
	<path fill="#EA232B" d="M121.479,59.978c0-2.929-0.016-5.813-0.453-8.358h-19.399c-0.064,0-0.094,1.968-0.094,2.892
		c-0.388,8.343,0.432,12.261,0.432,12.261c1.183,8.68,4.552,17.209,9.72,24.654C113.895,87.957,121.479,74.939,121.479,59.978z"/>
</g>
</svg>
