<?xml version="1.0" encoding="utf-8"?>
<!-- Generator: Adobe Illustrator 16.2.1, SVG Export Plug-In . SVG Version: 6.00 Build 0)  -->
<!DOCTYPE svg PUBLIC "-//W3C//DTD SVG 1.1//EN" "http://www.w3.org/Graphics/SVG/1.1/DTD/svg11.dtd">
<svg version="1.1" id="Layer_1" xmlns="http://www.w3.org/2000/svg" xmlns:xlink="http://www.w3.org/1999/xlink" x="0px" y="0px"
	 width="30px" height="30px" viewBox="0 0 30 30" enable-background="new 0 0 30 30" xml:space="preserve">
<g>
	<g>
		<path fill="#FFFFFF" d="M13.891,19.654c-0.759,3.971-1.684,7.777-4.424,9.766c-0.843-6.001,1.243-10.508,2.213-15.293
			c-1.652-2.781,0.197-8.381,3.683-7.001c4.29,1.697-3.713,10.343,1.66,11.425c5.61,1.125,7.899-9.736,4.421-13.268
			C16.418,0.183,6.812,5.167,7.996,12.47c0.285,1.784,2.128,2.326,0.734,4.79c-3.217-0.713-4.176-3.252-4.054-6.633
			c0.199-5.537,4.975-9.413,9.766-9.949C20.501-0.001,26.187,2.901,26.971,8.6c0.885,6.433-2.732,13.398-9.212,12.897
			C16.003,21.361,15.266,20.49,13.891,19.654L13.891,19.654z M13.891,19.654"/>
	</g>
</g>
</svg>
