<?xml version="1.0" encoding="utf-8"?>
<!-- Generator: Adobe Illustrator 16.2.1, SVG Export Plug-In . SVG Version: 6.00 Build 0)  -->
<!DOCTYPE svg PUBLIC "-//W3C//DTD SVG 1.1//EN" "http://www.w3.org/Graphics/SVG/1.1/DTD/svg11.dtd">
<svg version="1.1" id="Layer_1" xmlns="http://www.w3.org/2000/svg" xmlns:xlink="http://www.w3.org/1999/xlink" x="0px" y="0px"
	 width="221px" height="119px" viewBox="0 0 221 119" enable-background="new 0 0 221 119" xml:space="preserve">
<g>
	<path fill="#FF0000" d="M40.955,30.394c0,3.965,0.115,20.552,0.115,28.793c0,8.972,0,24.099-0.115,29.732
		c-0.114,8.556-3.213,12.832-10.672,12.832c-7.23,0-10.329-3.964-10.443-12.937V30.498c0-8.555,3.328-13.145,10.443-13.145
		S40.841,21.005,40.955,30.394z M35.677,90.275c0.229-3.547,0.229-23.683,0.229-31.089c0-5.945,0-26.394-0.115-29.836
		c-0.114-5.008-1.377-7.303-5.277-7.303c-4.478,0-5.051,3.025-5.279,7.407c-0.229,3.547-0.115,24.099-0.115,30.148
		c0,6.573-0.114,26.916,0.115,30.671c0.229,4.068,1.263,6.781,5.279,6.781C34.3,97.057,35.447,94.031,35.677,90.275z"/>
	<path fill="#FF0000" d="M74.236,30.394c0,3.965,0.115,20.552,0.115,28.793c0,8.972,0,24.099-0.115,29.732
		c-0.114,8.556-3.213,12.832-10.672,12.832c-7.23,0-10.33-3.964-10.443-12.937V30.498c0-8.555,3.328-13.145,10.443-13.145
		S74.122,21.005,74.236,30.394z M68.958,90.275c0.229-3.547,0.229-23.683,0.229-31.089c0-5.945,0-26.394-0.115-29.836
		c-0.114-5.008-1.377-7.303-5.278-7.303c-4.478,0-5.05,3.025-5.278,7.407C58.286,33.001,58.4,53.553,58.4,59.602
		c0,6.573-0.114,26.916,0.115,30.671c0.229,4.068,1.262,6.781,5.278,6.781C67.581,97.057,68.729,94.031,68.958,90.275z"/>
	<path fill="#FF0000" d="M103.846,60.96c-1.836,2.504-4.132,4.067-7.574,4.485c-1.951,0.209-4.131,0.104-4.131,0.104v35.574h-5.05
		V17.666h9.296c3.557,0,5.737,1.565,7.574,4.382c1.491,2.399,2.523,9.181,2.523,19.613C106.484,51.989,106.025,57.83,103.846,60.96z
		 M99.6,25.178c-0.804-1.772-2.982-2.816-4.935-2.816h-2.524V60.96c0,0,1.262,0,2.295,0c2.869,0,4.477-1.252,5.278-3.13
		c0.919-1.981,1.492-6.885,1.492-16.064C101.206,32.167,100.288,26.847,99.6,25.178z"/>
	<path fill="#FF0000" d="M125.766,101.751c-6.312,0-9.869-3.339-9.869-11.997v-9.911h4.82v8.347c0,7.197,1.605,9.076,5.049,9.076
		c3.213,0,5.279-1.879,5.279-9.703c0-10.224-1.148-14.918-5.279-24.934c-0.918-2.189-2.64-5.528-3.901-8.345
		c-4.132-8.972-6.427-15.022-6.427-22.951c0-9.598,4.36-14.084,10.559-14.084c7.229,0,9.87,4.799,9.87,12.937
		c0,1.773,0,9.702,0,9.702h-5.052v-9.39c0-5.425-1.031-8.555-4.934-8.555c-3.673,0-5.279,2.608-5.279,9.702
		c0,6.99,2.524,13.146,6.197,20.656c0.573,1.252,2.869,6.05,3.901,8.241c3.673,8.347,5.624,15.544,5.624,26.394
		C136.324,98.204,131.963,101.751,125.766,101.751z"/>
	<path fill="#FF0000" d="M148.6,101.125V90.171h7.347v10.954H148.6z"/>
	<path fill="#FF0000" d="M171.208,101.125V90.171h7.345v10.954H171.208z"/>
	<path fill="#FF0000" d="M193.816,101.125V90.171h7.344v10.954H193.816z"/>
</g>
</svg>
