<?xml version="1.0" encoding="utf-8"?>
<!-- Generator: Adobe Illustrator 16.2.1, SVG Export Plug-In . SVG Version: 6.00 Build 0)  -->
<!DOCTYPE svg PUBLIC "-//W3C//DTD SVG 1.1//EN" "http://www.w3.org/Graphics/SVG/1.1/DTD/svg11.dtd">
<svg version="1.1" id="Layer_1" xmlns="http://www.w3.org/2000/svg" xmlns:xlink="http://www.w3.org/1999/xlink" x="0px" y="0px"
	 width="40px" height="40px" viewBox="5 5 40 40" enable-background="new 5 5 40 40" xml:space="preserve">
<g id="Layer_2">
	<circle fill="#EE2E24" cx="24.999" cy="25" r="19.875"/>
</g>
<g id="Layer_1_1_">
	<path fill="#FFFFFF" d="M21.742,14.482l-2.256,2.325h-3.567c-0.827,0-1.492,0.676-1.492,1.519v13.211
		c0.001,0.844,0.666,1.518,1.492,1.518h18.125c0.826,0,1.488-0.674,1.488-1.518V18.326c0-0.842-0.662-1.519-1.488-1.519h-3.569
		l-2.256-2.325H21.742z M24.98,19.556c2.914,0,5.275,2.409,5.275,5.376c0,2.97-2.361,5.376-5.275,5.376
		c-2.916,0-5.277-2.406-5.277-5.376C19.704,21.964,22.064,19.556,24.98,19.556z M24.98,21.459c-1.884,0-3.411,1.554-3.411,3.474
		c0,1.919,1.527,3.476,3.411,3.476c1.883,0,3.409-1.557,3.409-3.476C28.39,23.013,26.863,21.459,24.98,21.459z"/>
</g>
</svg>
