<?xml version="1.0" encoding="utf-8"?>
<!-- Generator: Adobe Illustrator 16.2.1, SVG Export Plug-In . SVG Version: 6.00 Build 0)  -->
<!DOCTYPE svg PUBLIC "-//W3C//DTD SVG 1.1//EN" "http://www.w3.org/Graphics/SVG/1.1/DTD/svg11.dtd">
<svg version="1.1" id="Layer_1" xmlns="http://www.w3.org/2000/svg" xmlns:xlink="http://www.w3.org/1999/xlink" x="0px" y="0px"
	 width="259px" height="119px" viewBox="152 0 259 119" enable-background="new 152 0 259 119" xml:space="preserve">
<g>
	<path fill="#27BFFF" d="M196.531,22.152v78.973h-5.05V22.152h-7.804v-4.486h20.771v4.486H196.531z"/>
	<path fill="#27BFFF" d="M229.927,101.125V61.169h-9.984v39.956h-5.049V17.666h5.049v39.122h9.984V17.666h5.05v83.459H229.927z"/>
	<path fill="#27BFFF" d="M250.124,101.125h-4.935l9.411-83.459h6.426l7.115,83.459h-4.935c0,0-1.491-19.195-1.491-20.135h-9.641
		C251.961,81.93,250.124,101.125,250.124,101.125z M258.043,38.74c-0.345-3.651-0.688-14.084-0.688-14.084
		s-0.229,10.433-0.688,13.979c-0.345,2.607-4.476,38.182-4.476,38.286h9.41C261.601,76.817,258.272,41.452,258.043,38.74z"/>
	<path fill="#27BFFF" d="M292.931,101.125l-9.984-63.741v63.741h-4.59V17.666h5.623l9.755,62.281V17.666h4.705v83.459H292.931z"/>
	<path fill="#27BFFF" d="M328.965,101.125l-10.213-39.852l-1.723,4.59v35.262h-5.049V17.666h5.049v38.079l11.936-38.079h4.936
		l-11.706,36.827l12.165,46.632H328.965z"/>
	<path fill="#27BFFF" d="M351.205,101.751c-6.312,0-9.869-3.339-9.869-11.997v-9.911h4.82v8.346c0,7.198,1.606,9.076,5.049,9.076
		c3.214,0,5.279-1.878,5.279-9.702c0-10.224-1.147-14.918-5.279-24.934c-0.918-2.19-2.639-5.528-3.901-8.345
		c-4.132-8.972-6.427-15.022-6.427-22.951c0-9.598,4.361-14.084,10.559-14.084c7.229,0,9.869,4.799,9.869,12.937
		c0,1.773,0,9.702,0,9.702h-5.05v-9.39c0-5.425-1.032-8.555-4.935-8.555c-3.672,0-5.279,2.608-5.279,9.702
		c0,6.99,2.525,13.146,6.197,20.656c0.574,1.252,2.869,6.05,3.902,8.241c3.672,8.346,5.623,15.544,5.623,26.394
		C361.764,98.204,357.402,101.751,351.205,101.751z"/>
	<path fill="#27BFFF" d="M373.928,101.125V90.066h5.395v11.059H373.928z M378.633,84.434h-4.131l-0.344-66.768h4.935L378.633,84.434
		z"/>
</g>
</svg>
