<?xml version="1.0" encoding="utf-8"?>
<!-- Generator: Adobe Illustrator 16.2.1, SVG Export Plug-In . SVG Version: 6.00 Build 0)  -->
<!DOCTYPE svg PUBLIC "-//W3C//DTD SVG 1.1//EN" "http://www.w3.org/Graphics/SVG/1.1/DTD/svg11.dtd">
<svg version="1.1" id="Layer_1" xmlns="http://www.w3.org/2000/svg" xmlns:xlink="http://www.w3.org/1999/xlink" x="0px" y="0px"
	 width="671px" height="119px" viewBox="-161 0 671 119" enable-background="new -161 0 671 119" xml:space="preserve">
<g>
	<path d="M-117.032,101.838l-1.167-1.804c-0.233,1.167-3.035,2.334-5.72,2.334c-5.603,0-9.338-2.864-9.572-9.868
		c-0.117-2.122-0.234-25.36-0.234-33.212c0-7.853-0.117-24.193,0-30.984c0.117-7.216,3.619-11.778,10.156-11.778
		c7.004,0,9.338,4.669,9.572,9.444c0.117,4.456,0,16.553,0,16.553h-5.136V27.879c0-4.562-1.634-6.366-4.436-6.366
		c-2.685,0-4.786,2.122-4.786,7.003s-0.117,25.36-0.117,30.984c0,3.82,0.117,28.544,0.117,32.258c0,4.138,1.401,6.473,4.786,6.473
		c2.918,0,4.786-2.017,4.786-6.049V62.259h-6.303v-4.562h11.323v44.142H-117.032z"/>
	<path d="M-103.959,101.838V16.95h18.093v4.562h-12.957v35.122h11.206v4.457h-11.206v36.184h13.074v4.562H-103.959z"/>
	<path d="M-67.66,21.513v80.325h-5.136V21.513h-7.938V16.95h21.128v4.562H-67.66z"/>
	<path d="M-40.712,21.513v80.325h-5.136V21.513h-7.938V16.95h21.128v4.562H-40.712z"/>
	<path d="M-24.371,101.838V16.95h5.253v84.888H-24.371z"/>
	<path d="M7.028,101.838L-3.128,37.005v64.833h-4.669V16.95h5.72l9.922,63.348V16.95h4.786v84.888H7.028z"/>
	<path d="M40.06,101.838l-1.167-1.804c-0.233,1.167-3.035,2.334-5.72,2.334c-5.603,0-9.338-2.864-9.572-9.868
		c-0.117-2.122-0.234-25.36-0.234-33.212c0-7.853-0.117-24.193,0-30.984c0.117-7.216,3.619-11.778,10.156-11.778
		c7.004,0,9.338,4.669,9.572,9.444c0.117,4.456,0,16.553,0,16.553h-5.136V27.879c0-4.562-1.634-6.366-4.436-6.366
		c-2.685,0-4.786,2.122-4.786,7.003S28.62,53.876,28.62,59.5c0,3.82,0.117,28.544,0.117,32.258c0,4.138,1.401,6.473,4.786,6.473
		c2.918,0,4.786-2.017,4.786-6.049V62.259h-6.303v-4.562h11.323v44.142H40.06z"/>
	<path d="M80.213,21.513v80.325h-5.137V21.513h-7.938V16.95h21.128v4.562H80.213z"/>
	<path d="M117.332,29.896c0,4.032,0.116,20.903,0.116,29.286c0,9.126,0,24.512-0.116,30.241
		c-0.117,8.701-3.269,13.052-10.855,13.052c-7.354,0-10.506-4.032-10.623-13.157V30.001c0-8.7,3.386-13.369,10.623-13.369
		S117.215,20.346,117.332,29.896z M111.963,90.803c0.233-3.608,0.233-24.087,0.233-31.621c0-6.048,0-26.846-0.117-30.348
		c-0.116-5.093-1.4-7.428-5.369-7.428c-4.553,0-5.137,3.077-5.37,7.534c-0.233,3.607-0.116,24.512-0.116,30.666
		c0,6.685-0.117,27.376,0.116,31.196c0.233,4.138,1.284,6.896,5.37,6.896C110.562,97.699,111.729,94.622,111.963,90.803z"/>
	<path d="M148.848,29.896c0,4.032,0.116,20.903,0.116,29.286c0,9.126,0,24.512-0.116,30.241
		c-0.117,8.701-3.269,13.052-10.855,13.052c-7.354,0-10.506-4.032-10.623-13.157V30.001c0-8.7,3.386-13.369,10.623-13.369
		S148.73,20.346,148.848,29.896z M143.479,90.803c0.233-3.608,0.233-24.087,0.233-31.621c0-6.048,0-26.846-0.117-30.348
		c-0.116-5.093-1.4-7.428-5.369-7.428c-4.553,0-5.137,3.077-5.37,7.534c-0.233,3.607-0.116,24.512-0.116,30.666
		c0,6.685-0.117,27.376,0.116,31.196c0.233,4.138,1.284,6.896,5.37,6.896C142.077,97.699,143.244,94.622,143.479,90.803z"/>
	<path d="M201.724,101.838l0.117-64.303l-8.288,64.303h-4.669l-7.588-64.196l0.117,64.196h-4.67V16.95h6.188l8.521,69.29
		l8.872-69.29h6.187v84.888H201.724z"/>
	<path d="M227.754,102.368c-6.771,0-10.506-3.396-10.506-10.08c0-0.743,0-75.338,0-75.338h5.136c0,0,0,70.987,0,74.064
		c0,5.199,1.751,6.791,5.253,6.791c3.618,0,4.902-1.91,4.902-6.685c0-2.865,0-74.171,0-74.171h5.137c0,0,0,74.595,0,75.338
		C237.676,98.549,234.523,102.368,227.754,102.368z"/>
	<path d="M269.774,89.636c0,8.595-4.085,12.732-10.738,12.732c-7.121,0-10.39-4.032-10.623-11.247
		c-0.233-7.534-0.233-24.618-0.233-32.47V29.152c0.117-9.868,4.319-12.521,10.739-12.521c7.004,0,10.506,3.926,10.739,11.672
		c0.116,5.093,0.116,10.398,0.116,15.174h-5.485c0-3.502,0.116-12.945-0.117-16.447c-0.233-3.82-2.218-5.411-5.369-5.411
		c-3.269,0-5.253,2.334-5.253,6.26c-0.117,3.714,0,24.512,0,30.878c0,6.792,0.116,28.332,0.233,30.666
		c0.35,6.473,2.218,8.171,5.369,8.171c2.802,0,5.37-1.273,5.37-8.701V75.417h5.252V89.636z"/>
	<path d="M294.52,101.838v-40.64h-10.155v40.64h-5.137V16.95h5.137v39.791h10.155V16.95h5.136v84.888H294.52z"/>
	<path d="M328.251,101.838V16.95h18.094v4.562h-12.957v35.122h11.206v4.457h-11.206v36.184h13.073v4.562H328.251z"/>
	<path d="M379.494,101.838l0.117-64.303l-8.288,64.303h-4.669l-7.588-64.196l0.117,64.196h-4.67V16.95h6.188l8.521,69.29
		l8.872-69.29h6.187v84.888H379.494z"/>
	<path d="M397.236,101.838h-5.02l9.572-84.888h6.536l7.237,84.888h-5.02c0,0-1.517-19.524-1.517-20.479h-9.806
		C399.104,82.313,397.236,101.838,397.236,101.838z M405.29,38.384c-0.35-3.714-0.7-14.324-0.7-14.324s-0.233,10.61-0.7,14.219
		c-0.35,2.652-4.553,38.836-4.553,38.942h9.572C408.909,77.114,405.524,41.143,405.29,38.384z"/>
	<path d="M423.615,101.838V16.95h5.253v84.888H423.615z"/>
	<path d="M440.189,101.838V16.95h5.253v80.325h12.724v4.562H440.189z"/>
	<path d="M474.839,84.86h-4.318c-0.935-27.695,7.236-32.045,7.236-48.704c0-2.335,0-6.367,0-8.383c0-4.351-1.05-6.897-4.085-6.897
		s-4.553,2.44-4.553,6.473c0,1.273,0,7.64,0,8.701h-4.669c0-3.607,0-8.276,0-9.55c0-6.473,3.385-9.868,9.571-9.868
		c5.37,0,8.521,2.971,8.755,10.61c0,3.184,0,8.171,0,10.505C482.776,51.117,474.256,58.863,474.839,84.86z M470.17,101.838V90.59
		h5.486v11.248H470.17z"/>
</g>
</svg>
