<?xml version="1.0" encoding="utf-8"?>
<!-- Generator: Adobe Illustrator 16.2.1, SVG Export Plug-In . SVG Version: 6.00 Build 0)  -->
<!DOCTYPE svg PUBLIC "-//W3C//DTD SVG 1.1//EN" "http://www.w3.org/Graphics/SVG/1.1/DTD/svg11.dtd">
<svg version="1.1" id="Layer_1" xmlns="http://www.w3.org/2000/svg" xmlns:xlink="http://www.w3.org/1999/xlink" x="0px" y="0px"
	 width="40px" height="40px" viewBox="0 0 40 40" enable-background="new 0 0 40 40" xml:space="preserve">
<g>
	<path fill="#EE2E24" d="M20,0.218c5.45,0,10.109,1.934,13.979,5.804c3.869,3.869,5.805,8.529,5.805,13.979
		c0,5.451-1.936,10.109-5.805,13.98C30.109,37.85,25.45,39.783,20,39.783S9.891,37.85,6.021,33.98
		C2.152,30.109,0.217,25.451,0.217,20c0-5.449,1.936-10.109,5.805-13.979C9.891,2.152,14.55,0.218,20,0.218z"/>
	<path fill="#FFFFFF" d="M13.619,28.25c0-0.854,0-15.831,0-16.417c0-0.766,0.842-1.332,1.67-0.886
		c0.665,0.356,13.962,7.575,15.097,8.19c0.746,0.407,0.732,1.374,0,1.778c-0.817,0.453-14.161,7.707-15.129,8.211
		C14.549,29.496,13.619,29.092,13.619,28.25z"/>
</g>
</svg>
