<?xml version="1.0" encoding="utf-8"?>
<!-- Generator: Adobe Illustrator 15.0.0, SVG Export Plug-In . SVG Version: 6.00 Build 0)  -->
<!DOCTYPE svg PUBLIC "-//W3C//DTD SVG 1.1//EN" "http://www.w3.org/Graphics/SVG/1.1/DTD/svg11.dtd">
<svg version="1.1" id="Layer_1" xmlns="http://www.w3.org/2000/svg" xmlns:xlink="http://www.w3.org/1999/xlink" x="0px" y="0px"
	 width="301px" height="62px" viewBox="0 0 301 62" enable-background="new 0 0 301 62" xml:space="preserve">
<path fill="#FF3300" d="M104.494,57.356V25.719c0-6.542-2.936-9.612-8.009-9.612c-6.274,0-8.811,4.672-8.811,4.672v-4.672
	l-13.35,1.469v3.604h3.071v36.177H74.19v3.605h15.886v-3.605H87.94V29.723c0-4.806,1.335-6.809,3.738-6.809
	c1.735,0,2.403,1.068,2.403,3.738v30.704h-2.403v3.605h14.952v-3.605H104.494z M45.355,57.356V4.359h2.804V0.888H32.54
	l-7.742,33.775L16.52,0.888H0.5v3.472h3.337v52.997H0.5v3.605h12.282v-3.605H8.911V20.112l9.745,40.85h5.606l9.612-41.117v37.512
	H30.27v3.605h17.89v-3.605H45.355z M132.262,49.08c0-14.15-15.219-15.085-15.219-24.43c0-3.203,1.602-4.805,4.139-4.805
	c3.871,0,5.874,3.871,6.14,12.014h3.471V18.51c0,0-3.872-2.403-9.746-2.403c-7.075,0-12.815,4.005-12.815,12.148
	c0,13.35,14.818,15.219,14.818,24.296c0,3.605-1.735,5.341-4.539,5.341c-4.272,0-6.408-3.738-6.674-12.95h-3.471v14.418
	c0,0,4.272,2.403,10.545,2.403C126.655,61.763,132.262,57.356,132.262,49.08L132.262,49.08z M244.297,57.356V0.221l-13.75,1.468
	V5.16h3.338v52.197h-2.135v3.605h15.752v-3.605H244.297z M170.842,57.356V4.359h3.07V0.888h-18.289v3.472h3.738v24.83h-11.748V4.359
	h3.871V0.888h-18.556v3.472h3.204v52.997h-3.204v3.605h18.556v-3.605h-3.871V33.328h11.748v24.028h-3.738v3.605h18.289v-3.605
	H170.842z M217.598,36.131v13.616c0,4.006-0.801,5.607-3.07,5.607c-1.734,0-2.535-1.469-2.535-6.274
	C211.992,40.938,212.658,38.935,217.598,36.131L217.598,36.131z M297.562,57.356V25.719c0-6.542-2.936-9.612-8.143-9.612
	c-6.275,0-8.811,4.672-8.811,4.672V0.221l-13.217,1.468V5.16h3.07v52.197h-2.137v3.605h14.686v-3.605h-2.135V29.723
	c0-4.806,1.334-6.809,3.736-6.809c1.736,0,2.404,1.068,2.404,3.738v30.704h-2.404v3.605H300.5v-3.605H297.562z M228.012,27.854
	c0-8.277-3.738-11.748-11.748-11.748s-13.484,5.741-13.484,12.549v2.67h9.213v-6.274c0-3.604,0.801-4.939,2.803-4.939
	s2.803,1.201,2.803,4.939v7.343c-12.146,4.138-15.885,7.209-15.885,17.488c0,8.01,3.203,11.881,8.676,11.881
	c4.672,0,6.809-3.204,8.01-5.206v4.405h11.881v-3.605h-2.268V27.854z M258.982,61.763c6.008,0,8.543-3.738,8.543-9.078V46.01h-4.004
	v6.675c0,2.804-0.4,3.738-1.734,3.738c-1.203,0-1.604-0.802-1.604-3.338V21.046h7.342v-4.138h-7.209V4.493h-4.139l-6.139,12.949
	h-3.605v3.472h3.203v29.636C249.637,58.292,250.973,61.763,258.982,61.763L258.982,61.763z M199.977,46.01h-4.271v1.469
	c0,6.141-1.736,9.078-5.34,9.078c-4.139,0-5.773-2.671-5.773-16.688v-1.067h15.918c0-16.421-3.604-22.829-12.682-22.829
	s-14.951,9.345-14.951,23.762c0,14.285,5.607,22.027,15.219,22.027c8.275,0,11.881-4.673,11.881-14.551V46.01z M187.828,20.779
	c2.002,0,2.938,1.602,2.938,14.151h-6.174C184.859,22.381,185.559,20.779,187.828,20.779L187.828,20.779z M74.458,46.01h-4.272
	v1.469c0,6.141-1.736,9.078-5.34,9.078c-4.139,0-6.14-2.671-6.14-16.688v-1.067h16.286c0-16.421-3.605-22.829-12.683-22.829
	c-9.077,0-14.951,9.345-14.951,23.762c0,14.285,5.606,22.027,15.219,22.027c8.276,0,11.881-4.673,11.881-14.551V46.01z
	 M62.309,20.779c2.003,0,2.937,1.602,2.937,14.151h-6.541C58.972,22.381,60.04,20.779,62.309,20.779L62.309,20.779z M102.893,10.232
	h2.67v7.744h3.337l3.07-12.282v-4.94h-9.078V10.232z"/>
<g>
	<path fill="#808285" d="M300.283,56.089c-0.193,0.197-0.431,0.294-0.708,0.294c-0.278,0-0.512-0.099-0.708-0.294
		c-0.194-0.194-0.292-0.432-0.292-0.713c0-0.273,0.1-0.511,0.294-0.707c0.195-0.192,0.43-0.29,0.706-0.29
		c0.277,0,0.515,0.098,0.708,0.29c0.197,0.193,0.297,0.431,0.297,0.707C300.58,55.654,300.48,55.892,300.283,56.089z
		 M298.967,54.768c-0.169,0.171-0.251,0.372-0.251,0.609c0,0.241,0.082,0.445,0.248,0.615c0.167,0.17,0.372,0.255,0.611,0.255
		c0.24,0,0.443-0.085,0.609-0.255c0.168-0.17,0.253-0.374,0.253-0.615c0-0.237-0.085-0.438-0.253-0.609
		c-0.168-0.168-0.372-0.253-0.609-0.253C299.337,54.513,299.135,54.6,298.967,54.768z M299.555,54.825
		c0.138,0,0.237,0.011,0.302,0.037c0.114,0.05,0.169,0.142,0.169,0.28c0,0.098-0.035,0.169-0.105,0.216
		c-0.038,0.026-0.092,0.045-0.161,0.055c0.088,0.011,0.149,0.051,0.189,0.107c0.038,0.058,0.059,0.115,0.059,0.169v0.082
		c0,0.023,0,0.05,0.002,0.08c0.004,0.029,0.006,0.049,0.011,0.059l0.007,0.015h-0.181c-0.003-0.005-0.003-0.009-0.004-0.013
		c0-0.004,0-0.009-0.003-0.012l-0.005-0.036v-0.087c0-0.126-0.033-0.21-0.102-0.25c-0.041-0.022-0.114-0.034-0.216-0.034h-0.154
		v0.433h-0.192v-1.101H299.555L299.555,54.825z M299.764,54.998c-0.047-0.025-0.125-0.04-0.233-0.04h-0.166v0.397h0.177
		c0.082,0,0.143-0.011,0.186-0.023c0.075-0.031,0.111-0.088,0.111-0.173C299.836,55.079,299.812,55.025,299.764,54.998z"/>
</g>
</svg>
