<?xml version="1.0" encoding="UTF-8" standalone="no"?><!DOCTYPE svg PUBLIC "-//W3C//DTD SVG 1.1//EN" "http://www.w3.org/Graphics/SVG/1.1/DTD/svg11.dtd"><svg width="432" height="261" viewBox="0 0 432 261" xmlns="http://www.w3.org/2000/svg" xmlns:xlink="http://www.w3.org/1999/xlink"><svg width="21" height="21" viewBox="-1 -1 21 21" id="email-md" x="379" y="183.10000000000002"><path d="M.117 3.87c0 .118-.117.235-.117.352v10.673c0 .117 0 .235.117.352l5.63-5.63L.117 3.87zM10.907 11.846c-.35.352-.938.586-1.407.586-.47 0-1.056-.234-1.407-.586L6.568 10.32l-5.63 5.75H17.71c.117 0 .234 0 .352-.117l-5.63-5.63-1.525 1.526z"/><path d="M10.086 11.025l7.976-7.976c-.118 0-.235-.12-.47-.12H1.172c-.115 0-.233 0-.467.118l7.975 7.975c.585.352 1.055.352 1.406 0zM18.883 15.13c0-.118.117-.235.117-.352V4.222c0-.117 0-.234-.117-.352l-5.63 5.63 5.63 5.63z"/></svg><svg width="17" height="17" viewBox="-1 -1 21 21" id="email-sm" x="306.66999999999996" y="67.43"><path d="M.117 3.87c0 .118-.117.235-.117.352v10.673c0 .117 0 .235.117.352l5.63-5.63L.117 3.87zM10.907 11.846c-.35.352-.938.586-1.407.586-.47 0-1.056-.234-1.407-.586L6.568 10.32l-5.63 5.75H17.71c.117 0 .234 0 .352-.117l-5.63-5.63-1.525 1.526z"/><path d="M10.086 11.025l7.976-7.976c-.118 0-.235-.12-.47-.12H1.172c-.115 0-.233 0-.467.118l7.975 7.975c.585.352 1.055.352 1.406 0zM18.883 15.13c0-.118.117-.235.117-.352V4.222c0-.117 0-.234-.117-.352l-5.63 5.63 5.63 5.63z"/></svg><svg width="17" height="17" viewBox="-1 -1 21 21" id="email-wht-sm" x="307" y="225.10000000000002"><g fill="#FFF"><path d="M.117 3.87c0 .118-.117.235-.117.352v10.673c0 .117 0 .235.117.352l5.63-5.63L.117 3.87zM10.907 11.846c-.35.352-.938.586-1.407.586-.47 0-1.056-.234-1.407-.586L6.568 10.32l-5.63 5.75H17.71c.117 0 .234 0 .352-.117l-5.63-5.63-1.525 1.526z"/><path d="M10.086 11.025l7.976-7.976c-.118 0-.235-.12-.47-.12H1.172c-.115 0-.233 0-.467.118l7.975 7.975c.585.352 1.055.352 1.406 0zM18.883 15.13c0-.118.117-.235.117-.352V4.222c0-.117 0-.234-.117-.352l-5.63 5.63 5.63 5.63z"/></g></svg><svg width="28" height="28" viewBox="1 1 28 28" id="expand-wht-26x26" x="222" y="183.10000000000002"><path fill="#FFF" d="M25.64 7.9l-.003-1.87-4.938 4.936c-.462.46-1.21.46-1.672 0-.463-.46-.463-1.208 0-1.67l4.938-4.936h-1.872c-.65 0-1.18-.528-1.18-1.18 0-.652.528-1.18 1.18-1.18h4.725C27.47 2 28 2.53 28 3.18V7.9c0 .652-.528 1.18-1.18 1.18-.653 0-1.183-.527-1.18-1.18zM7.906 4.36H6.033l4.938 4.936c.462.46.464 1.21 0 1.67-.46.46-1.207.46-1.668 0L4.362 6.03V7.9c0 .653-.528 1.182-1.18 1.182C2.53 9.082 2 8.552 2 7.902V3.18C2 2.528 2.53 2 3.182 2h4.724c.65 0 1.182.528 1.182 1.18 0 .653-.53 1.182-1.182 1.18zM4.362 22.103v1.874l4.94-4.938c.46-.46 1.207-.46 1.668 0 .463.46.463 1.21.002 1.67l-4.94 4.936h1.872c.65 0 1.18.527 1.18 1.18 0 .65-.53 1.18-1.18 1.18H3.18c-.652 0-1.18-.528-1.18-1.18V22.1c0-.65.528-1.178 1.18-1.178.653-.002 1.182.53 1.182 1.18zM22.096 25.645h1.872l-4.94-4.937c-.46-.46-.46-1.207 0-1.67.462-.46 1.21-.46 1.672 0l4.94 4.938v-1.873c-.003-.65.527-1.18 1.18-1.18.652.002 1.18.53 1.18 1.18v4.723c0 .652-.527 1.18-1.18 1.18h-4.724c-.653 0-1.18-.527-1.18-1.18 0-.654.526-1.18 1.18-1.18z"/></svg><svg width="32" height="32" viewBox="-1 -1 32 32" id="expand-wht-30x30" x="126" y="183.10000000000002"><path fill="#FFF" d="M27.275 6.81l-.002-2.16-5.698 5.695c-.532.53-1.395.53-1.93 0-.53-.532-.53-1.395 0-1.927l5.7-5.695h-2.16c-.752 0-1.36-.61-1.36-1.362 0-.75.608-1.36 1.36-1.36h5.452C29.39 0 30 .61 30 1.36v5.447c0 .752-.61 1.36-1.362 1.36s-1.365-.606-1.363-1.358zM6.815 2.723h-2.16l5.697 5.695c.532.532.534 1.395 0 1.927-.53.53-1.394.53-1.926 0l-5.7-5.694v2.16c0 .75-.61 1.36-1.362 1.36C.61 8.17 0 7.56 0 6.81V1.36C0 .61.61 0 1.364 0h5.45C7.567 0 8.18.61 8.18 1.362s-.612 1.363-1.363 1.36zM2.725 23.195v2.162l5.7-5.698c.532-.53 1.394-.53 1.926 0 .535.532.535 1.395.003 1.926l-5.7 5.695h2.16c.75 0 1.363.61 1.363 1.363 0 .75-.612 1.36-1.363 1.362h-5.45c-.753 0-1.363-.61-1.363-1.36v-5.45c0-.75.61-1.36 1.362-1.36.753-.002 1.363.61 1.363 1.36zM23.187 27.28h2.16l-5.7-5.694c-.532-.53-.532-1.393 0-1.927.532-.53 1.396-.53 1.93 0l5.7 5.696v-2.16c-.003-.75.608-1.36 1.36-1.36.754 0 1.363.61 1.363 1.36v5.448c0 .752-.61 1.36-1.362 1.362h-5.45c-.754 0-1.363-.61-1.363-1.362s.61-1.363 1.362-1.363z"/></svg><svg width="21" height="21" viewBox="-306.5 395.5 21 21" id="facebook-md" y="225.10000000000002"><path fill="#010101" d="M-291.246 406.814l.542-3.395h-3.664v-2.172c0-.95.27-1.63 1.897-1.63h1.897v-2.984c-.404 0-1.49-.136-2.85-.136-2.85 0-4.75 1.63-4.75 4.48v2.44h-3.256v3.394h3.257v8.686h3.8v-8.686l3.127.002z"/></svg><svg width="17" height="17" viewBox="-306.5 395.5 17 17" id="facebook-sm" x="358" y="225.10000000000002"><path fill="#010101" d="M-293.75 404.643l.428-2.678h-2.892v-1.715c0-.75.213-1.285 1.498-1.285h1.498v-2.358c-.318 0-1.177-.106-2.248-.106-2.25 0-3.75 1.287-3.75 3.536v1.93h-2.57v2.678h2.57v6.857h3v-6.856h2.466z"/></svg><svg width="21" height="21" viewBox="-306.5 395.5 21 21" id="facebook-white-19x19" x="316" y="183.10000000000002"><path fill="#FFF" d="M-292.246 406.728l.484-3.034h-3.277v-1.944c0-.854.242-1.454 1.7-1.454h1.695v-2.672c-.36 0-1.334-.123-2.547-.123-2.553 0-4.25 1.458-4.25 4.01v2.185h-2.915v3.034h2.915v7.77h3.4v-7.77h2.796v-.002z"/></svg><svg width="22" height="22" viewBox="-306.5 395.5 22 22" id="facebook-white-20x20" x="272" y="183.10000000000002"><path fill="#FFF" d="M-290.997 407.356l.57-3.57h-3.854V401.5c0-1.003.282-1.714 1.996-1.714h1.997v-3.144c-.425 0-1.57-.143-2.997-.143-3.002 0-5 1.714-5 4.712v2.574h-3.43v3.57h3.43v9.143h4v-9.144h3.287z"/></svg><svg width="17" height="17" viewBox="-306 396 17 17" id="facebook-wht-sm" x="341" y="225.10000000000002"><path fill="#FFF" d="M-294 405.1l.4-2.5h-2.7V401c0-.7.2-1.2 1.4-1.2h1.397v-2.2c-.297 0-1.098-.1-2.098-.1-2.102 0-3.5 1.2-3.5 3.3v1.8h-2.4v2.5h2.4v6.4h2.8v-6.4h2.3z"/></svg><svg width="21" height="21" viewBox="-306.5 395.5 21 21" id="googleplus-md" x="105" y="225.10000000000002"><path fill="#010101" d="M-295.282 401.75c0-1.623-.193-2.578-1.435-3.246 0-.384 2.293-.19 2.293-.955h-5.06s-4.966.19-4.966 4.393c0 4.296 4.392 3.818 4.392 3.818v1.147c0 .382.573.29.668 1.145-.286 0-6.11-.188-6.11 3.727s5.155 3.72 5.155 3.72 6.016.288 6.016-4.58c0-2.866-3.436-3.82-3.436-4.966.002-1.244 2.484-1.53 2.484-4.203zm-8.212 10.025c-.097-1.528 1.53-2.866 3.532-2.96 2.102-.1 3.82.952 3.916 2.48.094 1.527-1.528 2.863-3.63 2.96-1.908.098-3.723-1.048-3.818-2.48zm2.768-13.177c1.24-.38 2.58.766 3.056 2.48.383 1.722-.19 3.345-1.432 3.727-1.146.286-2.578-.858-3.057-2.575-.38-1.722.195-3.346 1.434-3.632zm10.98 1.24v-3.34h-1.05v3.342h-3.246v1.05h3.246v3.246h1.05v-3.342h3.247v-.955h-3.245z"/></svg><svg width="17" height="17" viewBox="-306.5 395.5 17 17" id="googleplus-sm" x="408.66999999999996" y="67.43"><path fill="#010101" d="M-297.434 400.646c0-1.28-.152-2.035-1.132-2.562 0-.303 1.81-.15 1.81-.754h-3.994s-3.918.15-3.918 3.467c0 3.39 3.466 3.016 3.466 3.016v.902c0 .302.452.23.528.904-.226 0-4.824-.15-4.824 2.938 0 3.092 4.07 2.938 4.07 2.938s4.75.227 4.75-3.617c0-2.262-2.714-3.016-2.714-3.92 0-.978 1.958-1.204 1.958-3.314zm-6.482 7.913c-.076-1.206 1.206-2.263 2.788-2.337 1.66-.076 3.015.753 3.09 1.958.074 1.207-1.206 2.262-2.864 2.338-1.507.076-2.94-.83-3.014-1.96zm2.186-10.402c.98-.3 2.035.604 2.412 1.96.303 1.356-.15 2.638-1.13 2.94-.905.225-2.035-.68-2.413-2.035-.302-1.357.15-2.64 1.13-2.865zm8.667.98V396.5h-.83v2.64h-2.562v.828h2.562v2.562h.83v-2.638h2.562v-.754h-2.563z"/></svg><svg width="17" height="17" viewBox="1.45 1.45 17 17" id="googleplus-wht-sm" x="391.66999999999996" y="67.43"><path fill="#FFF" d="M10.515 6.597c0-1.28-.15-2.035-1.13-2.562 0-.302 1.81-.15 1.81-.754H7.198s-3.92.15-3.92 3.468c0 3.39 3.467 3.015 3.467 3.015v.903c0 .302.452.228.528.905-.226 0-4.824-.15-4.824 2.94s4.07 2.938 4.07 2.938 4.75.227 4.75-3.617c0-2.26-2.713-3.013-2.713-3.918 0-.98 1.958-1.205 1.958-3.315zm-6.48 7.913c-.077-1.206 1.205-2.262 2.787-2.336 1.658-.076 3.015.753 3.09 1.958.075 1.206-1.206 2.26-2.864 2.337-1.507.075-2.94-.83-3.014-1.96zm2.184-10.4c.978-.302 2.034.603 2.41 1.96.303 1.356-.15 2.637-1.13 2.94-.904.224-2.034-.68-2.412-2.036-.3-1.357.152-2.64 1.13-2.864zm8.666.98V2.45h-.83V5.09h-2.56v.83h2.56v2.56h.83V5.844h2.562V5.09h-2.562z"/></svg><svg width="431.58" height="67.43" viewBox="-1 -1 431.58 67.43" id="gq-gentlemens-upgrade"><g fill="#FFF"><path d="M14.81 59.317s-.073-6.484-.073-13.19V28.074H6.613v4.42h3.772v18.717c0 2.73-1.016 4.055-2.83 4.055-1.957 0-2.828-1.475-2.828-4.35 0-2.504-.072-18.052-.072-21 0-3.904.072-17.242.072-20.778 0-3.168 1.16-4.348 2.757-4.348 1.668 0 2.61.957 2.61 3.978v9.947h4.426s.073-8.548 0-11.348C14.302 3.832 12.634 0 7.483 0 2.623 0 .3 3.758.156 8.695-.062 13.41.01 24.39.01 29.842c0 5.453.146 20.56.217 22.18.218 5.38 2.83 7.664 6.82 7.664 1.812 0 3.77-.81 4.497-2.432l.218 2.063h3.048zM33.742 57.99c1.74-1.178 2.902-4.05 2.975-8.325.072-3.832.072-13.706.072-20.042 0-5.82-.073-16.875-.073-19.748-.218-6.78-2.757-9.8-7.834-9.8-5.368 0-7.69 3.905-7.69 10.095 0 1.18-.072 14.074-.072 19.527s.074 18.716.074 20.043c.072 6.484 2.394 8.62 5.875 9.432.725.147 1.522.147 2.175.147.218.367 1.306 1.84 2.394 3.02 1.305 1.4 2.393 2.505 3.118 3.096l2.684-3.76c-.435-.294-1.233-1.03-2.176-1.915-.87-.81-1.16-1.4-1.524-1.77zm-4.86-2.578c-2.176 0-2.902-1.327-3.047-4.57-.145-2.577-.073-16.06-.073-20.557 0-4.126-.072-18.2.073-20.78.145-2.726.508-4.79 3.12-4.79 2.32 0 3.046 1.4 3.118 4.495.073 2.652.073 16.58.073 20.632 0 5.158 0 18.495-.145 21-.144 3.243-1.16 4.57-3.118 4.57zM69.648 59.317s-.072-6.484-.072-13.19V28.074H61.45v4.42h3.773v18.717c0 2.73-1.016 4.055-2.83 4.055-1.957 0-2.828-1.475-2.828-4.35 0-2.504-.073-18.052-.073-21 0-3.904.073-17.242.073-20.778 0-3.168 1.16-4.348 2.756-4.348 1.67 0 2.613.957 2.613 3.978v9.947h4.425s.073-8.548 0-11.348C69.14 3.832 67.472 0 62.322 0c-4.86 0-7.182 3.758-7.327 8.695-.217 4.716-.145 15.695-.145 21.147 0 5.453.145 20.56.218 22.18.218 5.38 2.83 7.664 6.82 7.664 1.812 0 3.77-.81 4.497-2.432l.218 2.063h3.045zM89.452 59.317v-4.42h-8.56V31.758h7.472v-4.422h-7.472V4.79h8.487V.37H76.393v58.948h13.058zM109.907 59.317V.37h-4.135v41.705L99.97.37h-4.86v58.948h4.06V21.074l5.66 38.243h5.077zM130.58 4.79V.37h-14.943v4.42h5.15v54.528h4.57V4.79h5.224zM149.513 59.317v-4.42h-8.632V.368h-4.57v58.948h13.203zM168.445 59.317v-4.42h-8.56V31.758h7.472v-4.422h-7.472V4.79h8.487V.37h-12.985v58.948h13.058zM195.865 59.317V.37h-5.513l-5.44 44.21L179.76.37h-5.66v58.948h4.136V18.643l4.643 40.675h3.918l4.933-40.75v40.75h4.135zM206.89 44.95h5.876c.073 1.62.87 14.368.87 14.368h4.498L213.42.368h-6.02l-6.022 58.95h4.425s1.087-12.748 1.087-14.37zm5.586-4.423h-5.15s2.176-21.442 2.32-23.506c.073-1.474.51-11.2.51-11.2s.362 9.8.362 11.274c0 1.475 1.958 23.433 1.958 23.433zM238.516 59.317V.37h-4.136v41.705L228.577.37h-4.86v58.948h4.063V21.074l5.657 38.243h5.08zM245.552 8.548h1.378v.442l-1.958 4.79 2.466 1.104 3.41-5.748V.37h-5.296v8.178zM271.23 48.56c0-7.148-1.162-12.527-3.99-18.496-.87-1.842-1.887-3.832-2.758-5.526-2.466-4.716-3.7-9.062-3.7-13.78 0-4.493.726-6.188 2.902-6.188 2.32 0 2.9 1.99 2.9 5.453v6.483h4.425s-.073-6.264-.073-6.632c-.072-5.82-1.958-9.8-7.182-9.8-4.86 0-7.69 3.61-7.69 10.242 0 6.558 1.38 10.758 4.353 16.727.8 1.62 2.104 4.42 2.758 5.82 2.54 5.748 3.336 9.875 3.336 16.506 0 4.862-1.088 6.19-3.047 6.19-1.74 0-2.9-1.106-2.9-4.2v-7.443h-4.208v8.327c0 4.79 2.61 7.516 7.327 7.516 4.788 0 7.545-2.948 7.545-11.2zM303.58 51.433V.37h-4.498v50.62c0 3.096-.725 4.275-2.828 4.275-2.03 0-3.047-.958-3.047-4.35V.37h-4.498v51.064c0 5.6 2.9 8.325 7.616 8.325 4.86.002 7.254-3.092 7.254-8.324zM325.558 17.61c0-7.294-.725-12.083-1.885-13.925-1.232-2.138-2.83-3.316-5.37-3.316h-7.325v58.948h4.498V34.706s1.45.074 2.684-.074c2.467-.294 4.135-1.325 5.37-3.24 1.52-2.36 2.028-6.486 2.028-13.78zm-4.64.148c0 5.675-.292 8.55-.872 9.948-.582 1.4-1.162 2.505-3.193 2.58h-1.377V4.935h1.596c.943 0 2.03.442 2.83 2.358.508 1.18 1.015 4.79 1.015 10.464zM346.45 59.317s-.073-6.484-.073-13.19V28.074h-8.125v4.42h3.773v18.717c0 2.73-1.016 4.055-2.83 4.055-1.96 0-2.83-1.475-2.83-4.35 0-2.504-.072-18.052-.072-21 0-3.904.072-17.242.072-20.778 0-3.168 1.162-4.348 2.758-4.348 1.668 0 2.61.957 2.61 3.978v9.947h4.425s.072-8.548 0-11.348C345.943 3.832 344.275 0 339.125 0c-4.86 0-7.182 3.758-7.328 8.695-.217 4.716-.145 15.695-.145 21.147 0 5.453.145 20.56.217 22.18.218 5.38 2.83 7.664 6.817 7.664 1.814 0 3.773-.81 4.498-2.432l.22 2.063h3.046zM367.414 16.285c0-4.642-.217-8.104-.58-9.8-.87-3.905-2.756-6.116-6.746-6.116h-6.89v58.948h4.35v-27.78l2.25-.074 4.136 27.854h4.715l-4.716-29.253c.943-.37 2.03-2.284 2.54-3.758.65-2.138.94-5.16.94-10.022zm-4.715.736c0 2.285-.218 6.56-.728 7.96-.29.957-.797 1.915-2.03 2.06-.653.148-2.25.148-2.32.148v-22.4h2.103c1.598 0 2.54 1.62 2.686 3.832.07.738.29 5.38.29 8.4zM378.076 44.95h5.877c.072 1.62.87 14.368.87 14.368h4.5L384.604.368h-6.02l-6.02 58.95h4.425c-.002 0 1.086-12.748 1.086-14.37zm5.586-4.423h-5.15s2.176-21.442 2.322-23.506c.072-1.474.508-11.2.508-11.2s.36 9.8.36 11.274c0 1.475 1.96 23.433 1.96 23.433zM409.123 53.496c.652-2.947.652-18.2.652-24.98 0-12.452-.145-19.6-.652-22.252-.8-3.685-3.12-5.896-7.545-5.896h-6.674v58.95h7.545c4.64 0 6.018-2.875 6.673-5.822zm-3.918-1.695c-.072 2.434-1.305 3.317-2.61 3.317h-3.192V4.863h2.395c1.885 0 3.408 1.62 3.408 4.716 0 2.136.074 16.727.074 18.863s-.003 20.927-.075 23.358zM429.578 59.317v-4.42h-8.56V31.758h7.472v-4.422h-7.473V4.79h8.486V.37H416.52v58.948h13.058z"/></g></svg><svg width="21" height="21" viewBox="3.9 3.9 21 21" id="hamburger" x="337" y="183.10000000000002"><path d="M4.9 7.275h19v2.85h-19zM4.9 12.975h19v2.85h-19zM4.9 18.675h19v2.85h-19z"/></svg><svg width="21" height="21" viewBox="3.9 3.9 21 21" id="hamburger-md" x="358" y="183.10000000000002"><path d="M4.9 7.275h19v2.85h-19zM4.9 12.975h19v2.85h-19zM4.9 18.675h19v2.85h-19z"/></svg><svg width="32" height="32" viewBox="-1 -1 32 32" id="icon-close-mobile-white" x="391" y="86.10000000000001"><path fill-rule="evenodd" clip-rule="evenodd" fill="#FFF" d="M8.282 6.16L23.84 21.718l-2.122 2.122L6.16 8.28l2.122-2.12z"/><path fill-rule="evenodd" clip-rule="evenodd" fill="#FFF" d="M21.718 6.16L6.16 21.718l2.122 2.122L23.84 8.28l-2.122-2.12z"/></svg><svg width="22" height="22" viewBox="14 11.67 22 22" id="icon-more-arrow" x="250" y="183.10000000000002"><path fill="#EC3028" d="M33.5 23.886l1.216-1.215h.01L33.5 21.445v-.01h-.01l-7.487-7.487-1.732 1.732 5.755 5.755h-14.75v2.45h14.76l-5.764 5.764 1.733 1.733 7.495-7.495h.002"/></svg><svg width="42" height="42" viewBox="-1 -1 42 42" id="icon_arrow_gallery_left_grey" x="97" y="128.10000000000002"><g fill-rule="evenodd" clip-rule="evenodd" fill="#636464"><path d="M9.847 21.44L8.407 20 25.876 2.542l1.44 1.44z"/><path d="M8.41 20l1.44-1.438 17.46 17.46-1.44 1.44z"/></g></svg><svg width="42" height="42" viewBox="-1 -1 42 42" id="icon_arrow_gallery_left_wht" x="139" y="128.10000000000002"><g fill-rule="evenodd" clip-rule="evenodd" fill="#FFF"><path d="M11.108 21.44L9.668 20 27.13 2.54l1.44 1.44z"/><path d="M9.67 19.997l1.44-1.44 17.456 17.466-1.44 1.44z"/></g></svg><svg width="42" height="42" viewBox="-1 -1 42 42" id="icon_arrow_gallery_right_grey" x="181" y="128.10000000000002"><g fill-rule="evenodd" clip-rule="evenodd" fill="#636464"><path d="M14.52 3.984l1.44-1.44L33.424 20l-1.44 1.44z"/><path d="M15.962 37.462l-1.44-1.44 17.46-17.46 1.44 1.44z"/></g></svg><svg width="42" height="42" viewBox="-1 -1 42 42" id="icon_arrow_gallery_right_wht" x="223" y="128.10000000000002"><g fill-rule="evenodd" clip-rule="evenodd" fill="#FFF"><path d="M9.773 3.983l1.44-1.44L28.678 20l-1.44 1.44z"/><path d="M11.216 37.463l-1.44-1.44 17.46-17.46L28.677 20z"/></g></svg><svg width="42" height="42" viewBox="-1 -1 42 42" id="icon_grid_view_grey" x="97" y="86.10000000000001"><path fill-rule="evenodd" clip-rule="evenodd" fill="#737474" d="M10.5 19h5v5h-5v-5zM10.5 12h5v5h-5v-5zM17.5 12h5v5h-5v-5zM17.5 19h5v5h-5v-5zM10.5 26h5v5h-5v-5zM17.5 26h5v5h-5v-5zM24.5 12h5v5h-5v-5zM24.5 19h5v5h-5v-5zM24.5 26h5v5h-5v-5z"/></svg><svg width="42" height="42" viewBox="-1 -1 42 42" id="icon_grid_view_red" x="307" y="128.10000000000002"><path fill-rule="evenodd" clip-rule="evenodd" fill="#ED1F24" d="M10.5 19h5v5h-5v-5zM10.5 12h5v5h-5v-5zM17.5 12h5v5h-5v-5zM17.5 19h5v5h-5v-5zM10.5 26h5v5h-5v-5zM17.5 26h5v5h-5v-5zM24.5 12h5v5h-5v-5zM24.5 19h5v5h-5v-5zM24.5 26h5v5h-5v-5z"/></svg><svg width="42" height="42" viewBox="-1 -1 42 42" id="icon_less_mobile" x="349" y="128.10000000000002"><path fill-rule="evenodd" clip-rule="evenodd" fill="#ED1F24" d="M10 18.5h20v2H10z"/></svg><svg width="42" height="42" viewBox="-1 -1 42 42" id="icon_more_mobile" y="183.10000000000002"><path fill-rule="evenodd" clip-rule="evenodd" fill="#ED1F24" d="M19.416 9.5h2v20h-2z"/><path fill-rule="evenodd" clip-rule="evenodd" fill="#ED1F24" d="M10.416 18.5h20v2h-20z"/></svg><svg width="42" height="42" viewBox="-1 -1 42 42" id="icon_replay" x="42" y="183.10000000000002"><path fill="#ED1F24" d="M20 2.18c-9.67 0-17.536 7.865-17.536 17.528 0 4.716 1.927 9.25 5.302 12.528L4.79 35.21l10.387 1.76-1.762-10.38-3.34 3.336c-2.75-2.69-4.32-6.385-4.32-10.218 0-7.85 6.39-14.237 14.244-14.237 7.856 0 14.244 6.388 14.244 14.238 0 7.852-6.388 14.237-14.245 14.237h-.512v3.29h.51c9.67 0 17.537-7.862 17.537-17.527C37.535 10.045 29.67 2.18 20 2.18z"/></svg><svg width="42" height="42" viewBox="-1 -1 42 42" id="icon_slideshow" x="84" y="183.10000000000002"><path fill="#FFF" d="M15.39 9l-2.67 2.754H8.492c-.98 0-1.767.8-1.767 1.8V29.2c0 .998.788 1.798 1.767 1.798h21.47c.978 0 1.764-.8 1.764-1.798v-15.65c0-.997-.785-1.798-1.765-1.798h-4.228L23.062 9h-7.67zm3.837 6.01c3.453 0 6.25 2.853 6.25 6.367 0 3.518-2.797 6.368-6.25 6.368s-6.25-2.85-6.25-6.368c0-3.515 2.797-6.367 6.25-6.367zm0 2.253c-2.232 0-4.04 1.84-4.04 4.114s1.808 4.117 4.04 4.117c2.23 0 4.04-1.843 4.04-4.117s-1.81-4.114-4.04-4.114z"/></svg><svg width="42" height="42" viewBox="-1 -1 42 42" id="icon_slideshow_arrow_left_wht" x="349" y="86.10000000000001"><g fill-rule="evenodd" clip-rule="evenodd" fill="#FFF"><path d="M10.353 23.654l-2.155-2.156L18.98 10.72l2.157 2.157z"/><path d="M21.134 30.122l-2.156 2.156-10.78-10.78 2.155-2.156z"/><path d="M10.463 19.975h21.34v3.05h-21.34z"/></g></svg><svg width="42" height="42" viewBox="-1 -1 42 42" id="icon_slideshow_arrow_right_wht" x="307" y="86.10000000000001"><g fill-rule="evenodd" clip-rule="evenodd" fill="#FFF"><path d="M18.866 12.876l2.155-2.157 10.785 10.777-2.156 2.156z"/><path d="M29.648 19.342l2.155 2.156-10.78 10.78-2.156-2.156z"/><path d="M8.197 19.975h21.34v3.05H8.198z"/></g></svg><svg width="42" height="42" viewBox="-1 -1 42 42" id="icon_slideshow_mobile" x="181" y="86.10000000000001"><path fill="#ED1F24" d="M16.39 8.795l-2.67 2.754H9.492c-.98 0-1.767.8-1.767 1.798v15.65c0 .997.788 1.797 1.767 1.797h21.47c.978 0 1.764-.8 1.764-1.798v-15.65c0-.997-.785-1.798-1.765-1.798h-4.228l-2.672-2.755h-7.67zm3.837 6.01c3.453 0 6.25 2.853 6.25 6.367 0 3.518-2.797 6.368-6.25 6.368s-6.25-2.85-6.25-6.368c0-3.515 2.797-6.367 6.25-6.367zm0 2.253c-2.232 0-4.04 1.84-4.04 4.114s1.808 4.117 4.04 4.117c2.23 0 4.04-1.844 4.04-4.118s-1.81-4.114-4.04-4.114z"/></svg><svg width="42" height="42" viewBox="-1 -1 42 42" id="icon_swipe_arrow_left" x="139" y="86.10000000000001"><g fill-rule="evenodd" clip-rule="evenodd" fill="#ED1F24"><path d="M9.45 22.026l-.706-.708 8.5-8.5.707.708-8.5 8.5z"/><path d="M17.244 29.818l.707-.707-8.5-8.5-.706.708 8.5 8.5z"/><path d="M9.956 21.833v-1h22v1h-22z"/></g></svg><svg width="42" height="42" viewBox="-1 -1 42 42" id="icon_swipe_arrow_right" x="265" y="128.10000000000002"><g fill-rule="evenodd" clip-rule="evenodd" fill="#ED1F24"><path d="M22.4 13.526l.706-.707 8.5 8.498-.707.708-8.5-8.5z"/><path d="M31.606 21.318l-.707-.707-8.5 8.5.706.708 8.5-8.5z"/><path d="M8.395 21.833v-1h22v1h-22z"/></g></svg><svg width="21" height="21" viewBox="-306.5 395.5 21 21" id="instagram-md" x="400" y="183.10000000000002"><path d="M-288.718 404.1h-1.426c.16.793.16 1.267.16 1.743 0 3.165-2.693 6.014-5.86 6.014-3.166 0-5.858-2.85-5.858-6.014 0-.477 0-.95.158-1.743h-1.738v8.552c0 .474.317.474.792.474h13.142c.474 0 .474 0 .474-.474V404.1h.156zm0-4.275c0-.477-.314-1.11-.792-1.11h-2.375c-.473 0-.79.634-.79 1.11v2.375c0 .473.317.315.79.315h2.375c.477 0 .792 0 .792-.315v-2.375zm-7.124 2.69c-2.058 0-3.642 1.585-3.642 3.643 0 2.06 1.583 3.64 3.642 3.64 2.06 0 3.642-1.58 3.642-3.64.003-2.058-1.582-3.642-3.642-3.642m7.124 12.827h-14.407c-1.266 0-2.375-.79-2.375-2.06v-14.408c0-1.266 1.11-2.375 2.375-2.375h14.567c1.268 0 2.058 1.11 2.058 2.375v14.407c0 1.266-.792 2.218-2.058 2.218"/></svg><svg width="17" height="17" viewBox="-306.5 395.5 17 17" id="instagram-sm" x="374.66999999999996" y="67.43"><path d="M-292.25 402.5h-1.127c.126.624.126 1 .126 1.373 0 2.5-2.127 4.75-4.626 4.75-2.5 0-4.626-2.25-4.626-4.75 0-.374 0-.75.125-1.373h-1.372v6.75c0 .374.25.374.626.374h10.375c.375 0 .375 0 .375-.375v-6.75h.124zm0-3.376c0-.377-.25-.878-.625-.878h-1.875c-.374 0-.626.5-.626.878V401c0 .373.252.248.626.248h1.875c.376 0 .624 0 .624-.25v-1.874zm-5.625 2.124c-1.625 0-2.875 1.252-2.875 2.874 0 1.626 1.25 2.876 2.875 2.876 1.626 0 2.876-1.25 2.876-2.876.002-1.622-1.25-2.874-2.875-2.874m5.624 10.126h-11.375c-1 0-1.875-.623-1.875-1.626v-11.373c0-1 .876-1.875 1.875-1.875h11.5c1 0 1.625.876 1.625 1.875v11.373c0 1-.624 1.752-1.625 1.752"/></svg><svg width="17" height="17" viewBox="-306.5 395.5 17 17" id="instagram-wht-sm" x="323.66999999999996" y="67.43"><path fill="#FFF" d="M-292.25 402.5h-1.127c.126.624.126 1 .126 1.373 0 2.5-2.127 4.75-4.626 4.75-2.5 0-4.626-2.25-4.626-4.75 0-.374 0-.75.125-1.373h-1.372v6.75c0 .374.25.374.626.374h10.375c.375 0 .375 0 .375-.375v-6.75h.124zm0-3.376c0-.377-.25-.878-.625-.878h-1.875c-.374 0-.626.5-.626.878V401c0 .373.252.248.626.248h1.875c.376 0 .624 0 .624-.25v-1.874zm-5.625 2.124c-1.625 0-2.875 1.252-2.875 2.874 0 1.626 1.25 2.876 2.875 2.876 1.626 0 2.876-1.25 2.876-2.876.002-1.622-1.25-2.874-2.875-2.874m5.624 10.126h-11.375c-1 0-1.875-.623-1.875-1.626v-11.373c0-1 .876-1.875 1.875-1.875h11.5c1 0 1.625.876 1.625 1.875v11.373c0 1-.624 1.752-1.625 1.752"/></svg><svg width="21" height="21" viewBox="-1 -1 21 21" id="linkedin-md" x="252" y="225.10000000000002"><path d="M14.25 5.97c-1.9 0-3.257 1.087-3.664 2.037V6.243h-3.8v12.62h3.935V12.62c0-1.626.274-3.255 2.31-3.255 2.035 0 2.035 1.9 2.035 3.393v6.107H19v-6.92c0-3.258-.814-5.973-4.75-5.973zM2.307 0C1.087 0 0 1.086 0 2.307 0 3.53 1.086 4.614 2.307 4.614c1.222 0 2.307-1.085 2.307-2.307C4.614 1.087 3.53 0 2.307 0zM.27 6.38h3.937V19H.27z"/></svg><svg width="17" height="17" viewBox="-1 -1 21 21" id="linkedin-sm" x="289.66999999999996" y="67.43"><path d="M14.25 5.97c-1.9 0-3.257 1.087-3.664 2.037V6.243h-3.8v12.62h3.935V12.62c0-1.626.274-3.255 2.31-3.255 2.035 0 2.035 1.9 2.035 3.393v6.107H19v-6.92c0-3.258-.814-5.973-4.75-5.973zM2.307 0C1.087 0 0 1.086 0 2.307 0 3.53 1.086 4.614 2.307 4.614c1.222 0 2.307-1.085 2.307-2.307C4.614 1.087 3.53 0 2.307 0zM.27 6.38h3.937V19H.27z"/></svg><svg width="17" height="17" viewBox="-1 -1 21 21" id="linkedin-wht-sm" x="238.67" y="67.43"><g fill="#FFF"><path d="M14.25 5.97c-1.9 0-3.257 1.087-3.664 2.037V6.243h-3.8v12.62h3.935V12.62c0-1.626.274-3.255 2.31-3.255 2.035 0 2.035 1.9 2.035 3.393v6.107H19v-6.92c0-3.258-.814-5.973-4.75-5.973zM2.307 0C1.087 0 0 1.086 0 2.307 0 3.53 1.086 4.614 2.307 4.614c1.222 0 2.307-1.085 2.307-2.307C4.614 1.087 3.53 0 2.307 0zM.27 6.38h3.937V19H.27z"/></g></svg><svg width="32" height="32" viewBox="-1 -1 32 32" id="logo-facebook-white" x="158" y="183.10000000000002"><path fill="#FFF" d="M7.74 10.418h2.72V7.775c0-1.165.03-2.962.876-4.077.89-1.178 2.116-1.98 4.22-1.98 3.433 0 4.877.49 4.877.49l-.68 4.03s-1.136-.328-2.192-.328c-1.058 0-2.003.378-2.003 1.436v3.072h4.336l-.304 3.935h-4.033v13.67H10.46v-13.67H7.74v-3.935z"/></svg><svg width="32" height="32" viewBox="-1 -1 32 32" id="logo-pinterest-white" x="190" y="183.10000000000002"><path fill="#FFF" d="M13.89 19.654c-.758 3.97-1.683 7.777-4.423 9.766-.843-6 1.243-10.508 2.213-15.293-1.652-2.78.197-8.38 3.683-7 4.29 1.696-3.713 10.342 1.66 11.424 5.61 1.126 7.9-9.735 4.42-13.267-5.025-5.1-14.63-.116-13.447 7.187.285 1.784 2.128 2.326.734 4.79-3.217-.713-4.176-3.252-4.054-6.633.2-5.537 4.975-9.413 9.766-9.95C20.502 0 26.187 2.902 26.972 8.6c.884 6.433-2.733 13.398-9.213 12.897-1.757-.136-2.494-1.007-3.87-1.843zm0 0"/></svg><svg width="21" height="21" viewBox="-1 -1 21 21" id="minus-md" x="147" y="225.10000000000002"><path d="M0 8.143h19v2.714H0z"/></svg><svg width="17" height="17" viewBox="-1 -1 21 21" id="minus-sm" x="187.67" y="67.43"><path d="M0 8.143h19v2.714H0z"/></svg><svg width="17" height="17" viewBox="-1 -1 21 21" id="minus-wht-sm" x="357.66999999999996" y="67.43"><path fill="#FFF" d="M0 8.143h19v2.714H0z"/></svg><svg width="21" height="21" viewBox="-306.5 395.5 21 21" id="pinterest-md" x="210" y="225.10000000000002"><path fill="#010101" d="M-290.818 409.725c.986-.844 1.688-1.97 2.112-3.376.423-1.405.562-2.813.423-4.083 0-.7-.283-1.406-.704-2.11-.424-.705-.845-1.268-1.408-1.69-.424-.42-1.126-.98-1.83-1.262-.704-.28-1.408-.562-2.253-.705-1.126 0-2.393 0-3.518.28-1.126.28-2.11.705-2.956 1.408-.844.704-1.548 1.406-2.11 2.39-.424.846-.706 1.973-.706 3.1 0 1.122.14 2.11.562 2.812.424.703 1.127 1.267 2.112 1.688.283-.28.562-.706.562-.985 0-.28 0-.562-.14-.846-.143-.28-.424-.562-.564-.847-.14-.277-.28-.702-.28-.982-.143-.983.14-1.97.56-2.954.423-.845 1.128-1.55 1.97-2.25.845-.565 1.83-.988 2.815-.988.983-.14 2.11.143 3.095.844.702.425 1.265 1.13 1.55 2.114.42 1.13.42 2.112.42 3.237-.14.98-.42 1.97-.986 2.952-.42.848-1.126 1.407-2.11 1.554-.282.142-.703.142-1.126 0-.282-.145-.563-.28-.703-.426-.422-.422-.704-.844-.562-1.406 0-.562.14-1.125.42-1.69.143-.56.425-1.123.564-1.825.14-.563.14-1.268-.14-1.83-.142-.425-.423-.707-.845-.845-.424-.142-.705 0-1.126.14-.42.143-.702.424-.983.844-.282.424-.563.844-.563 1.27-.14.422 0 .983.142 1.406.14.423.14.842.14 1.268 0 .423 0 .983-.14 1.55l-.423 1.686c-.14.562-.42 1.125-.563 1.69-.14.562-.282 1.123-.423 1.548-.14.423-.14.844-.14 1.55 0 .7 0 1.125.14 1.547h1.267c.422-.702.844-1.688 1.126-2.674.282-.986.562-2.11.844-3.095.14-.144.28 0 .422.14 0 .142.14.285.283.424.42.28.844.562 1.406.562.563.14 1.127.14 1.69 0 .562-.144 1.124-.28 1.547-.425.426-.15.846-.43 1.13-.712z"/></svg><svg width="17" height="17" viewBox="-306.5 395.5 17 17" id="pinterest-sm" x="153.67" y="67.43"><path fill="#010101" d="M-293.91 406.94c.778-.664 1.333-1.553 1.667-2.664.334-1.11.444-2.22.334-3.223 0-.554-.222-1.11-.555-1.665-.334-.558-.667-1-1.11-1.335-.335-.332-.89-.775-1.446-.997-.556-.22-1.112-.444-1.78-.557-.89 0-1.888 0-2.776.22-.89.223-1.667.558-2.333 1.112-.665.557-1.22 1.11-1.666 1.887-.333.667-.556 1.556-.556 2.445 0 .887.112 1.666.445 2.222.334.555.89.998 1.667 1.333.223-.222.445-.558.445-.78s0-.442-.11-.666c-.113-.222-.334-.444-.446-.668-.11-.22-.223-.555-.223-.776-.11-.777.11-1.555.444-2.333.334-.665.89-1.223 1.556-1.776.667-.444 1.444-.778 2.222-.778.777-.11 1.666.112 2.444.666.555.334 1 .89 1.223 1.668.333.892.333 1.668.333 2.557-.11.774-.333 1.555-.78 2.33-.33.67-.887 1.112-1.664 1.227-.223.11-.556.11-.89 0-.222-.113-.444-.222-.554-.335-.334-.333-.556-.668-.445-1.11 0-.444.11-.89.333-1.336.112-.442.334-.888.445-1.442.11-.443.11-1-.11-1.443-.112-.335-.333-.558-.667-.668-.334-.11-.556 0-.89.11s-.554.335-.776.666c-.223.335-.445.668-.445 1.003-.11.333 0 .776.11 1.11s.112.665.112 1c0 .334 0 .777-.11 1.224l-.334 1.33s-.333.89-.445 1.335c-.11.443-.223.888-.334 1.222s-.11.666-.11 1.224c0 .556 0 .89.11 1.223h1c.333-.555.667-1.333.89-2.11.222-.78.444-1.667.666-2.444.11-.113.222 0 .333.11 0 .11.112.225.223.334.333.222.667.443 1.11.443.446.112.89.112 1.335 0 .446-.11.89-.222 1.224-.334.33-.115.663-.337.886-.562z"/></svg><svg width="21" height="21" viewBox="-306 396 21 21" id="pinterest-white-19x19" x="231" y="225.10000000000002"><path fill="#FFF" d="M-290.318 410.227c.983-.84 1.688-1.97 2.11-3.378.423-1.405.562-2.81.423-4.082 0-.7-.28-1.406-.705-2.11-.423-.704-.846-1.27-1.406-1.69-.423-.417-1.128-.98-1.83-1.263-.703-.28-1.406-.565-2.252-.704-1.128 0-2.394 0-3.52.282-1.124.282-2.108.705-2.952 1.406-.845.705-1.55 1.406-2.113 2.39-.42.85-.705 1.975-.705 3.1 0 1.127.142 2.11.563 2.815.424.703 1.126 1.263 2.112 1.688.28-.277.562-.703.562-.984s0-.563-.143-.85c-.14-.28-.42-.558-.562-.844-.14-.277-.282-.7-.282-.982-.14-.983.142-1.97.565-2.955.42-.842 1.125-1.548 1.968-2.253.845-.562 1.83-.983 2.816-.983.984-.143 2.11.14 3.095.84.703.423 1.267 1.13 1.55 2.114.422 1.127.422 2.112.422 3.24-.143.98-.424 1.97-.99 2.953-.418.845-1.124 1.406-2.107 1.55-.28.14-.704.14-1.126 0-.283-.14-.562-.28-.702-.422-.425-.424-.704-.85-.565-1.407 0-.562.14-1.13.422-1.69.143-.56.422-1.127.562-1.83.14-.56.14-1.267-.14-1.825-.14-.425-.42-.706-.845-.848-.425-.14-.706 0-1.126.142-.42.14-.702.422-.984.84-.283.425-.563.85-.563 1.274-.14.42 0 .984.14 1.405.14.42.14.845.14 1.27 0 .42 0 .983-.14 1.545l-.42 1.687c-.143.562-.424 1.13-.563 1.69-.142.562-.284 1.126-.424 1.55-.14.42-.14.842-.14 1.546 0 .706 0 1.13.14 1.55h1.27c.42-.702.844-1.688 1.124-2.674.283-.99.564-2.11.845-3.096.14-.14.28 0 .42.137 0 .146.143.288.282.428.423.28.846.56 1.41.56.562.146 1.124.146 1.688 0 .562-.14 1.125-.28 1.548-.42.42-.145.84-.428 1.124-.71z"/></svg><svg width="22" height="22" viewBox="-309 393 22 22" id="pinterest-white-20x20" x="294" y="183.10000000000002"><path fill="#FFF" d="M-292.547 407.923c1.037-.888 1.777-2.073 2.223-3.555.446-1.48.592-2.96.446-4.296 0-.74-.297-1.48-.742-2.22-.446-.745-.89-1.336-1.48-1.78-.447-.443-1.187-1.034-1.927-1.33-.74-.294-1.48-.593-2.37-.742-1.187 0-2.52 0-3.704.296s-2.223.742-3.11 1.48c-.89.743-1.63 1.482-2.224 2.518-.444.89-.742 2.075-.742 3.26 0 1.184.15 2.222.593 2.964.446.74 1.186 1.33 2.223 1.777.297-.296.593-.744.593-1.04 0-.295 0-.59-.15-.89-.147-.296-.443-.59-.592-.89-.146-.293-.294-.74-.294-1.035-.15-1.036.148-2.072.593-3.11.443-.888 1.185-1.63 2.072-2.37.89-.593 1.926-1.038 2.963-1.038 1.036-.147 2.22.15 3.258.888.74.446 1.333 1.188 1.63 2.225.445 1.188.445 2.224.445 3.41-.148 1.03-.444 2.07-1.04 3.106-.44.892-1.183 1.482-2.218 1.635-.297.147-.74.147-1.186 0-.297-.15-.593-.296-.74-.446-.446-.444-.74-.89-.594-1.482 0-.592.148-1.186.444-1.78.15-.588.446-1.183.593-1.922.148-.592.148-1.333-.147-1.925-.148-.445-.444-.742-.89-.89-.446-.147-.74 0-1.185.148-.443.15-.74.445-1.036.887-.298.447-.594.89-.594 1.338-.148.443 0 1.035.148 1.48.15.444.15.887.15 1.335 0 .443 0 1.035-.15 1.63l-.444 1.773c-.15.593-.444 1.187-.593 1.78-.148.592-.297 1.184-.445 1.63-.15.445-.15.887-.15 1.63 0 .74 0 1.187.15 1.63h1.334c.444-.74.89-1.777 1.185-2.814.298-1.04.594-2.223.89-3.26.148-.148.295 0 .444.148 0 .15.148.3.297.446.445.296.89.592 1.482.592.593.15 1.186.15 1.778 0s1.185-.296 1.63-.445c.443-.15.886-.446 1.183-.744z"/></svg><svg width="17" height="17" viewBox="-306 396 17 17" id="pinterest-wht-sm" x="170.67" y="67.43"><path fill="#FFF" d="M-293.682 407.246c.726-.62 1.244-1.45 1.556-2.488.312-1.035.414-2.072.312-3.008 0-.518-.208-1.037-.52-1.555-.31-.52-.622-.934-1.036-1.246-.312-.31-.83-.724-1.35-.93-.517-.208-1.036-.417-1.66-.52-.83 0-1.762 0-2.59.206-.83.207-1.557.52-2.18 1.037-.62.52-1.14 1.037-1.555 1.762-.31.623-.52 1.453-.52 2.283 0 .828.105 1.555.416 2.074.313.518.83.932 1.557 1.244.208-.207.415-.52.415-.727s0-.415-.104-.624c-.104-.207-.31-.414-.415-.623-.103-.205-.207-.518-.207-.725-.104-.725.104-1.45.415-2.178.312-.62.83-1.14 1.453-1.658.622-.416 1.348-.727 2.074-.727.725-.104 1.555.104 2.28.62.52.313.934.833 1.143 1.558.31.832.31 1.557.31 2.387-.103.723-.31 1.45-.726 2.176-.31.623-.83 1.037-1.554 1.143-.208.103-.52.103-.83 0-.208-.106-.415-.208-.518-.313-.312-.31-.52-.623-.416-1.037 0-.414.104-.83.31-1.246.106-.412.313-.828.416-1.346.104-.414.104-.934-.103-1.348-.105-.312-.312-.52-.624-.623s-.52 0-.83.104c-.31.105-.518.312-.725.622-.207.312-.414.623-.414.936-.104.31 0 .725.104 1.037.104.31.104.62.104.934 0 .31 0 .724-.104 1.14l-.31 1.242s-.312.83-.416 1.246c-.104.414-.208.828-.312 1.14-.104.312-.104.622-.104 1.142 0 .518 0 .83.104 1.14h.934c.31-.517.622-1.243.83-1.97s.415-1.555.622-2.28c.104-.105.207 0 .31.103 0 .104.105.21.21.312.31.207.622.414 1.036.414.415.104.83.104 1.245 0 .414-.105.828-.208 1.14-.312.31-.106.62-.313.828-.522z"/></svg><svg width="21" height="21" viewBox="-1 -1 21 21" id="plus-md" x="168" y="225.10000000000002"><path d="M19 8.143h-8.143V0H8.143v8.143H0v2.714h8.143V19h2.714v-8.143H19z"/></svg><svg width="17" height="17" viewBox="-1 -1 21 21" id="plus-sm" x="204.67" y="67.43"><path d="M19 8.143h-8.143V0H8.143v8.143H0v2.714h8.143V19h2.714v-8.143H19z"/></svg><svg width="17" height="17" viewBox="-1 -1 21 21" id="plus-wht-sm" x="221.67" y="67.43"><path fill="#FFF" d="M19 8.143h-8.143V0H8.143v8.143H0v2.714h8.143V19h2.714v-8.143H19z"/></svg><svg width="21" height="21" viewBox="-1 -1 21 21" id="print-md" x="84" y="225.10000000000002"><path d="M17.86 5.193h-2.407V2.787h-.633V.253H4.18v2.66h-.633v2.28H1.14C.507 5.193 0 5.7 0 6.333v8.234c0 .633.507 1.14 1.14 1.14h1.9l-.507 3.04H16.34l-.507-3.04h2.027c.633 0 1.14-.507 1.14-1.14V6.333c0-.633-.507-1.14-1.14-1.14zM4.94 1.267h9.12v5.826H4.813V1.267zM2.407 8.993c-.634 0-1.14-.506-1.14-1.14 0-.633.506-1.14 1.14-1.14.633 0 1.14.507 1.14 1.14 0 .634-.507 1.14-1.14 1.14zM15.2 17.86H3.8l.38-2.153.38-2.787h9.753l.507 2.787.38 2.153z"/></svg><svg width="17" height="17" viewBox="-1 -1 21 21" id="print-sm" x="255.67" y="67.43"><path d="M17.86 5.193h-2.407V2.787h-.633V.253H4.18v2.66h-.633v2.28H1.14C.507 5.193 0 5.7 0 6.333v8.234c0 .633.507 1.14 1.14 1.14h1.9l-.507 3.04H16.34l-.507-3.04h2.027c.633 0 1.14-.507 1.14-1.14V6.333c0-.633-.507-1.14-1.14-1.14zM4.94 1.267h9.12v5.826H4.813V1.267zM2.407 8.993c-.634 0-1.14-.506-1.14-1.14 0-.633.506-1.14 1.14-1.14.633 0 1.14.507 1.14 1.14 0 .634-.507 1.14-1.14 1.14zM15.2 17.86H3.8l.38-2.153.38-2.787h9.753l.507 2.787.38 2.153z"/></svg><svg width="17" height="17" viewBox="-1 -1 21 21" id="print-wht-sm" x="272.66999999999996" y="67.43"><path fill="#FFF" d="M17.86 5.193h-2.407V2.787h-.633V.253H4.18v2.66h-.633v2.28H1.14C.507 5.193 0 5.7 0 6.333v8.234c0 .633.507 1.14 1.14 1.14h1.9l-.507 3.04H16.34l-.507-3.04h2.027c.633 0 1.14-.507 1.14-1.14V6.333c0-.633-.507-1.14-1.14-1.14zM4.94 1.267h9.12v5.826H4.813V1.267zM2.407 8.993c-.634 0-1.14-.506-1.14-1.14 0-.633.506-1.14 1.14-1.14.633 0 1.14.507 1.14 1.14 0 .634-.507 1.14-1.14 1.14zM15.2 17.86H3.8l.38-2.153.38-2.787h9.753l.507 2.787.38 2.153z"/></svg><svg width="21" height="21" viewBox="3.9 3.9 21 21" id="search" x="63" y="225.10000000000002"><path d="M23.9 21.98l-5.173-5.172c.892-1.25 1.338-2.765 1.338-4.37 0-4.193-3.39-7.583-7.583-7.583-4.192 0-7.583 3.39-7.583 7.582s3.39 7.582 7.582 7.582c1.606 0 3.123-.535 4.372-1.34l5.262 5.265L23.9 21.98zM7.576 12.35c0-2.676 2.23-4.906 4.906-4.906s4.907 2.23 4.907 4.906c0 2.677-2.23 4.906-4.908 4.906-2.765.09-4.906-2.14-4.906-4.906z"/></svg><svg width="21" height="21" viewBox="3.9 3.9 21 21" id="search-md" x="42" y="225.10000000000002"><path d="M23.9 21.98l-5.173-5.172c.892-1.25 1.338-2.765 1.338-4.37 0-4.193-3.39-7.583-7.583-7.583-4.192 0-7.583 3.39-7.583 7.582s3.39 7.582 7.582 7.582c1.606 0 3.123-.535 4.372-1.34l5.262 5.265L23.9 21.98zM7.576 12.35c0-2.676 2.23-4.906 4.906-4.906s4.907 2.23 4.907 4.906c0 2.677-2.23 4.906-4.908 4.906-2.765.09-4.906-2.14-4.906-4.906z"/></svg><svg width="21" height="21" viewBox="-1 -1 21 21" id="share-md" x="21" y="225.10000000000002"><path d="M13.997 12.254c-.787 0-1.462.225-2.024.675l-3.71-2.475c.113-.338.113-.563.113-.9 0-.337-.113-.674-.113-.9l3.71-2.585c.562.45 1.237.676 2.024.676 1.91 0 3.373-1.574 3.373-3.373C17.37 1.463 15.796 0 13.997 0c-1.8 0-3.373 1.574-3.373 3.373 0 .337.113.674.113.9l-3.71 2.585c-.563-.45-1.237-.675-2.024-.675-1.91 0-3.373 1.574-3.373 3.373 0 1.91 1.574 3.373 3.373 3.373.787 0 1.46-.227 2.023-.677l3.71 2.474c-.112.337-.112.562-.112.9 0 1.91 1.574 3.372 3.373 3.372 1.8 0 3.373-1.575 3.373-3.374 0-1.91-1.462-3.373-3.373-3.373z"/></svg><svg width="17" height="17" viewBox="-1 -1 21 21" id="share-sm" x="340.66999999999996" y="67.43"><path d="M13.997 12.254c-.787 0-1.462.225-2.024.675l-3.71-2.475c.113-.338.113-.563.113-.9 0-.337-.113-.674-.113-.9l3.71-2.585c.562.45 1.237.676 2.024.676 1.91 0 3.373-1.574 3.373-3.373C17.37 1.463 15.796 0 13.997 0c-1.8 0-3.373 1.574-3.373 3.373 0 .337.113.674.113.9l-3.71 2.585c-.563-.45-1.237-.675-2.024-.675-1.91 0-3.373 1.574-3.373 3.373 0 1.91 1.574 3.373 3.373 3.373.787 0 1.46-.227 2.023-.677l3.71 2.474c-.112.337-.112.562-.112.9 0 1.91 1.574 3.372 3.373 3.372 1.8 0 3.373-1.575 3.373-3.374 0-1.91-1.462-3.373-3.373-3.373z"/></svg><svg width="17" height="17" viewBox="-1 -1 21 21" id="share-wht-sm" x="409" y="225.10000000000002"><path fill="#FFF" d="M13.997 12.254c-.787 0-1.462.225-2.024.675l-3.71-2.475c.113-.338.113-.563.113-.9 0-.337-.113-.674-.113-.9l3.71-2.585c.562.45 1.237.676 2.024.676 1.91 0 3.373-1.574 3.373-3.373C17.37 1.463 15.796 0 13.997 0c-1.8 0-3.373 1.574-3.373 3.373 0 .337.113.674.113.9l-3.71 2.585c-.563-.45-1.237-.675-2.024-.675-1.91 0-3.373 1.574-3.373 3.373 0 1.91 1.574 3.373 3.373 3.373.787 0 1.46-.227 2.023-.677l3.71 2.474c-.112.337-.112.562-.112.9 0 1.91 1.574 3.372 3.373 3.372 1.8 0 3.373-1.575 3.373-3.374 0-1.91-1.462-3.373-3.373-3.373z"/></svg><svg width="42" height="42" viewBox="4 4 42 42" id="slideshow-red-lg" x="265" y="86.10000000000001"><circle fill="#EE2E24" cx="24.999" cy="25" r="19.875"/><path fill="#FFF" d="M21.742 14.482l-2.256 2.325H15.92c-.828 0-1.493.676-1.493 1.52v13.21c0 .844.666 1.518 1.492 1.518h18.124c.826 0 1.488-.674 1.488-1.518v-13.21c0-.843-.662-1.52-1.488-1.52h-3.57l-2.255-2.325H21.74zm3.238 5.074c2.914 0 5.275 2.41 5.275 5.376 0 2.97-2.36 5.376-5.275 5.376-2.916 0-5.277-2.406-5.277-5.376 0-2.968 2.36-5.376 5.277-5.376zm0 1.903c-1.884 0-3.41 1.553-3.41 3.473s1.526 3.476 3.41 3.476c1.883 0 3.41-1.558 3.41-3.477 0-1.92-1.527-3.474-3.41-3.474z"/></svg><svg width="153.67" height="18.67" viewBox="30.13 82.33 153.67 18.67" id="sweeps-divider" y="67.43"><path fill="#F5EB23" d="M35.333 86h144v1.167h-144zM35.333 91h144v1.166h-144zM35.333 96h144v1.166h-144z"/></svg><svg width="21" height="21" viewBox="-1 -1 21 21" id="tumblr-md" x="126" y="225.10000000000002"><path d="M14.128 15.224c-.365.122-.974.366-1.583.366-1.584 0-1.827-1.096-1.827-1.827V7.795h3.775V4.872h-3.775V0H7.916s-.12 0-.12.122c-.123 1.46-.854 4.14-3.777 5.115v2.436h1.947v6.212C5.967 16.077 7.55 19 11.692 19c1.462 0 2.923-.61 3.29-1.096l-.854-2.68z"/></svg><svg width="17" height="17" viewBox="-1 -1 21 21" id="tumblr-sm" x="273" y="225.10000000000002"><path d="M14.128 15.224c-.365.122-.974.366-1.583.366-1.584 0-1.827-1.096-1.827-1.827V7.795h3.775V4.872h-3.775V0H7.916s-.12 0-.12.122c-.123 1.46-.854 4.14-3.777 5.115v2.436h1.947v6.212C5.967 16.077 7.55 19 11.692 19c1.462 0 2.923-.61 3.29-1.096l-.854-2.68z"/></svg><svg width="17" height="17" viewBox="-1 -1 21 21" id="tumblr-wht-sm" x="290" y="225.10000000000002"><path fill="#FFF" d="M14.128 15.224c-.365.122-.974.366-1.583.366-1.584 0-1.827-1.096-1.827-1.827V7.795h3.775V4.872h-3.775V0H7.916s-.12 0-.12.122c-.123 1.46-.854 4.14-3.777 5.115v2.436h1.947v6.212C5.967 16.077 7.55 19 11.692 19c1.462 0 2.923-.61 3.29-1.096l-.854-2.68z"/></svg><svg width="14" height="14" viewBox="-306.5 395.5 14 14" id="twitter-grey-12x12" y="246.10000000000002"><path fill="#7F7F7F" d="M-293.5 398.702c-.2.1-.5.2-.7.2-.2.1-.5.1-.7.197.302-.2.5-.4.7-.6.2-.2.3-.5.5-.8-.3.1-.5.198-.8.4-.298.098-.5.197-.8.197-.3-.198-.6-.4-.9-.598-.3-.103-.598-.202-1-.202-.698 0-1.198.2-1.7.702-.5.498-.7 1.1-.7 1.8 0 .1 0 .3.102.6-1 0-2-.3-2.9-.803-.9-.4-1.6-1.1-2.3-1.8-.2.402-.3.802-.3 1.2 0 .9.398 1.6 1.1 2.1-.4 0-.8-.1-1.1-.3 0 .6.198 1.1.6 1.6.3.5.8.8 1.298.9-.1 0-.2 0-.3.1h-.4c-.1 0-.2 0-.4-.1.2.5.5 1 .9 1.3.4.3.9.5 1.5.5-.898.7-1.9 1.1-3 1.1h-.7c.5.4 1.1.602 1.8.802.6.198 1.3.3 2 .3 1.1 0 2.1-.2 3-.7.9-.4 1.6-1 2.2-1.703.6-.696 1-1.396 1.3-2.298.3-.8.5-1.7.5-2.502v-.3c.302-.2.5-.4.7-.602.2-.193.4-.495.5-.694z"/></svg><svg width="17" height="17" viewBox="-299 403 17 17" id="twitter-grey-15x15" x="324" y="225.10000000000002"><path fill="#7F7F7F" d="M-283 406.75c-.25.127-.625.25-.875.25-.25.125-.625.125-.874.25.376-.25.626-.5.875-.748.25-.25.376-.627.625-1-.375.123-.625.246-1 .5-.374.12-.624.246-1 .246-.374-.246-.75-.5-1.124-.746-.375-.127-.75-.252-1.25-.252-.874 0-1.5.252-2.125.877-.624.625-.874 1.375-.874 2.25 0 .125 0 .375.125.748-1.25 0-2.5-.373-3.623-1.002-1.126-.5-2.002-1.37-2.876-2.248-.25.502-.374 1.002-.374 1.5 0 1.125.5 2 1.375 2.623-.5 0-.998-.123-1.374-.375 0 .75.25 1.377.75 2.002.375.623 1 .998 1.624 1.123-.124 0-.25 0-.374.127h-.5c-.126 0-.25 0-.5-.127.25.625.624 1.252 1.124 1.627s1.125.625 1.875.625c-1.124.873-2.375 1.373-3.75 1.373H-298c.625.502 1.375.75 2.25 1.002.75.248 1.625.375 2.5.375 1.375 0 2.625-.25 3.75-.875 1.125-.502 2-1.252 2.75-2.13.75-.87 1.25-1.745 1.626-2.872.375-.998.625-2.123.625-3.125v-.377c.377-.247.626-.497.875-.747.25-.246.5-.623.625-.873z"/></svg><svg width="32" height="32" viewBox="-312 390 32 32" id="twitter-grey-30x30" x="391" y="128.10000000000002"><path fill="#7F7F7F" d="M-281 396.5c-.503.252-1.25.497-1.75.497-.5.252-1.25.252-1.748.5.75-.5 1.25-1 1.748-1.496.498-.498.752-1.25 1.25-1.998-.75.246-1.25.494-1.998 1-.75.244-1.25.494-2 .494-.75-.494-1.5-1-2.25-1.494-.75-.252-1.498-.503-2.5-.503-1.748 0-2.997.502-4.25 1.754-1.248 1.247-1.75 2.747-1.75 4.497 0 .253 0 .752.252 1.5-2.5 0-5-.75-7.247-2.004-2.252-1-4.005-2.745-5.752-4.498-.5 1.004-.75 2.003-.75 3.002 0 2.248.997 3.997 2.748 5.244-1 0-1.998-.244-2.75-.748 0 1.5.498 2.75 1.5 4.002.75 1.247 2 1.995 3.25 2.246-.25 0-.5 0-.75.253h-1.002c-.248 0-.498 0-.998-.253.5 1.252 1.25 2.503 2.25 3.254 1.002.75 2.25 1.252 3.75 1.252-2.247 1.744-4.748 2.743-7.5 2.743H-311c1.25 1.007 2.75 1.503 4.5 2.004 1.498.498 3.25.75 5 .75 2.75 0 5.25-.498 7.5-1.75 2.25-1.003 4-2.5 5.5-4.255 1.497-1.744 2.5-3.494 3.25-5.746.75-2 1.25-4.248 1.25-6.253v-.75c.753-.497 1.25-.997 1.75-1.5.5-.49 1-1.244 1.25-1.744z"/></svg><svg width="21" height="21" viewBox="-306.5 395.5 21 21" id="twitter-md" x="189" y="225.10000000000002"><path fill="#010101" d="M-286.5 399.982c-.32.16-.792.316-1.108.316-.316.16-.79.16-1.107.316.476-.316.79-.633 1.107-.947.315-.316.476-.793.792-1.267-.475.157-.792.314-1.265.634-.475.154-.793.313-1.267.313-.476-.313-.95-.633-1.426-.947-.475-.16-.948-.318-1.583-.318-1.107 0-1.898.318-2.69 1.11-.792.79-1.11 1.742-1.11 2.85 0 .16 0 .476.16.95-1.583 0-3.167-.475-4.59-1.27-1.426-.633-2.536-1.74-3.643-2.85-.316.637-.475 1.27-.475 1.902 0 1.424.632 2.532 1.74 3.322-.63 0-1.264-.155-1.74-.474 0 .95.315 1.742.95 2.534.475.79 1.267 1.264 2.057 1.423-.157 0-.316 0-.474.16h-.635c-.158 0-.316 0-.633-.16.317.792.792 1.584 1.426 2.06.634.475 1.425.793 2.375.793-1.423 1.104-3.007 1.737-4.75 1.737h-1.11c.792.638 1.742.952 2.85 1.27.95.315 2.06.475 3.166.475 1.743 0 3.326-.316 4.75-1.11 1.426-.634 2.534-1.583 3.483-2.694.948-1.103 1.582-2.212 2.06-3.638.474-1.266.79-2.69.79-3.96v-.476c.477-.314.792-.63 1.108-.95.317-.31.634-.787.792-1.104z"/></svg><svg width="17" height="17" viewBox="-306.5 395.5 17 17" id="twitter-sm" x="375" y="225.10000000000002"><path fill="#010101" d="M-290.5 399.248c-.25.124-.625.248-.874.248-.25.125-.626.125-.875.253.378-.254.627-.504.876-.75.25-.25.375-.626.625-1-.374.124-.624.247-1 .5-.373.123-.624.248-1 .248-.375-.248-.75-.5-1.125-.75-.375-.122-.75-.25-1.25-.25-.874 0-1.498.25-2.124.877-.625.624-.874 1.374-.874 2.25 0 .125 0 .374.125.75-1.248 0-2.5-.377-3.624-1.002-1.126-.5-2-1.374-2.875-2.25-.25.5-.374 1-.374 1.5 0 1.126.5 1.998 1.374 2.623-.5 0-1-.122-1.374-.374 0 .75.25 1.375.75 2 .375.624 1 1 1.625 1.124-.123 0-.25 0-.373.126h-.502c-.124 0-.25 0-.5-.126.25.626.625 1.252 1.126 1.626.502.376 1.126.626 1.876.626-1.125.872-2.375 1.373-3.75 1.373h-.877c.624.503 1.375.752 2.25 1.004.748.248 1.624.375 2.5.375 1.374 0 2.624-.25 3.75-.876 1.124-.504 2-1.254 2.75-2.127.748-.875 1.25-1.753 1.625-2.877.375-.998.625-2.123.625-3.124v-.377c.376-.25.626-.5.875-.75.25-.247.5-.623.625-.872z"/></svg><svg width="17" height="17" viewBox="-306 396 17 17" id="twitter-wht-sm" x="392" y="225.10000000000002"><path fill="#FFF" d="M-291 400.383c-.218.11-.542.216-.758.216-.216.108-.542.108-.758.217.326-.218.542-.434.758-.65.216-.215.325-.54.54-.865-.324.108-.54.216-.865.433-.324.107-.542.216-.866.216l-.975-.647c-.325-.11-.65-.218-1.083-.218-.758 0-1.3.218-1.84.76-.543.54-.76 1.19-.76 1.95 0 .108 0 .324.11.648-1.083 0-2.167-.324-3.14-.867-.977-.433-1.736-1.19-2.494-1.95-.216.435-.325.868-.325 1.302 0 .974.433 1.73 1.19 2.273-.432 0-.865-.105-1.19-.323 0 .65.216 1.19.65 1.733.325.54.867.865 1.408.975-.107 0-.215 0-.323.108h-.434c-.108 0-.217 0-.434-.108.216.542.54 1.084.975 1.41.434.323.975.54 1.625.54-.975.757-2.06 1.19-3.25 1.19h-.76c.542.436 1.192.65 1.95.87.65.215 1.41.323 2.166.323 1.192 0 2.276-.216 3.25-.758.976-.436 1.734-1.085 2.384-1.845.65-.756 1.083-1.516 1.41-2.49.324-.866.54-1.842.54-2.71v-.324c.326-.215.542-.432.758-.65.217-.214.434-.54.542-.757z"/></svg><svg width="97" height="97" viewBox="26.5 26.5 97 97" id="video-play-button" y="86.10000000000001"><path fill="#FFF" d="M74.923 28.167c12.88 0 23.893 4.572 33.037 13.72 9.145 9.143 13.72 20.156 13.72 33.035 0 12.883-4.575 23.892-13.72 33.038-9.145 9.146-20.155 13.72-33.037 13.72s-23.893-4.573-33.037-13.72c-9.144-9.146-13.72-20.158-13.72-33.038 0-12.88 4.576-23.892 13.72-33.036 9.144-9.148 20.155-13.72 33.037-13.72z"/><path fill="#EE2E24" d="M59.843 94.418V55.62c0-1.81 1.99-3.147 3.945-2.093 1.572.842 33 17.902 35.68 19.357 1.765.962 1.73 3.246 0 4.202C97.536 78.156 66 95.3 63.712 96.49c-1.672.875-3.87-.083-3.87-2.072z"/></svg><svg width="42" height="42" viewBox="-1 -1 42 42" id="video-red-lg" x="223" y="86.10000000000001"><path fill="#EE2E24" d="M20 .218c5.45 0 10.11 1.934 13.98 5.804 3.868 3.87 5.804 8.53 5.804 13.98 0 5.45-1.936 10.108-5.805 13.98-3.87 3.868-8.53 5.8-13.98 5.8S9.89 37.85 6.02 33.98C2.153 30.11.218 25.45.218 20c0-5.45 1.936-10.11 5.805-13.98C9.892 2.153 14.55.22 20 .22z"/><path fill="#FFF" d="M13.62 28.25V11.833c0-.766.84-1.332 1.67-.886.664.356 13.96 7.575 15.096 8.19.746.407.732 1.374 0 1.778-.817.453-14.16 7.707-15.13 8.21-.707.37-1.637-.033-1.637-.875z"/></svg></svg>